<svg width="138" height="48" viewBox="0 0 138 48" fill="none" xmlns="http://www.w3.org/2000/svg">
<g filter="url(#filter0_d_193_669)">
<rect x="4.5" y="2.5" width="129" height="39" rx="5.5" fill="white" stroke="#50A021"/>
<path d="M45.6586 20.96C45.6586 20.3533 45.7659 19.7607 45.9806 19.182C46.2046 18.594 46.5266 18.062 46.9466 17.586C47.3666 17.1007 47.8799 16.718 48.4866 16.438C49.0933 16.1487 49.7839 16.004 50.5586 16.004C51.4733 16.004 52.2619 16.2047 52.9246 16.606C53.5966 17.0073 54.0959 17.53 54.4226 18.174L52.9386 19.196C52.7706 18.8227 52.5513 18.5287 52.2806 18.314C52.0099 18.09 51.7206 17.936 51.4126 17.852C51.1046 17.7587 50.8013 17.712 50.5026 17.712C50.0173 17.712 49.5926 17.81 49.2286 18.006C48.8739 18.202 48.5753 18.4587 48.3326 18.776C48.0899 19.0933 47.9079 19.448 47.7866 19.84C47.6746 20.232 47.6186 20.624 47.6186 21.016C47.6186 21.4547 47.6886 21.8793 47.8286 22.29C47.9686 22.6913 48.1646 23.0507 48.4166 23.368C48.6779 23.676 48.9859 23.9233 49.3406 24.11C49.7046 24.2873 50.1013 24.376 50.5306 24.376C50.8386 24.376 51.1513 24.3247 51.4686 24.222C51.7859 24.1193 52.0799 23.956 52.3506 23.732C52.6213 23.508 52.8313 23.2187 52.9806 22.864L54.5626 23.774C54.3666 24.2687 54.0446 24.6887 53.5966 25.034C53.1579 25.3793 52.6633 25.6407 52.1126 25.818C51.5619 25.9953 51.0159 26.084 50.4746 26.084C49.7653 26.084 49.1166 25.9393 48.5286 25.65C47.9406 25.3513 47.4319 24.9593 47.0026 24.474C46.5826 23.9793 46.2513 23.4287 46.0086 22.822C45.7753 22.206 45.6586 21.5853 45.6586 20.96ZM55.6763 26V18.664H57.5523V26H55.6763ZM57.2303 17.81L56.0263 17.446L56.7823 15.78H58.5323L57.2303 17.81ZM70.6406 26H68.7646V21.884C68.7646 21.3053 68.662 20.8807 68.4566 20.61C68.2606 20.33 67.9853 20.19 67.6306 20.19C67.2666 20.19 66.9166 20.3347 66.5806 20.624C66.254 20.904 66.0206 21.2727 65.8806 21.73V26H64.0046V21.884C64.0046 21.296 63.902 20.8667 63.6966 20.596C63.5006 20.3253 63.2253 20.19 62.8706 20.19C62.5066 20.19 62.1566 20.33 61.8206 20.61C61.494 20.89 61.2606 21.2587 61.1206 21.716V26H59.2446V18.664H60.9386V20.022C61.2186 19.546 61.592 19.182 62.0586 18.93C62.5253 18.6687 63.062 18.538 63.6686 18.538C64.2753 18.538 64.7466 18.6873 65.0826 18.986C65.428 19.2847 65.6473 19.6533 65.7406 20.092C66.0393 19.588 66.4173 19.2053 66.8746 18.944C67.3413 18.6733 67.864 18.538 68.4426 18.538C68.9 18.538 69.2686 18.622 69.5486 18.79C69.838 18.9487 70.062 19.168 70.2206 19.448C70.3793 19.7187 70.4866 20.0267 70.5426 20.372C70.608 20.7173 70.6406 21.0673 70.6406 21.422V26ZM72.2599 15.78H74.1359V23.648C74.1359 23.984 74.1919 24.2127 74.3039 24.334C74.4159 24.446 74.5699 24.502 74.7659 24.502C74.9153 24.502 75.0693 24.4833 75.2279 24.446C75.3866 24.4087 75.5266 24.362 75.6479 24.306L75.8999 25.734C75.6479 25.8553 75.3539 25.9487 75.0179 26.014C74.6819 26.0793 74.3786 26.112 74.1079 26.112C73.5199 26.112 73.0626 25.958 72.7359 25.65C72.4186 25.3327 72.2599 24.8847 72.2599 24.306V15.78ZM76.2133 23.83C76.2133 23.354 76.3439 22.9387 76.6053 22.584C76.8759 22.22 77.2493 21.94 77.7253 21.744C78.2013 21.548 78.7473 21.45 79.3633 21.45C79.6713 21.45 79.9839 21.4733 80.3013 21.52C80.6186 21.5667 80.8939 21.6413 81.1273 21.744V21.352C81.1273 20.8853 80.9873 20.526 80.7073 20.274C80.4366 20.022 80.0306 19.896 79.4893 19.896C79.0879 19.896 78.7053 19.966 78.3413 20.106C77.9773 20.246 77.5946 20.4513 77.1933 20.722L76.5913 19.49C77.0766 19.1727 77.5713 18.9347 78.0753 18.776C78.5886 18.6173 79.1253 18.538 79.6853 18.538C80.7306 18.538 81.5426 18.7993 82.1213 19.322C82.7093 19.8447 83.0033 20.5913 83.0033 21.562V23.9C83.0033 24.096 83.0359 24.236 83.1013 24.32C83.1759 24.404 83.2926 24.4553 83.4513 24.474V26C83.2833 26.028 83.1293 26.0513 82.9893 26.07C82.8586 26.0887 82.7466 26.098 82.6533 26.098C82.2799 26.098 81.9953 26.014 81.7993 25.846C81.6126 25.678 81.4959 25.4727 81.4493 25.23L81.4073 24.852C81.0899 25.2627 80.6933 25.58 80.2173 25.804C79.7413 26.028 79.2559 26.14 78.7613 26.14C78.2759 26.14 77.8373 26.042 77.4453 25.846C77.0626 25.6407 76.7593 25.3653 76.5353 25.02C76.3206 24.6653 76.2133 24.2687 76.2133 23.83ZM80.7773 24.208C80.8799 24.096 80.9639 23.984 81.0293 23.872C81.0946 23.76 81.1273 23.6573 81.1273 23.564V22.822C80.9033 22.7287 80.6606 22.6587 80.3993 22.612C80.1379 22.556 79.8906 22.528 79.6573 22.528C79.1719 22.528 78.7706 22.6353 78.4533 22.85C78.1453 23.0553 77.9913 23.3307 77.9913 23.676C77.9913 23.8627 78.0426 24.04 78.1453 24.208C78.2479 24.376 78.3973 24.5113 78.5933 24.614C78.7893 24.7167 79.0226 24.768 79.2933 24.768C79.5733 24.768 79.8486 24.7167 80.1193 24.614C80.3899 24.502 80.6093 24.3667 80.7773 24.208ZM89.1523 26.14C88.583 26.14 88.079 26.014 87.6403 25.762C87.211 25.5007 86.875 25.1507 86.6323 24.712V28.982H84.7563V18.664H86.3943V19.924C86.6743 19.4947 87.029 19.1587 87.4583 18.916C87.8877 18.664 88.3777 18.538 88.9283 18.538C89.423 18.538 89.8757 18.636 90.2863 18.832C90.7063 19.028 91.0703 19.3033 91.3783 19.658C91.6863 20.0033 91.9243 20.4047 92.0923 20.862C92.2697 21.31 92.3583 21.7953 92.3583 22.318C92.3583 23.0273 92.2183 23.6713 91.9383 24.25C91.6677 24.8287 91.2897 25.2907 90.8043 25.636C90.3283 25.972 89.7777 26.14 89.1523 26.14ZM88.5223 24.544C88.8117 24.544 89.073 24.4833 89.3063 24.362C89.5397 24.2407 89.7403 24.0773 89.9083 23.872C90.0857 23.6573 90.2163 23.4193 90.3003 23.158C90.3937 22.8873 90.4403 22.6073 90.4403 22.318C90.4403 22.01 90.389 21.7253 90.2863 21.464C90.193 21.2027 90.053 20.974 89.8663 20.778C89.6797 20.5727 89.4603 20.414 89.2083 20.302C88.9657 20.19 88.6997 20.134 88.4103 20.134C88.233 20.134 88.051 20.1667 87.8643 20.232C87.687 20.288 87.5143 20.372 87.3463 20.484C87.1783 20.596 87.029 20.7267 86.8983 20.876C86.777 21.0253 86.6883 21.1887 86.6323 21.366V23.088C86.7443 23.3587 86.8937 23.606 87.0803 23.83C87.2763 24.054 87.5003 24.2313 87.7523 24.362C88.0043 24.4833 88.261 24.544 88.5223 24.544Z" fill="#50A021"/>
</g>
<defs>
<filter id="filter0_d_193_669" x="0" y="0" width="138" height="48" filterUnits="userSpaceOnUse" color-interpolation-filters="sRGB">
<feFlood flood-opacity="0" result="BackgroundImageFix"/>
<feColorMatrix in="SourceAlpha" type="matrix" values="0 0 0 0 0 0 0 0 0 0 0 0 0 0 0 0 0 0 127 0" result="hardAlpha"/>
<feOffset dy="2"/>
<feGaussianBlur stdDeviation="2"/>
<feComposite in2="hardAlpha" operator="out"/>
<feColorMatrix type="matrix" values="0 0 0 0 0 0 0 0 0 0 0 0 0 0 0 0 0 0 0.15 0"/>
<feBlend mode="normal" in2="BackgroundImageFix" result="effect1_dropShadow_193_669"/>
<feBlend mode="normal" in="SourceGraphic" in2="effect1_dropShadow_193_669" result="shape"/>
</filter>
</defs>
</svg>
