<svg width="138" height="48" viewBox="0 0 138 48" fill="none" xmlns="http://www.w3.org/2000/svg">
<g filter="url(#filter0_d_193_672)">
<rect x="4.5" y="2.5" width="129" height="39" rx="5.5" fill="white" stroke="#50A021"/>
<path d="M49.8686 16.06V26H47.9506V21.758H43.4426V26H41.5106V16.06H43.4426V20.078H47.9506V16.06H49.8686ZM51.1742 23.83C51.1742 23.354 51.3049 22.9387 51.5662 22.584C51.8369 22.22 52.2102 21.94 52.6862 21.744C53.1622 21.548 53.7082 21.45 54.3242 21.45C54.6322 21.45 54.9449 21.4733 55.2622 21.52C55.5796 21.5667 55.8549 21.6413 56.0882 21.744V21.352C56.0882 20.8853 55.9482 20.526 55.6682 20.274C55.3976 20.022 54.9916 19.896 54.4502 19.896C54.0489 19.896 53.6662 19.966 53.3022 20.106C52.9382 20.246 52.5556 20.4513 52.1542 20.722L51.5522 19.49C52.0376 19.1727 52.5322 18.9347 53.0362 18.776C53.5496 18.6173 54.0862 18.538 54.6462 18.538C55.6916 18.538 56.5036 18.7993 57.0822 19.322C57.6702 19.8447 57.9642 20.5913 57.9642 21.562V23.9C57.9642 24.096 57.9969 24.236 58.0622 24.32C58.1369 24.404 58.2536 24.4553 58.4122 24.474V26C58.2442 26.028 58.0902 26.0513 57.9502 26.07C57.8196 26.0887 57.7076 26.098 57.6142 26.098C57.2409 26.098 56.9562 26.014 56.7602 25.846C56.5736 25.678 56.4569 25.4727 56.4102 25.23L56.3682 24.852C56.0509 25.2627 55.6542 25.58 55.1782 25.804C54.7022 26.028 54.2169 26.14 53.7222 26.14C53.2369 26.14 52.7982 26.042 52.4062 25.846C52.0236 25.6407 51.7202 25.3653 51.4962 25.02C51.2816 24.6653 51.1742 24.2687 51.1742 23.83ZM55.7382 24.208C55.8409 24.096 55.9249 23.984 55.9902 23.872C56.0556 23.76 56.0882 23.6573 56.0882 23.564V22.822C55.8642 22.7287 55.6216 22.6587 55.3602 22.612C55.0989 22.556 54.8516 22.528 54.6182 22.528C54.1329 22.528 53.7316 22.6353 53.4142 22.85C53.1062 23.0553 52.9522 23.3307 52.9522 23.676C52.9522 23.8627 53.0036 24.04 53.1062 24.208C53.2089 24.376 53.3582 24.5113 53.5542 24.614C53.7502 24.7167 53.9836 24.768 54.2542 24.768C54.5342 24.768 54.8096 24.7167 55.0802 24.614C55.3509 24.502 55.5702 24.3667 55.7382 24.208ZM55.2622 17.81L54.0582 17.446L54.8142 15.78H56.5642L55.2622 17.81ZM64.0449 25.622C63.8863 25.6873 63.6949 25.762 63.4709 25.846C63.2469 25.93 63.0043 25.9953 62.7429 26.042C62.4909 26.098 62.2343 26.126 61.9729 26.126C61.6276 26.126 61.3103 26.0653 61.0209 25.944C60.7316 25.8227 60.4983 25.6313 60.3209 25.37C60.1529 25.0993 60.0689 24.7493 60.0689 24.32V20.106H59.1029V18.664H60.0689V16.284H61.9449V18.664H63.4849V20.106H61.9449V23.69C61.9543 23.942 62.0243 24.124 62.1549 24.236C62.2856 24.348 62.4489 24.404 62.6449 24.404C62.8409 24.404 63.0323 24.3713 63.2189 24.306C63.4056 24.2407 63.5549 24.1847 63.6669 24.138L64.0449 25.622ZM68.3279 26.14C67.7306 26.14 67.1939 26.042 66.7179 25.846C66.2419 25.6407 65.8359 25.3607 65.4999 25.006C65.1733 24.6513 64.9213 24.2453 64.7439 23.788C64.5666 23.3307 64.4779 22.85 64.4779 22.346C64.4779 21.8327 64.5666 21.3473 64.7439 20.89C64.9213 20.4327 65.1733 20.0267 65.4999 19.672C65.8359 19.3173 66.2419 19.042 66.7179 18.846C67.1939 18.6407 67.7306 18.538 68.3279 18.538C68.9253 18.538 69.4573 18.6407 69.9239 18.846C70.3999 19.042 70.8059 19.3173 71.1419 19.672C71.4779 20.0267 71.7299 20.4327 71.8979 20.89C72.0753 21.3473 72.1639 21.8327 72.1639 22.346C72.1639 22.85 72.0753 23.3307 71.8979 23.788C71.7299 24.2453 71.4779 24.6513 71.1419 25.006C70.8153 25.3607 70.4139 25.6407 69.9379 25.846C69.4619 26.042 68.9253 26.14 68.3279 26.14ZM66.4099 22.346C66.4099 22.7753 66.4939 23.158 66.6619 23.494C66.8299 23.8207 67.0586 24.0773 67.3479 24.264C67.6373 24.4507 67.9639 24.544 68.3279 24.544C68.6826 24.544 69.0046 24.4507 69.2939 24.264C69.5833 24.068 69.8119 23.8067 69.9799 23.48C70.1573 23.144 70.2459 22.7613 70.2459 22.332C70.2459 21.912 70.1573 21.534 69.9799 21.198C69.8119 20.862 69.5833 20.6007 69.2939 20.414C69.0046 20.2273 68.6826 20.134 68.3279 20.134C67.9639 20.134 67.6373 20.232 67.3479 20.428C67.0586 20.6147 66.8299 20.876 66.6619 21.212C66.4939 21.5387 66.4099 21.9167 66.4099 22.346ZM73.4162 15.78H75.2922V23.648C75.2922 23.984 75.3482 24.2127 75.4602 24.334C75.5722 24.446 75.7262 24.502 75.9222 24.502C76.0715 24.502 76.2255 24.4833 76.3842 24.446C76.5428 24.4087 76.6828 24.362 76.8042 24.306L77.0562 25.734C76.8042 25.8553 76.5102 25.9487 76.1742 26.014C75.8382 26.0793 75.5348 26.112 75.2642 26.112C74.6762 26.112 74.2188 25.958 73.8922 25.65C73.5748 25.3327 73.4162 24.8847 73.4162 24.306V15.78ZM77.4255 22.332C77.4255 21.6227 77.5655 20.9833 77.8455 20.414C78.1255 19.8353 78.5129 19.378 79.0075 19.042C79.5022 18.706 80.0669 18.538 80.7015 18.538C81.2429 18.538 81.7282 18.6733 82.1575 18.944C82.5962 19.2053 82.9369 19.5413 83.1795 19.952V15.78H85.0555V23.9C85.0555 24.096 85.0882 24.236 85.1535 24.32C85.2189 24.404 85.3309 24.4553 85.4895 24.474V26C85.1629 26.0653 84.8969 26.098 84.6915 26.098C84.3555 26.098 84.0755 26.014 83.8515 25.846C83.6369 25.678 83.5155 25.4587 83.4875 25.188L83.4595 24.726C83.1889 25.1833 82.8202 25.5333 82.3535 25.776C81.8962 26.0187 81.4155 26.14 80.9115 26.14C80.4075 26.14 79.9409 26.042 79.5115 25.846C79.0915 25.65 78.7229 25.3793 78.4055 25.034C78.0975 24.6887 77.8549 24.2873 77.6775 23.83C77.5095 23.3633 77.4255 22.864 77.4255 22.332ZM83.1795 23.312V21.562C83.0862 21.2913 82.9369 21.0487 82.7315 20.834C82.5262 20.6193 82.2975 20.4513 82.0455 20.33C81.7935 20.1993 81.5415 20.134 81.2895 20.134C81.0002 20.134 80.7389 20.1947 80.5055 20.316C80.2722 20.4373 80.0669 20.6007 79.8895 20.806C79.7215 21.0113 79.5909 21.2493 79.4975 21.52C79.4135 21.7907 79.3715 22.0753 79.3715 22.374C79.3715 22.6727 79.4182 22.9573 79.5115 23.228C79.6142 23.4893 79.7589 23.718 79.9455 23.914C80.1322 24.11 80.3469 24.264 80.5895 24.376C80.8415 24.488 81.1122 24.544 81.4015 24.544C81.5789 24.544 81.7562 24.516 81.9335 24.46C82.1202 24.3947 82.2929 24.3107 82.4515 24.208C82.6195 24.096 82.7642 23.9653 82.8855 23.816C83.0162 23.6573 83.1142 23.4893 83.1795 23.312ZM86.393 23.83C86.393 23.354 86.5236 22.9387 86.785 22.584C87.0556 22.22 87.429 21.94 87.905 21.744C88.381 21.548 88.927 21.45 89.543 21.45C89.851 21.45 90.1636 21.4733 90.481 21.52C90.7983 21.5667 91.0736 21.6413 91.307 21.744V21.352C91.307 20.8853 91.167 20.526 90.887 20.274C90.6163 20.022 90.2103 19.896 89.669 19.896C89.2676 19.896 88.885 19.966 88.521 20.106C88.157 20.246 87.7743 20.4513 87.373 20.722L86.771 19.49C87.2563 19.1727 87.751 18.9347 88.255 18.776C88.7683 18.6173 89.305 18.538 89.865 18.538C90.9103 18.538 91.7223 18.7993 92.301 19.322C92.889 19.8447 93.183 20.5913 93.183 21.562V23.9C93.183 24.096 93.2156 24.236 93.281 24.32C93.3556 24.404 93.4723 24.4553 93.631 24.474V26C93.463 26.028 93.309 26.0513 93.169 26.07C93.0383 26.0887 92.9263 26.098 92.833 26.098C92.4596 26.098 92.175 26.014 91.979 25.846C91.7923 25.678 91.6756 25.4727 91.629 25.23L91.587 24.852C91.2696 25.2627 90.873 25.58 90.397 25.804C89.921 26.028 89.4356 26.14 88.941 26.14C88.4556 26.14 88.017 26.042 87.625 25.846C87.2423 25.6407 86.939 25.3653 86.715 25.02C86.5003 24.6653 86.393 24.2687 86.393 23.83ZM90.957 24.208C91.0596 24.096 91.1436 23.984 91.209 23.872C91.2743 23.76 91.307 23.6573 91.307 23.564V22.822C91.083 22.7287 90.8403 22.6587 90.579 22.612C90.3176 22.556 90.0703 22.528 89.837 22.528C89.3516 22.528 88.9503 22.6353 88.633 22.85C88.325 23.0553 88.171 23.3307 88.171 23.676C88.171 23.8627 88.2223 24.04 88.325 24.208C88.4276 24.376 88.577 24.5113 88.773 24.614C88.969 24.7167 89.2023 24.768 89.473 24.768C89.753 24.768 90.0283 24.7167 90.299 24.614C90.5696 24.502 90.789 24.3667 90.957 24.208ZM94.922 15.78H96.798V23.648C96.798 23.984 96.854 24.2127 96.966 24.334C97.078 24.446 97.232 24.502 97.428 24.502C97.5774 24.502 97.7314 24.4833 97.89 24.446C98.0487 24.4087 98.1887 24.362 98.31 24.306L98.562 25.734C98.31 25.8553 98.016 25.9487 97.68 26.014C97.344 26.0793 97.0407 26.112 96.77 26.112C96.182 26.112 95.7247 25.958 95.398 25.65C95.0807 25.3327 94.922 24.8847 94.922 24.306V15.78Z" fill="#50A021"/>
</g>
<defs>
<filter id="filter0_d_193_672" x="0" y="0" width="138" height="48" filterUnits="userSpaceOnUse" color-interpolation-filters="sRGB">
<feFlood flood-opacity="0" result="BackgroundImageFix"/>
<feColorMatrix in="SourceAlpha" type="matrix" values="0 0 0 0 0 0 0 0 0 0 0 0 0 0 0 0 0 0 127 0" result="hardAlpha"/>
<feOffset dy="2"/>
<feGaussianBlur stdDeviation="2"/>
<feComposite in2="hardAlpha" operator="out"/>
<feColorMatrix type="matrix" values="0 0 0 0 0 0 0 0 0 0 0 0 0 0 0 0 0 0 0.15 0"/>
<feBlend mode="normal" in2="BackgroundImageFix" result="effect1_dropShadow_193_672"/>
<feBlend mode="normal" in="SourceGraphic" in2="effect1_dropShadow_193_672" result="shape"/>
</filter>
</defs>
</svg>
