<svg width="138" height="48" viewBox="0 0 138 48" fill="none" xmlns="http://www.w3.org/2000/svg">
<g filter="url(#filter0_d_139_1430)">
<rect x="4.5" y="2.5" width="129" height="39" rx="5.5" fill="#FDFDFD" stroke="#50A021"/>
<path d="M62.1661 23.438C62.1661 23.998 62.0214 24.4693 61.7321 24.852C61.4427 25.2253 61.0507 25.51 60.5561 25.706C60.0707 25.902 59.5387 26 58.9601 26H54.1581V16.06H59.4781C59.9447 16.06 60.3461 16.186 60.6821 16.438C61.0274 16.6807 61.2887 16.998 61.4661 17.39C61.6527 17.7727 61.7461 18.174 61.7461 18.594C61.7461 19.07 61.6247 19.5227 61.3821 19.952C61.1394 20.3813 60.7847 20.6987 60.3181 20.904C60.8874 21.072 61.3354 21.3753 61.6621 21.814C61.9981 22.2527 62.1661 22.794 62.1661 23.438ZM60.2201 23.074C60.2201 22.822 60.1687 22.598 60.0661 22.402C59.9634 22.1967 59.8234 22.038 59.6461 21.926C59.4781 21.8047 59.2821 21.744 59.0581 21.744H56.0901V24.362H58.9601C59.1934 24.362 59.4034 24.306 59.5901 24.194C59.7861 24.0727 59.9401 23.914 60.0521 23.718C60.1641 23.522 60.2201 23.3073 60.2201 23.074ZM56.0901 17.712V20.218H58.6661C58.8807 20.218 59.0767 20.1667 59.2541 20.064C59.4314 19.9613 59.5714 19.8167 59.6741 19.63C59.7861 19.4433 59.8421 19.2193 59.8421 18.958C59.8421 18.706 59.7907 18.4867 59.6881 18.3C59.5947 18.1133 59.4641 17.9687 59.2961 17.866C59.1374 17.7633 58.9554 17.712 58.7501 17.712H56.0901ZM66.8797 26.14C66.2824 26.14 65.7457 26.042 65.2697 25.846C64.7937 25.6407 64.3877 25.3607 64.0517 25.006C63.725 24.6513 63.473 24.2453 63.2957 23.788C63.1184 23.3307 63.0297 22.85 63.0297 22.346C63.0297 21.8327 63.1184 21.3473 63.2957 20.89C63.473 20.4327 63.725 20.0267 64.0517 19.672C64.3877 19.3173 64.7937 19.042 65.2697 18.846C65.7457 18.6407 66.2824 18.538 66.8797 18.538C67.477 18.538 68.009 18.6407 68.4757 18.846C68.9517 19.042 69.3577 19.3173 69.6937 19.672C70.0297 20.0267 70.2817 20.4327 70.4497 20.89C70.627 21.3473 70.7157 21.8327 70.7157 22.346C70.7157 22.85 70.627 23.3307 70.4497 23.788C70.2817 24.2453 70.0297 24.6513 69.6937 25.006C69.367 25.3607 68.9657 25.6407 68.4897 25.846C68.0137 26.042 67.477 26.14 66.8797 26.14ZM64.9617 22.346C64.9617 22.7753 65.0457 23.158 65.2137 23.494C65.3817 23.8207 65.6104 24.0773 65.8997 24.264C66.189 24.4507 66.5157 24.544 66.8797 24.544C67.2344 24.544 67.5564 24.4507 67.8457 24.264C68.135 24.068 68.3637 23.8067 68.5317 23.48C68.709 23.144 68.7977 22.7613 68.7977 22.332C68.7977 21.912 68.709 21.534 68.5317 21.198C68.3637 20.862 68.135 20.6007 67.8457 20.414C67.5564 20.2273 67.2344 20.134 66.8797 20.134C66.5157 20.134 66.189 20.232 65.8997 20.428C65.6104 20.6147 65.3817 20.876 65.2137 21.212C65.0457 21.5387 64.9617 21.9167 64.9617 22.346ZM64.7517 17.53V15.864H66.3057V17.53H64.7517ZM67.4397 17.53V15.864H68.9937V17.53H67.4397ZM76.3499 20.288C75.7806 20.288 75.2719 20.4 74.8239 20.624C74.3759 20.8387 74.0539 21.1513 73.8579 21.562V26H71.9819V18.664H73.7039V20.232C73.9653 19.728 74.2966 19.3313 74.6979 19.042C75.0993 18.7527 75.5239 18.594 75.9719 18.566C76.0746 18.566 76.1539 18.566 76.2099 18.566C76.2659 18.566 76.3126 18.5707 76.3499 18.58V20.288ZM76.906 24.852L80.952 19.98H77.074V18.664H82.968V19.812L78.95 24.684H83.038V26H76.906V24.852ZM87.0023 26.14C86.377 26.14 85.7796 26.0373 85.2103 25.832C84.641 25.6267 84.151 25.3233 83.7403 24.922L84.4123 23.704C84.851 24.0587 85.2803 24.32 85.7003 24.488C86.1296 24.656 86.5403 24.74 86.9323 24.74C87.2963 24.74 87.5856 24.6747 87.8003 24.544C88.0243 24.4133 88.1363 24.2173 88.1363 23.956C88.1363 23.7787 88.0756 23.6433 87.9543 23.55C87.833 23.4473 87.6556 23.3587 87.4223 23.284C87.1983 23.2093 86.923 23.1253 86.5963 23.032C86.055 22.8547 85.6023 22.682 85.2383 22.514C84.8743 22.346 84.599 22.136 84.4123 21.884C84.235 21.6227 84.1463 21.2913 84.1463 20.89C84.1463 20.4047 84.2676 19.9893 84.5103 19.644C84.7623 19.2893 85.1076 19.014 85.5463 18.818C85.9943 18.622 86.517 18.524 87.1143 18.524C87.637 18.524 88.1316 18.608 88.5983 18.776C89.065 18.9347 89.4896 19.196 89.8723 19.56L89.1163 20.75C88.743 20.4607 88.3883 20.2507 88.0523 20.12C87.7163 19.98 87.3756 19.91 87.0303 19.91C86.8343 19.91 86.6476 19.9333 86.4703 19.98C86.3023 20.0267 86.1623 20.106 86.0503 20.218C85.9476 20.3207 85.8963 20.47 85.8963 20.666C85.8963 20.8433 85.943 20.9833 86.0363 21.086C86.139 21.1793 86.2883 21.2633 86.4843 21.338C86.6896 21.4127 86.937 21.4967 87.2263 21.59C87.8143 21.758 88.309 21.9307 88.7103 22.108C89.121 22.2853 89.429 22.5047 89.6343 22.766C89.8396 23.018 89.9423 23.368 89.9423 23.816C89.9423 24.544 89.6763 25.1133 89.1443 25.524C88.6123 25.9347 87.8983 26.14 87.0023 26.14ZM94.6063 26.14C94.0089 26.14 93.4723 26.042 92.9963 25.846C92.5203 25.6407 92.1143 25.3607 91.7783 25.006C91.4516 24.6513 91.1996 24.2453 91.0223 23.788C90.8449 23.3307 90.7563 22.85 90.7563 22.346C90.7563 21.8327 90.8449 21.3473 91.0223 20.89C91.1996 20.4327 91.4516 20.0267 91.7783 19.672C92.1143 19.3173 92.5203 19.042 92.9963 18.846C93.4723 18.6407 94.0089 18.538 94.6063 18.538C95.2036 18.538 95.7356 18.6407 96.2023 18.846C96.6783 19.042 97.0843 19.3173 97.4203 19.672C97.7563 20.0267 98.0083 20.4327 98.1763 20.89C98.3536 21.3473 98.4423 21.8327 98.4423 22.346C98.4423 22.85 98.3536 23.3307 98.1763 23.788C98.0083 24.2453 97.7563 24.6513 97.4203 25.006C97.0936 25.3607 96.6923 25.6407 96.2163 25.846C95.7403 26.042 95.2036 26.14 94.6063 26.14ZM92.6883 22.346C92.6883 22.7753 92.7723 23.158 92.9403 23.494C93.1083 23.8207 93.3369 24.0773 93.6263 24.264C93.9156 24.4507 94.2423 24.544 94.6063 24.544C94.9609 24.544 95.2829 24.4507 95.5723 24.264C95.8616 24.068 96.0903 23.8067 96.2583 23.48C96.4356 23.144 96.5243 22.7613 96.5243 22.332C96.5243 21.912 96.4356 21.534 96.2583 21.198C96.0903 20.862 95.8616 20.6007 95.5723 20.414C95.2829 20.2273 94.9609 20.134 94.6063 20.134C94.2423 20.134 93.9156 20.232 93.6263 20.428C93.3369 20.6147 93.1083 20.876 92.9403 21.212C92.7723 21.5387 92.6883 21.9167 92.6883 22.346ZM92.4783 17.53V15.864H94.0323V17.53H92.4783ZM95.1663 17.53V15.864H96.7203V17.53H95.1663ZM106.526 26H104.65V21.884C104.65 21.296 104.548 20.8667 104.342 20.596C104.137 20.3253 103.852 20.19 103.488 20.19C103.236 20.19 102.98 20.2553 102.718 20.386C102.466 20.5167 102.238 20.6987 102.032 20.932C101.827 21.156 101.678 21.4173 101.584 21.716V26H99.7085V18.664H101.402V20.022C101.589 19.7047 101.827 19.4387 102.116 19.224C102.406 19 102.737 18.832 103.11 18.72C103.493 18.5987 103.894 18.538 104.314 18.538C104.772 18.538 105.145 18.622 105.434 18.79C105.733 18.9487 105.957 19.168 106.106 19.448C106.265 19.7187 106.372 20.0267 106.428 20.372C106.494 20.7173 106.526 21.0673 106.526 21.422V26ZM108.189 27.428C108.357 27.4653 108.511 27.498 108.651 27.526C108.8 27.554 108.926 27.568 109.029 27.568C109.206 27.568 109.351 27.5213 109.463 27.428C109.584 27.344 109.701 27.1853 109.813 26.952C109.925 26.728 110.041 26.4107 110.163 26L107.265 18.664H109.211L111.185 24.082L112.921 18.664H114.713L111.633 27.456C111.521 27.7827 111.348 28.0767 111.115 28.338C110.891 28.6087 110.606 28.8187 110.261 28.968C109.925 29.1267 109.547 29.206 109.127 29.206C108.977 29.206 108.828 29.192 108.679 29.164C108.529 29.1453 108.366 29.108 108.189 29.052V27.428Z" fill="#50A021"/>
<circle cx="37.201" cy="21.201" r="12.451" fill="white" stroke="#50A021" stroke-width="1.5"/>
<path d="M24.8608 23.7828C25.4061 24.5017 27.2198 20.1111 28.735 19.7661C30.6291 19.3348 33.5563 22.4027 34.8477 20.2462C36.1391 18.0897 37.3444 12.0515 38.808 13.3454C40.2716 14.6393 39.4106 17.8309 40.2716 20.2462C41.1325 22.6615 43.6866 18.9523 45.6668 20.2462C47.2509 21.2813 47.3886 25.9393 48.967 25.508" stroke="#50A021" stroke-width="1.5"/>
</g>
<defs>
<filter id="filter0_d_139_1430" x="0" y="0" width="138" height="48" filterUnits="userSpaceOnUse" color-interpolation-filters="sRGB">
<feFlood flood-opacity="0" result="BackgroundImageFix"/>
<feColorMatrix in="SourceAlpha" type="matrix" values="0 0 0 0 0 0 0 0 0 0 0 0 0 0 0 0 0 0 127 0" result="hardAlpha"/>
<feOffset dy="2"/>
<feGaussianBlur stdDeviation="2"/>
<feComposite in2="hardAlpha" operator="out"/>
<feColorMatrix type="matrix" values="0 0 0 0 0 0 0 0 0 0 0 0 0 0 0 0 0 0 0.15 0"/>
<feBlend mode="normal" in2="BackgroundImageFix" result="effect1_dropShadow_139_1430"/>
<feBlend mode="normal" in="SourceGraphic" in2="effect1_dropShadow_139_1430" result="shape"/>
</filter>
</defs>
</svg>
