<svg width="138" height="48" viewBox="0 0 138 48" fill="none" xmlns="http://www.w3.org/2000/svg">
<g filter="url(#filter0_d_139_1451)">
<rect x="4" y="2" width="130" height="40" rx="6" fill="#50A021"/>
<path d="M64.044 16.438C64.044 16.998 63.8993 17.4693 63.61 17.852C63.3207 18.2253 62.9287 18.51 62.434 18.706C61.9487 18.902 61.4167 19 60.838 19H56.036V9.06H61.356C61.8227 9.06 62.224 9.186 62.56 9.438C62.9053 9.68067 63.1667 9.998 63.344 10.39C63.5307 10.7727 63.624 11.174 63.624 11.594C63.624 12.07 63.5027 12.5227 63.26 12.952C63.0173 13.3813 62.6627 13.6987 62.196 13.904C62.7653 14.072 63.2133 14.3753 63.54 14.814C63.876 15.2527 64.044 15.794 64.044 16.438ZM62.098 16.074C62.098 15.822 62.0467 15.598 61.944 15.402C61.8413 15.1967 61.7013 15.038 61.524 14.926C61.356 14.8047 61.16 14.744 60.936 14.744H57.968V17.362H60.838C61.0713 17.362 61.2813 17.306 61.468 17.194C61.664 17.0727 61.818 16.914 61.93 16.718C62.042 16.522 62.098 16.3073 62.098 16.074ZM57.968 10.712V13.218H60.544C60.7587 13.218 60.9547 13.1667 61.132 13.064C61.3093 12.9613 61.4493 12.8167 61.552 12.63C61.664 12.4433 61.72 12.2193 61.72 11.958C61.72 11.706 61.6687 11.4867 61.566 11.3C61.4727 11.1133 61.342 10.9687 61.174 10.866C61.0153 10.7633 60.8333 10.712 60.628 10.712H57.968ZM65.2723 16.256V11.664H67.1483V15.85C67.1483 16.41 67.2509 16.8347 67.4563 17.124C67.6616 17.404 67.9649 17.544 68.3663 17.544C68.6089 17.544 68.8469 17.4973 69.0803 17.404C69.3229 17.3013 69.5423 17.152 69.7383 16.956C69.9436 16.76 70.1163 16.5127 70.2563 16.214V11.664H72.1323V16.9C72.1323 17.096 72.1649 17.236 72.2303 17.32C72.3049 17.404 72.4216 17.4553 72.5803 17.474V19C72.3936 19.028 72.2349 19.0467 72.1043 19.056C71.9829 19.0747 71.8709 19.084 71.7683 19.084C71.4323 19.084 71.1569 19.0093 70.9423 18.86C70.7369 18.7013 70.6156 18.4867 70.5783 18.216L70.5363 17.628C70.2096 18.1227 69.7896 18.5007 69.2763 18.762C68.7629 19.014 68.1983 19.14 67.5823 19.14C66.8263 19.14 66.2523 18.8973 65.8603 18.412C65.4683 17.9173 65.2723 17.1987 65.2723 16.256ZM73.5486 15.332C73.5486 14.6227 73.6886 13.9833 73.9686 13.414C74.2486 12.8353 74.6359 12.378 75.1306 12.042C75.6252 11.706 76.1899 11.538 76.8246 11.538C77.3659 11.538 77.8512 11.6733 78.2806 11.944C78.7192 12.2053 79.0599 12.5413 79.3026 12.952V8.78H81.1786V16.9C81.1786 17.096 81.2112 17.236 81.2766 17.32C81.3419 17.404 81.4539 17.4553 81.6126 17.474V19C81.2859 19.0653 81.0199 19.098 80.8146 19.098C80.4786 19.098 80.1986 19.014 79.9746 18.846C79.7599 18.678 79.6386 18.4587 79.6106 18.188L79.5826 17.726C79.3119 18.1833 78.9432 18.5333 78.4766 18.776C78.0192 19.0187 77.5386 19.14 77.0346 19.14C76.5306 19.14 76.0639 19.042 75.6346 18.846C75.2146 18.65 74.8459 18.3793 74.5286 18.034C74.2206 17.6887 73.9779 17.2873 73.8006 16.83C73.6326 16.3633 73.5486 15.864 73.5486 15.332ZM79.3026 16.312V14.562C79.2092 14.2913 79.0599 14.0487 78.8546 13.834C78.6492 13.6193 78.4206 13.4513 78.1686 13.33C77.9166 13.1993 77.6646 13.134 77.4126 13.134C77.1232 13.134 76.8619 13.1947 76.6286 13.316C76.3952 13.4373 76.1899 13.6007 76.0126 13.806C75.8446 14.0113 75.7139 14.2493 75.6206 14.52C75.5366 14.7907 75.4946 15.0753 75.4946 15.374C75.4946 15.6727 75.5412 15.9573 75.6346 16.228C75.7372 16.4893 75.8819 16.718 76.0686 16.914C76.2552 17.11 76.4699 17.264 76.7126 17.376C76.9646 17.488 77.2352 17.544 77.5246 17.544C77.7019 17.544 77.8792 17.516 78.0566 17.46C78.2432 17.3947 78.4159 17.3107 78.5746 17.208C78.7426 17.096 78.8872 16.9653 79.0086 16.816C79.1392 16.6573 79.2372 16.4893 79.3026 16.312ZM82.516 16.83C82.516 16.354 82.6467 15.9387 82.908 15.584C83.1787 15.22 83.552 14.94 84.028 14.744C84.504 14.548 85.05 14.45 85.666 14.45C85.974 14.45 86.2867 14.4733 86.604 14.52C86.9213 14.5667 87.1967 14.6413 87.43 14.744V14.352C87.43 13.8853 87.29 13.526 87.01 13.274C86.7393 13.022 86.3333 12.896 85.792 12.896C85.3907 12.896 85.008 12.966 84.644 13.106C84.28 13.246 83.8973 13.4513 83.496 13.722L82.894 12.49C83.3793 12.1727 83.874 11.9347 84.378 11.776C84.8913 11.6173 85.428 11.538 85.988 11.538C87.0333 11.538 87.8453 11.7993 88.424 12.322C89.012 12.8447 89.306 13.5913 89.306 14.562V16.9C89.306 17.096 89.3387 17.236 89.404 17.32C89.4787 17.404 89.5953 17.4553 89.754 17.474V19C89.586 19.028 89.432 19.0513 89.292 19.07C89.1613 19.0887 89.0493 19.098 88.956 19.098C88.5827 19.098 88.298 19.014 88.102 18.846C87.9153 18.678 87.7987 18.4727 87.752 18.23L87.71 17.852C87.3927 18.2627 86.996 18.58 86.52 18.804C86.044 19.028 85.5587 19.14 85.064 19.14C84.5787 19.14 84.14 19.042 83.748 18.846C83.3653 18.6407 83.062 18.3653 82.838 18.02C82.6233 17.6653 82.516 17.2687 82.516 16.83ZM87.08 17.208C87.1827 17.096 87.2667 16.984 87.332 16.872C87.3973 16.76 87.43 16.6573 87.43 16.564V15.822C87.206 15.7287 86.9633 15.6587 86.702 15.612C86.4407 15.556 86.1933 15.528 85.96 15.528C85.4747 15.528 85.0733 15.6353 84.756 15.85C84.448 16.0553 84.294 16.3307 84.294 16.676C84.294 16.8627 84.3453 17.04 84.448 17.208C84.5507 17.376 84.7 17.5113 84.896 17.614C85.092 17.7167 85.3253 17.768 85.596 17.768C85.876 17.768 86.1513 17.7167 86.422 17.614C86.6927 17.502 86.912 17.3667 87.08 17.208ZM91.0591 19V11.664H92.9351V19H91.0591ZM91.0591 10.642V8.78H92.9351V10.642H91.0591ZM94.5854 16.004V14.31H98.8274V16.004H94.5854ZM62.672 33H60.796V28.884C60.796 28.3147 60.684 27.89 60.46 27.61C60.2453 27.33 59.9467 27.19 59.564 27.19C59.34 27.19 59.102 27.2553 58.85 27.386C58.598 27.5167 58.3693 27.6987 58.164 27.932C57.968 28.156 57.8233 28.4173 57.73 28.716V33H55.854V22.78H57.73V27.022C58.0007 26.5553 58.3693 26.1913 58.836 25.93C59.3027 25.6687 59.8113 25.538 60.362 25.538C60.838 25.538 61.2253 25.622 61.524 25.79C61.8227 25.9487 62.056 26.168 62.224 26.448C62.392 26.7187 62.5087 27.0267 62.574 27.372C62.6393 27.708 62.672 28.058 62.672 28.422V33ZM67.7052 33.14C67.1172 33.14 66.5852 33.042 66.1092 32.846C65.6332 32.6407 65.2272 32.3653 64.8912 32.02C64.5552 31.6653 64.2939 31.264 64.1072 30.816C63.9299 30.3587 63.8412 29.878 63.8412 29.374C63.8412 28.674 63.9952 28.0347 64.3032 27.456C64.6206 26.8773 65.0686 26.4153 65.6472 26.07C66.2352 25.7153 66.9259 25.538 67.7192 25.538C68.5219 25.538 69.2079 25.7153 69.7772 26.07C70.3466 26.4153 70.7806 26.8773 71.0792 27.456C71.3872 28.0253 71.5412 28.6413 71.5412 29.304C71.5412 29.416 71.5366 29.5327 71.5272 29.654C71.5179 29.766 71.5086 29.8593 71.4992 29.934H65.8292C65.8666 30.3073 65.9739 30.634 66.1512 30.914C66.3379 31.194 66.5712 31.4087 66.8512 31.558C67.1406 31.698 67.4486 31.768 67.7752 31.768C68.1486 31.768 68.4986 31.6793 68.8252 31.502C69.1612 31.3153 69.3899 31.0727 69.5112 30.774L71.1212 31.222C70.9439 31.5953 70.6872 31.9267 70.3512 32.216C70.0246 32.5053 69.6372 32.734 69.1892 32.902C68.7412 33.0607 68.2466 33.14 67.7052 33.14ZM65.7872 28.744H69.6232C69.5859 28.3707 69.4786 28.0487 69.3012 27.778C69.1332 27.498 68.9092 27.2833 68.6292 27.134C68.3492 26.9753 68.0366 26.896 67.6912 26.896C67.3552 26.896 67.0472 26.9753 66.7672 27.134C66.4966 27.2833 66.2726 27.498 66.0952 27.778C65.9272 28.0487 65.8246 28.3707 65.7872 28.744ZM75.5541 33.042C75.0687 33.042 74.6207 32.9487 74.2101 32.762C73.8087 32.566 73.4587 32.2953 73.1601 31.95C72.8707 31.6047 72.6467 31.208 72.4881 30.76C72.3294 30.312 72.2501 29.836 72.2501 29.332C72.2501 28.8 72.3341 28.3053 72.5021 27.848C72.6701 27.3907 72.9034 26.9893 73.2021 26.644C73.5101 26.2893 73.8694 26.0187 74.2801 25.832C74.7001 25.636 75.1621 25.538 75.6661 25.538C76.2354 25.538 76.7347 25.6687 77.1641 25.93C77.5934 26.182 77.9481 26.5227 78.2281 26.952V25.664H79.8661V32.65C79.8661 33.378 79.6887 33.9987 79.3341 34.512C78.9887 35.0347 78.5081 35.4313 77.8921 35.702C77.2761 35.982 76.5761 36.122 75.7921 36.122C74.9987 36.122 74.3267 35.9867 73.7761 35.716C73.2254 35.4547 72.7541 35.0813 72.3621 34.596L73.3841 33.602C73.6641 33.9473 74.0141 34.218 74.4341 34.414C74.8634 34.61 75.3161 34.708 75.7921 34.708C76.1934 34.708 76.5574 34.6333 76.8841 34.484C77.2201 34.344 77.4861 34.12 77.6821 33.812C77.8874 33.5133 77.9901 33.126 77.9901 32.65V31.726C77.7474 32.146 77.4021 32.4727 76.9541 32.706C76.5154 32.93 76.0487 33.042 75.5541 33.042ZM76.1841 31.544C76.3894 31.544 76.5854 31.5113 76.7721 31.446C76.9587 31.3807 77.1314 31.292 77.2901 31.18C77.4487 31.068 77.5887 30.9373 77.7101 30.788C77.8314 30.6293 77.9247 30.4707 77.9901 30.312V28.562C77.8781 28.2727 77.7194 28.0207 77.5141 27.806C77.3181 27.5913 77.0941 27.428 76.8421 27.316C76.5994 27.1947 76.3427 27.134 76.0721 27.134C75.7827 27.134 75.5214 27.1947 75.2881 27.316C75.0547 27.4373 74.8541 27.61 74.6861 27.834C74.5181 28.0487 74.3874 28.2913 74.2941 28.562C74.2101 28.8233 74.1681 29.0987 74.1681 29.388C74.1681 29.6867 74.2194 29.9667 74.3221 30.228C74.4247 30.4893 74.5647 30.718 74.7421 30.914C74.9287 31.11 75.1434 31.264 75.3861 31.376C75.6381 31.488 75.9041 31.544 76.1841 31.544ZM81.7111 34.428C81.8791 34.4653 82.0331 34.498 82.1731 34.526C82.3225 34.554 82.4485 34.568 82.5511 34.568C82.7285 34.568 82.8731 34.5213 82.9851 34.428C83.1065 34.344 83.2231 34.1853 83.3351 33.952C83.4471 33.728 83.5638 33.4107 83.6851 33L80.7871 25.664H82.7331L84.7071 31.082L86.4431 25.664H88.2351L85.1551 34.456C85.0431 34.7827 84.8705 35.0767 84.6371 35.338C84.4131 35.6087 84.1285 35.8187 83.7831 35.968C83.4471 36.1267 83.0691 36.206 82.6491 36.206C82.4998 36.206 82.3505 36.192 82.2011 36.164C82.0518 36.1453 81.8885 36.108 81.7111 36.052V34.428ZM91.7787 33.14C91.1533 33.14 90.556 33.0373 89.9867 32.832C89.4173 32.6267 88.9273 32.3233 88.5167 31.922L89.1887 30.704C89.6273 31.0587 90.0567 31.32 90.4767 31.488C90.906 31.656 91.3167 31.74 91.7087 31.74C92.0727 31.74 92.362 31.6747 92.5767 31.544C92.8007 31.4133 92.9127 31.2173 92.9127 30.956C92.9127 30.7787 92.852 30.6433 92.7307 30.55C92.6093 30.4473 92.432 30.3587 92.1987 30.284C91.9747 30.2093 91.6993 30.1253 91.3727 30.032C90.8313 29.8547 90.3787 29.682 90.0147 29.514C89.6507 29.346 89.3753 29.136 89.1887 28.884C89.0113 28.6227 88.9227 28.2913 88.9227 27.89C88.9227 27.4047 89.044 26.9893 89.2867 26.644C89.5387 26.2893 89.884 26.014 90.3227 25.818C90.7707 25.622 91.2933 25.524 91.8907 25.524C92.4133 25.524 92.908 25.608 93.3747 25.776C93.8413 25.9347 94.266 26.196 94.6487 26.56L93.8927 27.75C93.5193 27.4607 93.1647 27.2507 92.8287 27.12C92.4927 26.98 92.152 26.91 91.8067 26.91C91.6107 26.91 91.424 26.9333 91.2467 26.98C91.0787 27.0267 90.9387 27.106 90.8267 27.218C90.724 27.3207 90.6727 27.47 90.6727 27.666C90.6727 27.8433 90.7193 27.9833 90.8127 28.086C90.9153 28.1793 91.0647 28.2633 91.2607 28.338C91.466 28.4127 91.7133 28.4967 92.0027 28.59C92.5907 28.758 93.0853 28.9307 93.4867 29.108C93.8973 29.2853 94.2053 29.5047 94.4107 29.766C94.616 30.018 94.7187 30.368 94.7187 30.816C94.7187 31.544 94.4527 32.1133 93.9207 32.524C93.3887 32.9347 92.6747 33.14 91.7787 33.14ZM99.3966 33.14C98.8086 33.14 98.2766 33.042 97.8006 32.846C97.3246 32.6407 96.9186 32.3653 96.5826 32.02C96.2466 31.6653 95.9853 31.264 95.7986 30.816C95.6213 30.3587 95.5326 29.878 95.5326 29.374C95.5326 28.674 95.6866 28.0347 95.9946 27.456C96.312 26.8773 96.76 26.4153 97.3386 26.07C97.9266 25.7153 98.6173 25.538 99.4106 25.538C100.213 25.538 100.899 25.7153 101.469 26.07C102.038 26.4153 102.472 26.8773 102.771 27.456C103.079 28.0253 103.233 28.6413 103.233 29.304C103.233 29.416 103.228 29.5327 103.219 29.654C103.209 29.766 103.2 29.8593 103.191 29.934H97.5206C97.558 30.3073 97.6653 30.634 97.8426 30.914C98.0293 31.194 98.2626 31.4087 98.5426 31.558C98.832 31.698 99.14 31.768 99.4666 31.768C99.84 31.768 100.19 31.6793 100.517 31.502C100.853 31.3153 101.081 31.0727 101.203 30.774L102.813 31.222C102.635 31.5953 102.379 31.9267 102.043 32.216C101.716 32.5053 101.329 32.734 100.881 32.902C100.433 33.0607 99.938 33.14 99.3966 33.14ZM97.4786 28.744H101.315C101.277 28.3707 101.17 28.0487 100.993 27.778C100.825 27.498 100.601 27.2833 100.321 27.134C100.041 26.9753 99.728 26.896 99.3826 26.896C99.0466 26.896 98.7386 26.9753 98.4586 27.134C98.188 27.2833 97.964 27.498 97.7866 27.778C97.6186 28.0487 97.516 28.3707 97.4786 28.744ZM99.9986 24.81L98.7946 24.446L99.5506 22.78H101.301L99.9986 24.81ZM107.245 33.042C106.76 33.042 106.312 32.9487 105.901 32.762C105.5 32.566 105.15 32.2953 104.851 31.95C104.562 31.6047 104.338 31.208 104.179 30.76C104.021 30.312 103.941 29.836 103.941 29.332C103.941 28.8 104.025 28.3053 104.193 27.848C104.361 27.3907 104.595 26.9893 104.893 26.644C105.201 26.2893 105.561 26.0187 105.971 25.832C106.391 25.636 106.853 25.538 107.357 25.538C107.927 25.538 108.426 25.6687 108.855 25.93C109.285 26.182 109.639 26.5227 109.919 26.952V25.664H111.557V32.65C111.557 33.378 111.38 33.9987 111.025 34.512C110.68 35.0347 110.199 35.4313 109.583 35.702C108.967 35.982 108.267 36.122 107.483 36.122C106.69 36.122 106.018 35.9867 105.467 35.716C104.917 35.4547 104.445 35.0813 104.053 34.596L105.075 33.602C105.355 33.9473 105.705 34.218 106.125 34.414C106.555 34.61 107.007 34.708 107.483 34.708C107.885 34.708 108.249 34.6333 108.575 34.484C108.911 34.344 109.177 34.12 109.373 33.812C109.579 33.5133 109.681 33.126 109.681 32.65V31.726C109.439 32.146 109.093 32.4727 108.645 32.706C108.207 32.93 107.74 33.042 107.245 33.042ZM107.875 31.544C108.081 31.544 108.277 31.5113 108.463 31.446C108.65 31.3807 108.823 31.292 108.981 31.18C109.14 31.068 109.28 30.9373 109.401 30.788C109.523 30.6293 109.616 30.4707 109.681 30.312V28.562C109.569 28.2727 109.411 28.0207 109.205 27.806C109.009 27.5913 108.785 27.428 108.533 27.316C108.291 27.1947 108.034 27.134 107.763 27.134C107.474 27.134 107.213 27.1947 106.979 27.316C106.746 27.4373 106.545 27.61 106.377 27.834C106.209 28.0487 106.079 28.2913 105.985 28.562C105.901 28.8233 105.859 29.0987 105.859 29.388C105.859 29.6867 105.911 29.9667 106.013 30.228C106.116 30.4893 106.256 30.718 106.433 30.914C106.62 31.11 106.835 31.264 107.077 31.376C107.329 31.488 107.595 31.544 107.875 31.544Z" fill="white"/>
<circle cx="38.201" cy="21.201" r="12.451" fill="#50A021" stroke="white" stroke-width="1.5"/>
<path d="M25.8608 23.7825C26.4061 24.5013 27.8754 25.8527 29.3907 25.5077C31.2847 25.0764 29.735 21.205 31.0264 19.0485C32.3178 16.892 35.7329 20.1941 37.1965 21.488C38.6601 22.7819 42.936 12.3287 43.797 14.744C44.6579 17.1592 44.3996 24.2138 46.3798 25.5077C47.9639 26.5428 48.3886 25.939 49.967 25.5077" stroke="white" stroke-width="1.5"/>
</g>
<defs>
<filter id="filter0_d_139_1451" x="0" y="0" width="138" height="48" filterUnits="userSpaceOnUse" color-interpolation-filters="sRGB">
<feFlood flood-opacity="0" result="BackgroundImageFix"/>
<feColorMatrix in="SourceAlpha" type="matrix" values="0 0 0 0 0 0 0 0 0 0 0 0 0 0 0 0 0 0 127 0" result="hardAlpha"/>
<feOffset dy="2"/>
<feGaussianBlur stdDeviation="2"/>
<feComposite in2="hardAlpha" operator="out"/>
<feColorMatrix type="matrix" values="0 0 0 0 0 0 0 0 0 0 0 0 0 0 0 0 0 0 0.15 0"/>
<feBlend mode="normal" in2="BackgroundImageFix" result="effect1_dropShadow_139_1451"/>
<feBlend mode="normal" in="SourceGraphic" in2="effect1_dropShadow_139_1451" result="shape"/>
</filter>
</defs>
</svg>
