<svg width="138" height="48" viewBox="0 0 138 48" fill="none" xmlns="http://www.w3.org/2000/svg">
<g filter="url(#filter0_d_139_1436)">
<rect x="4.5" y="2.5" width="129" height="39" rx="5.5" fill="white" stroke="#50A021"/>
<path d="M61.4531 26.07C60.8091 26.07 60.1978 25.9393 59.6191 25.678C59.0498 25.4167 58.5458 25.0573 58.1071 24.6C57.6778 24.1333 57.3418 23.592 57.0991 22.976C56.8564 22.36 56.7351 21.6927 56.7351 20.974C56.7351 20.2927 56.8564 19.6533 57.0991 19.056C57.3418 18.4493 57.6824 17.9173 58.1211 17.46C58.5598 17.0027 59.0731 16.6433 59.6611 16.382C60.2491 16.1207 60.8884 15.99 61.5791 15.99C62.5124 15.99 63.3104 16.1907 63.9731 16.592C64.6451 16.984 65.1491 17.5067 65.4851 18.16L64.0431 19.224C63.7911 18.7293 63.4364 18.3513 62.9791 18.09C62.5311 17.8287 62.0411 17.698 61.5091 17.698C61.0891 17.698 60.7064 17.7867 60.3611 17.964C60.0158 18.1413 59.7171 18.384 59.4651 18.692C59.2131 19 59.0171 19.3547 58.8771 19.756C58.7464 20.1573 58.6811 20.582 58.6811 21.03C58.6811 21.506 58.7511 21.9447 58.8911 22.346C59.0404 22.7473 59.2458 23.0973 59.5071 23.396C59.7778 23.6947 60.0904 23.9327 60.4451 24.11C60.7998 24.278 61.1918 24.362 61.6211 24.362C62.1251 24.362 62.6058 24.2313 63.0631 23.97C63.5298 23.7087 63.9638 23.326 64.3651 22.822V24.726C63.5344 25.622 62.5638 26.07 61.4531 26.07ZM64.2251 22.304H62.2231V20.89H65.8211V26H64.2251V22.304ZM70.6876 26.14C70.0996 26.14 69.5676 26.042 69.0916 25.846C68.6156 25.6407 68.2096 25.3653 67.8736 25.02C67.5376 24.6653 67.2763 24.264 67.0896 23.816C66.9123 23.3587 66.8236 22.878 66.8236 22.374C66.8236 21.674 66.9776 21.0347 67.2856 20.456C67.603 19.8773 68.051 19.4153 68.6296 19.07C69.2176 18.7153 69.9083 18.538 70.7016 18.538C71.5043 18.538 72.1903 18.7153 72.7596 19.07C73.329 19.4153 73.763 19.8773 74.0616 20.456C74.3696 21.0253 74.5236 21.6413 74.5236 22.304C74.5236 22.416 74.519 22.5327 74.5096 22.654C74.5003 22.766 74.491 22.8593 74.4816 22.934H68.8116C68.849 23.3073 68.9563 23.634 69.1336 23.914C69.3203 24.194 69.5536 24.4087 69.8336 24.558C70.123 24.698 70.431 24.768 70.7576 24.768C71.131 24.768 71.481 24.6793 71.8076 24.502C72.1436 24.3153 72.3723 24.0727 72.4936 23.774L74.1036 24.222C73.9263 24.5953 73.6696 24.9267 73.3336 25.216C73.007 25.5053 72.6196 25.734 72.1716 25.902C71.7236 26.0607 71.229 26.14 70.6876 26.14ZM68.7696 21.744H72.6056C72.5683 21.3707 72.461 21.0487 72.2836 20.778C72.1156 20.498 71.8916 20.2833 71.6116 20.134C71.3316 19.9753 71.019 19.896 70.6736 19.896C70.3376 19.896 70.0296 19.9753 69.7496 20.134C69.479 20.2833 69.255 20.498 69.0776 20.778C68.9096 21.0487 68.807 21.3707 68.7696 21.744ZM80.0345 20.288C79.4652 20.288 78.9565 20.4 78.5085 20.624C78.0605 20.8387 77.7385 21.1513 77.5425 21.562V26H75.6665V18.664H77.3885V20.232C77.6498 19.728 77.9812 19.3313 78.3825 19.042C78.7838 18.7527 79.2085 18.594 79.6565 18.566C79.7592 18.566 79.8385 18.566 79.8945 18.566C79.9505 18.566 79.9972 18.5707 80.0345 18.58V20.288ZM84.3869 26.14C83.7989 26.14 83.2669 26.042 82.7909 25.846C82.3149 25.6407 81.9089 25.3653 81.5729 25.02C81.2369 24.6653 80.9755 24.264 80.7889 23.816C80.6115 23.3587 80.5229 22.878 80.5229 22.374C80.5229 21.674 80.6769 21.0347 80.9849 20.456C81.3022 19.8773 81.7502 19.4153 82.3289 19.07C82.9169 18.7153 83.6075 18.538 84.4009 18.538C85.2035 18.538 85.8895 18.7153 86.4589 19.07C87.0282 19.4153 87.4622 19.8773 87.7609 20.456C88.0689 21.0253 88.2229 21.6413 88.2229 22.304C88.2229 22.416 88.2182 22.5327 88.2089 22.654C88.1995 22.766 88.1902 22.8593 88.1809 22.934H82.5109C82.5482 23.3073 82.6555 23.634 82.8329 23.914C83.0195 24.194 83.2529 24.4087 83.5329 24.558C83.8222 24.698 84.1302 24.768 84.4569 24.768C84.8302 24.768 85.1802 24.6793 85.5069 24.502C85.8429 24.3153 86.0715 24.0727 86.1929 23.774L87.8029 24.222C87.6255 24.5953 87.3689 24.9267 87.0329 25.216C86.7062 25.5053 86.3189 25.734 85.8709 25.902C85.4229 26.0607 84.9282 26.14 84.3869 26.14ZM82.4689 21.744H86.3049C86.2675 21.3707 86.1602 21.0487 85.9829 20.778C85.8149 20.498 85.5909 20.2833 85.3109 20.134C85.0309 19.9753 84.7182 19.896 84.3729 19.896C84.0369 19.896 83.7289 19.9753 83.4489 20.134C83.1782 20.2833 82.9542 20.498 82.7769 20.778C82.6089 21.0487 82.5062 21.3707 82.4689 21.744ZM92.7817 26.14C92.1844 26.14 91.6477 26.042 91.1717 25.846C90.6957 25.6407 90.2897 25.3607 89.9537 25.006C89.6177 24.642 89.3564 24.2313 89.1697 23.774C88.9924 23.3167 88.9037 22.836 88.9037 22.332C88.9037 21.6413 89.0577 21.0113 89.3657 20.442C89.6831 19.8633 90.1311 19.4013 90.7097 19.056C91.2884 18.7107 91.9744 18.538 92.7677 18.538C93.5611 18.538 94.2424 18.7107 94.8117 19.056C95.3811 19.4013 95.8057 19.854 96.0857 20.414L94.2517 20.974C94.0931 20.7033 93.8831 20.498 93.6217 20.358C93.3604 20.2087 93.0711 20.134 92.7537 20.134C92.3991 20.134 92.0724 20.2273 91.7737 20.414C91.4844 20.5913 91.2557 20.848 91.0877 21.184C90.9197 21.5107 90.8357 21.8933 90.8357 22.332C90.8357 22.7613 90.9197 23.144 91.0877 23.48C91.2651 23.8067 91.4984 24.068 91.7877 24.264C92.0771 24.4507 92.3991 24.544 92.7537 24.544C92.9777 24.544 93.1877 24.5067 93.3837 24.432C93.5891 24.3573 93.7711 24.2547 93.9297 24.124C94.0884 23.9933 94.2051 23.844 94.2797 23.676L96.1137 24.236C95.9457 24.6 95.6984 24.9267 95.3717 25.216C95.0544 25.5053 94.6764 25.734 94.2377 25.902C93.8084 26.0607 93.3231 26.14 92.7817 26.14ZM99.9701 26.14C99.3447 26.14 98.7474 26.0373 98.1781 25.832C97.6087 25.6267 97.1187 25.3233 96.7081 24.922L97.3801 23.704C97.8187 24.0587 98.2481 24.32 98.6681 24.488C99.0974 24.656 99.5081 24.74 99.9001 24.74C100.264 24.74 100.553 24.6747 100.768 24.544C100.992 24.4133 101.104 24.2173 101.104 23.956C101.104 23.7787 101.043 23.6433 100.922 23.55C100.801 23.4473 100.623 23.3587 100.39 23.284C100.166 23.2093 99.8907 23.1253 99.5641 23.032C99.0227 22.8547 98.5701 22.682 98.2061 22.514C97.8421 22.346 97.5667 22.136 97.3801 21.884C97.2027 21.6227 97.1141 21.2913 97.1141 20.89C97.1141 20.4047 97.2354 19.9893 97.4781 19.644C97.7301 19.2893 98.0754 19.014 98.5141 18.818C98.9621 18.622 99.4847 18.524 100.082 18.524C100.605 18.524 101.099 18.608 101.566 18.776C102.033 18.9347 102.457 19.196 102.84 19.56L102.084 20.75C101.711 20.4607 101.356 20.2507 101.02 20.12C100.684 19.98 100.343 19.91 99.9981 19.91C99.8021 19.91 99.6154 19.9333 99.4381 19.98C99.2701 20.0267 99.1301 20.106 99.0181 20.218C98.9154 20.3207 98.8641 20.47 98.8641 20.666C98.8641 20.8433 98.9107 20.9833 99.0041 21.086C99.1067 21.1793 99.2561 21.2633 99.4521 21.338C99.6574 21.4127 99.9047 21.4967 100.194 21.59C100.782 21.758 101.277 21.9307 101.678 22.108C102.089 22.2853 102.397 22.5047 102.602 22.766C102.807 23.018 102.91 23.368 102.91 23.816C102.91 24.544 102.644 25.1133 102.112 25.524C101.58 25.9347 100.866 26.14 99.9701 26.14ZM107.588 26.14C107 26.14 106.468 26.042 105.992 25.846C105.516 25.6407 105.11 25.3653 104.774 25.02C104.438 24.6653 104.177 24.264 103.99 23.816C103.813 23.3587 103.724 22.878 103.724 22.374C103.724 21.674 103.878 21.0347 104.186 20.456C104.503 19.8773 104.951 19.4153 105.53 19.07C106.118 18.7153 106.809 18.538 107.602 18.538C108.405 18.538 109.091 18.7153 109.66 19.07C110.229 19.4153 110.663 19.8773 110.962 20.456C111.27 21.0253 111.424 21.6413 111.424 22.304C111.424 22.416 111.419 22.5327 111.41 22.654C111.401 22.766 111.391 22.8593 111.382 22.934H105.712C105.749 23.3073 105.857 23.634 106.034 23.914C106.221 24.194 106.454 24.4087 106.734 24.558C107.023 24.698 107.331 24.768 107.658 24.768C108.031 24.768 108.381 24.6793 108.708 24.502C109.044 24.3153 109.273 24.0727 109.394 23.774L111.004 24.222C110.827 24.5953 110.57 24.9267 110.234 25.216C109.907 25.5053 109.52 25.734 109.072 25.902C108.624 26.0607 108.129 26.14 107.588 26.14ZM105.67 21.744H109.506C109.469 21.3707 109.361 21.0487 109.184 20.778C109.016 20.498 108.792 20.2833 108.512 20.134C108.232 19.9753 107.919 19.896 107.574 19.896C107.238 19.896 106.93 19.9753 106.65 20.134C106.379 20.2833 106.155 20.498 105.978 20.778C105.81 21.0487 105.707 21.3707 105.67 21.744Z" fill="#50A021"/>
<circle cx="40.201" cy="21.201" r="12.451" fill="white" stroke="#50A021" stroke-width="1.5"/>
<path d="M27.8608 23.7828C28.4061 24.5016 29.8754 25.853 31.3907 25.508C33.2847 25.0767 34.0309 22.4026 35.3223 20.2461C36.6137 18.0896 39.7417 15.6024 41.2053 16.8963C42.6689 18.1902 42.4106 17.8308 43.2716 20.2461C44.1325 22.6614 46.3996 21.0549 48.3798 22.3488C49.9639 23.3839 50.3886 25.9392 51.967 25.508" stroke="#50A021" stroke-width="1.5"/>
</g>
<defs>
<filter id="filter0_d_139_1436" x="0" y="0" width="138" height="48" filterUnits="userSpaceOnUse" color-interpolation-filters="sRGB">
<feFlood flood-opacity="0" result="BackgroundImageFix"/>
<feColorMatrix in="SourceAlpha" type="matrix" values="0 0 0 0 0 0 0 0 0 0 0 0 0 0 0 0 0 0 127 0" result="hardAlpha"/>
<feOffset dy="2"/>
<feGaussianBlur stdDeviation="2"/>
<feComposite in2="hardAlpha" operator="out"/>
<feColorMatrix type="matrix" values="0 0 0 0 0 0 0 0 0 0 0 0 0 0 0 0 0 0 0.15 0"/>
<feBlend mode="normal" in2="BackgroundImageFix" result="effect1_dropShadow_139_1436"/>
<feBlend mode="normal" in="SourceGraphic" in2="effect1_dropShadow_139_1436" result="shape"/>
</filter>
</defs>
</svg>
