<svg width="138" height="48" viewBox="0 0 138 48" fill="none" xmlns="http://www.w3.org/2000/svg">
<g filter="url(#filter0_d_139_1444)">
<rect x="4" y="2" width="130" height="40" rx="6" fill="#50A021"/>
<path d="M74.2484 26V19.476L71.7004 24.334H70.6224L68.0744 19.476V26H66.1424V16.06H68.2144L71.1544 21.716L74.1224 16.06H76.1804V26H74.2484ZM77.4877 23.83C77.4877 23.354 77.6184 22.9387 77.8797 22.584C78.1504 22.22 78.5237 21.94 78.9997 21.744C79.4757 21.548 80.0217 21.45 80.6377 21.45C80.9457 21.45 81.2584 21.4733 81.5757 21.52C81.893 21.5667 82.1684 21.6413 82.4017 21.744V21.352C82.4017 20.8853 82.2617 20.526 81.9817 20.274C81.711 20.022 81.305 19.896 80.7637 19.896C80.3624 19.896 79.9797 19.966 79.6157 20.106C79.2517 20.246 78.869 20.4513 78.4677 20.722L77.8657 19.49C78.351 19.1727 78.8457 18.9347 79.3497 18.776C79.863 18.6173 80.3997 18.538 80.9597 18.538C82.005 18.538 82.817 18.7993 83.3957 19.322C83.9837 19.8447 84.2777 20.5913 84.2777 21.562V23.9C84.2777 24.096 84.3104 24.236 84.3757 24.32C84.4504 24.404 84.567 24.4553 84.7257 24.474V26C84.5577 26.028 84.4037 26.0513 84.2637 26.07C84.133 26.0887 84.021 26.098 83.9277 26.098C83.5544 26.098 83.2697 26.014 83.0737 25.846C82.887 25.678 82.7704 25.4727 82.7237 25.23L82.6817 24.852C82.3644 25.2627 81.9677 25.58 81.4917 25.804C81.0157 26.028 80.5304 26.14 80.0357 26.14C79.5504 26.14 79.1117 26.042 78.7197 25.846C78.337 25.6407 78.0337 25.3653 77.8097 25.02C77.595 24.6653 77.4877 24.2687 77.4877 23.83ZM82.0517 24.208C82.1544 24.096 82.2384 23.984 82.3037 23.872C82.369 23.76 82.4017 23.6573 82.4017 23.564V22.822C82.1777 22.7287 81.935 22.6587 81.6737 22.612C81.4124 22.556 81.165 22.528 80.9317 22.528C80.4464 22.528 80.045 22.6353 79.7277 22.85C79.4197 23.0553 79.2657 23.3307 79.2657 23.676C79.2657 23.8627 79.317 24.04 79.4197 24.208C79.5224 24.376 79.6717 24.5113 79.8677 24.614C80.0637 24.7167 80.297 24.768 80.5677 24.768C80.8477 24.768 81.123 24.7167 81.3937 24.614C81.6644 24.502 81.8837 24.3667 82.0517 24.208ZM81.5757 17.81L80.3717 17.446L81.1277 15.78H82.8777L81.5757 17.81ZM90.3584 25.622C90.1997 25.6873 90.0084 25.762 89.7844 25.846C89.5604 25.93 89.3177 25.9953 89.0564 26.042C88.8044 26.098 88.5477 26.126 88.2864 26.126C87.9411 26.126 87.6237 26.0653 87.3344 25.944C87.0451 25.8227 86.8117 25.6313 86.6344 25.37C86.4664 25.0993 86.3824 24.7493 86.3824 24.32V20.106H85.4164V18.664H86.3824V16.284H88.2584V18.664H89.7984V20.106H88.2584V23.69C88.2677 23.942 88.3377 24.124 88.4684 24.236C88.5991 24.348 88.7624 24.404 88.9584 24.404C89.1544 24.404 89.3457 24.3713 89.5324 24.306C89.7191 24.2407 89.8684 24.1847 89.9804 24.138L90.3584 25.622ZM95.7034 20.288C95.1341 20.288 94.6254 20.4 94.1774 20.624C93.7294 20.8387 93.4074 21.1513 93.2114 21.562V26H91.3354V18.664H93.0574V20.232C93.3188 19.728 93.6501 19.3313 94.0514 19.042C94.4528 18.7527 94.8774 18.594 95.3254 18.566C95.4281 18.566 95.5074 18.566 95.5634 18.566C95.6194 18.566 95.6661 18.5707 95.7034 18.58V20.288ZM96.2045 23.83C96.2045 23.354 96.3352 22.9387 96.5965 22.584C96.8672 22.22 97.2405 21.94 97.7165 21.744C98.1925 21.548 98.7385 21.45 99.3545 21.45C99.6625 21.45 99.9752 21.4733 100.292 21.52C100.61 21.5667 100.885 21.6413 101.118 21.744V21.352C101.118 20.8853 100.978 20.526 100.698 20.274C100.428 20.022 100.022 19.896 99.4805 19.896C99.0792 19.896 98.6965 19.966 98.3325 20.106C97.9685 20.246 97.5858 20.4513 97.1845 20.722L96.5825 19.49C97.0678 19.1727 97.5625 18.9347 98.0665 18.776C98.5798 18.6173 99.1165 18.538 99.6765 18.538C100.722 18.538 101.534 18.7993 102.112 19.322C102.7 19.8447 102.994 20.5913 102.994 21.562V23.9C102.994 24.096 103.027 24.236 103.092 24.32C103.167 24.404 103.284 24.4553 103.442 24.474V26C103.274 26.028 103.12 26.0513 102.98 26.07C102.85 26.0887 102.738 26.098 102.644 26.098C102.271 26.098 101.986 26.014 101.79 25.846C101.604 25.678 101.487 25.4727 101.44 25.23L101.398 24.852C101.081 25.2627 100.684 25.58 100.208 25.804C99.7325 26.028 99.2472 26.14 98.7525 26.14C98.2672 26.14 97.8285 26.042 97.4365 25.846C97.0538 25.6407 96.7505 25.3653 96.5265 25.02C96.3118 24.6653 96.2045 24.2687 96.2045 23.83ZM100.768 24.208C100.871 24.096 100.955 23.984 101.02 23.872C101.086 23.76 101.118 23.6573 101.118 23.564V22.822C100.894 22.7287 100.652 22.6587 100.39 22.612C100.129 22.556 99.8818 22.528 99.6485 22.528C99.1632 22.528 98.7618 22.6353 98.4445 22.85C98.1365 23.0553 97.9825 23.3307 97.9825 23.676C97.9825 23.8627 98.0338 24.04 98.1365 24.208C98.2392 24.376 98.3885 24.5113 98.5845 24.614C98.7805 24.7167 99.0138 24.768 99.2845 24.768C99.5645 24.768 99.8398 24.7167 100.11 24.614C100.381 24.502 100.6 24.3667 100.768 24.208Z" fill="white"/>
<circle cx="48.201" cy="21.201" r="12.451" fill="#50A021" stroke="white" stroke-width="1.5"/>
<path d="M35.8608 23.7828C36.4061 24.5017 37.8754 25.8531 39.3907 25.508C41.2847 25.0767 44.5563 22.4027 45.8477 20.2462C47.1391 18.0897 48.3444 12.0515 49.808 13.3454C51.2716 14.6393 50.4106 17.8309 51.2716 20.2462C52.1325 22.6615 51.2716 24.2142 53.2517 25.508C54.8358 26.5431 58.3886 25.9393 59.967 25.508" stroke="white" stroke-width="1.5"/>
</g>
<defs>
<filter id="filter0_d_139_1444" x="0" y="0" width="138" height="48" filterUnits="userSpaceOnUse" color-interpolation-filters="sRGB">
<feFlood flood-opacity="0" result="BackgroundImageFix"/>
<feColorMatrix in="SourceAlpha" type="matrix" values="0 0 0 0 0 0 0 0 0 0 0 0 0 0 0 0 0 0 127 0" result="hardAlpha"/>
<feOffset dy="2"/>
<feGaussianBlur stdDeviation="2"/>
<feComposite in2="hardAlpha" operator="out"/>
<feColorMatrix type="matrix" values="0 0 0 0 0 0 0 0 0 0 0 0 0 0 0 0 0 0 0.15 0"/>
<feBlend mode="normal" in2="BackgroundImageFix" result="effect1_dropShadow_139_1444"/>
<feBlend mode="normal" in="SourceGraphic" in2="effect1_dropShadow_139_1444" result="shape"/>
</filter>
</defs>
</svg>
