<svg width="138" height="48" viewBox="0 0 138 48" fill="none" xmlns="http://www.w3.org/2000/svg">
<g filter="url(#filter0_d_111_40)">
<rect x="4.5" y="2.5" width="129" height="39" rx="5.5" fill="white" stroke="#50A021"/>
<path d="M32.8595 8.78L32.5515 10.488H33.1115V12.378H31.2215V10.46L31.7255 8.78H32.8595ZM35.4915 8.78L35.1835 10.488H35.7435V12.378H33.8535V10.46L34.3575 8.78H35.4915ZM39.4392 9.06H41.3992L45.0532 19H43.0652L42.1412 16.522H38.6692L37.7592 19H35.7712L39.4392 9.06ZM41.7912 15.164L40.4192 11.062L38.9912 15.164H41.7912ZM52.7794 19H50.9034V14.884C50.9034 14.296 50.8008 13.8667 50.5954 13.596C50.3901 13.3253 50.1054 13.19 49.7414 13.19C49.4894 13.19 49.2328 13.2553 48.9714 13.386C48.7194 13.5167 48.4908 13.6987 48.2854 13.932C48.0801 14.156 47.9308 14.4173 47.8374 14.716V19H45.9614V11.664H47.6554V13.022C47.8421 12.7047 48.0801 12.4387 48.3694 12.224C48.6588 12 48.9901 11.832 49.3634 11.72C49.7461 11.5987 50.1474 11.538 50.5674 11.538C51.0248 11.538 51.3981 11.622 51.6874 11.79C51.9861 11.9487 52.2101 12.168 52.3594 12.448C52.5181 12.7187 52.6254 13.0267 52.6814 13.372C52.7468 13.7173 52.7794 14.0673 52.7794 14.422V19ZM57.2806 19.042C56.7953 19.042 56.3473 18.9487 55.9366 18.762C55.5353 18.566 55.1853 18.2953 54.8866 17.95C54.5973 17.6047 54.3733 17.208 54.2146 16.76C54.056 16.312 53.9766 15.836 53.9766 15.332C53.9766 14.8 54.0606 14.3053 54.2286 13.848C54.3966 13.3907 54.63 12.9893 54.9286 12.644C55.2366 12.2893 55.596 12.0187 56.0066 11.832C56.4266 11.636 56.8886 11.538 57.3926 11.538C57.962 11.538 58.4613 11.6687 58.8906 11.93C59.32 12.182 59.6746 12.5227 59.9546 12.952V11.664H61.5926V18.65C61.5926 19.378 61.4153 19.9987 61.0606 20.512C60.7153 21.0347 60.2346 21.4313 59.6186 21.702C59.0026 21.982 58.3026 22.122 57.5186 22.122C56.7253 22.122 56.0533 21.9867 55.5026 21.716C54.952 21.4547 54.4806 21.0813 54.0886 20.596L55.1106 19.602C55.3906 19.9473 55.7406 20.218 56.1606 20.414C56.59 20.61 57.0426 20.708 57.5186 20.708C57.92 20.708 58.284 20.6333 58.6106 20.484C58.9466 20.344 59.2126 20.12 59.4086 19.812C59.614 19.5133 59.7166 19.126 59.7166 18.65V17.726C59.474 18.146 59.1286 18.4727 58.6806 18.706C58.242 18.93 57.7753 19.042 57.2806 19.042ZM57.9106 17.544C58.116 17.544 58.312 17.5113 58.4986 17.446C58.6853 17.3807 58.858 17.292 59.0166 17.18C59.1753 17.068 59.3153 16.9373 59.4366 16.788C59.558 16.6293 59.6513 16.4707 59.7166 16.312V14.562C59.6046 14.2727 59.446 14.0207 59.2406 13.806C59.0446 13.5913 58.8206 13.428 58.5686 13.316C58.326 13.1947 58.0693 13.134 57.7986 13.134C57.5093 13.134 57.248 13.1947 57.0146 13.316C56.7813 13.4373 56.5806 13.61 56.4126 13.834C56.2446 14.0487 56.114 14.2913 56.0206 14.562C55.9366 14.8233 55.8946 15.0987 55.8946 15.388C55.8946 15.6867 55.946 15.9667 56.0486 16.228C56.1513 16.4893 56.2913 16.718 56.4686 16.914C56.6553 17.11 56.87 17.264 57.1126 17.376C57.3646 17.488 57.6306 17.544 57.9106 17.544ZM63.4377 20.428C63.6057 20.4653 63.7597 20.498 63.8997 20.526C64.049 20.554 64.175 20.568 64.2777 20.568C64.455 20.568 64.5997 20.5213 64.7117 20.428C64.833 20.344 64.9497 20.1853 65.0617 19.952C65.1737 19.728 65.2904 19.4107 65.4117 19L62.5137 11.664H64.4597L66.4337 17.082L68.1697 11.664H69.9617L66.8817 20.456C66.7697 20.7827 66.597 21.0767 66.3637 21.338C66.1397 21.6087 65.855 21.8187 65.5097 21.968C65.1737 22.1267 64.7957 22.206 64.3757 22.206C64.2264 22.206 64.077 22.192 63.9277 22.164C63.7784 22.1453 63.615 22.108 63.4377 22.052V20.428ZM70.2992 16.83C70.2992 16.354 70.4299 15.9387 70.6912 15.584C70.9619 15.22 71.3352 14.94 71.8112 14.744C72.2872 14.548 72.8332 14.45 73.4492 14.45C73.7572 14.45 74.0699 14.4733 74.3872 14.52C74.7046 14.5667 74.9799 14.6413 75.2132 14.744V14.352C75.2132 13.8853 75.0732 13.526 74.7932 13.274C74.5226 13.022 74.1166 12.896 73.5752 12.896C73.1739 12.896 72.7912 12.966 72.4272 13.106C72.0632 13.246 71.6806 13.4513 71.2792 13.722L70.6772 12.49C71.1626 12.1727 71.6572 11.9347 72.1612 11.776C72.6746 11.6173 73.2112 11.538 73.7712 11.538C74.8166 11.538 75.6286 11.7993 76.2072 12.322C76.7952 12.8447 77.0892 13.5913 77.0892 14.562V16.9C77.0892 17.096 77.1219 17.236 77.1872 17.32C77.2619 17.404 77.3786 17.4553 77.5372 17.474V19C77.3692 19.028 77.2152 19.0513 77.0752 19.07C76.9446 19.0887 76.8326 19.098 76.7392 19.098C76.3659 19.098 76.0812 19.014 75.8852 18.846C75.6986 18.678 75.5819 18.4727 75.5352 18.23L75.4932 17.852C75.1759 18.2627 74.7792 18.58 74.3032 18.804C73.8272 19.028 73.3419 19.14 72.8472 19.14C72.3619 19.14 71.9232 19.042 71.5312 18.846C71.1486 18.6407 70.8452 18.3653 70.6212 18.02C70.4066 17.6653 70.2992 17.2687 70.2992 16.83ZM74.8632 17.208C74.9659 17.096 75.0499 16.984 75.1152 16.872C75.1806 16.76 75.2132 16.6573 75.2132 16.564V15.822C74.9892 15.7287 74.7466 15.6587 74.4852 15.612C74.2239 15.556 73.9766 15.528 73.7432 15.528C73.2579 15.528 72.8566 15.6353 72.5392 15.85C72.2312 16.0553 72.0772 16.3307 72.0772 16.676C72.0772 16.8627 72.1286 17.04 72.2312 17.208C72.3339 17.376 72.4832 17.5113 72.6792 17.614C72.8752 17.7167 73.1086 17.768 73.3792 17.768C73.6592 17.768 73.9346 17.7167 74.2052 17.614C74.4759 17.502 74.6952 17.3667 74.8632 17.208ZM78.8283 8.78H80.7043V16.648C80.7043 16.984 80.7603 17.2127 80.8723 17.334C80.9843 17.446 81.1383 17.502 81.3343 17.502C81.4836 17.502 81.6376 17.4833 81.7963 17.446C81.9549 17.4087 82.0949 17.362 82.2163 17.306L82.4683 18.734C82.2163 18.8553 81.9223 18.9487 81.5863 19.014C81.2503 19.0793 80.9469 19.112 80.6763 19.112C80.0883 19.112 79.6309 18.958 79.3043 18.65C78.9869 18.3327 78.8283 17.8847 78.8283 17.306V8.78ZM86.6736 19.14C86.0763 19.14 85.5396 19.042 85.0636 18.846C84.5876 18.6407 84.1816 18.3607 83.8456 18.006C83.519 17.6513 83.267 17.2453 83.0896 16.788C82.9123 16.3307 82.8236 15.85 82.8236 15.346C82.8236 14.8327 82.9123 14.3473 83.0896 13.89C83.267 13.4327 83.519 13.0267 83.8456 12.672C84.1816 12.3173 84.5876 12.042 85.0636 11.846C85.5396 11.6407 86.0763 11.538 86.6736 11.538C87.271 11.538 87.803 11.6407 88.2696 11.846C88.7456 12.042 89.1516 12.3173 89.4876 12.672C89.8236 13.0267 90.0756 13.4327 90.2436 13.89C90.421 14.3473 90.5096 14.8327 90.5096 15.346C90.5096 15.85 90.421 16.3307 90.2436 16.788C90.0756 17.2453 89.8236 17.6513 89.4876 18.006C89.161 18.3607 88.7596 18.6407 88.2836 18.846C87.8076 19.042 87.271 19.14 86.6736 19.14ZM84.7556 15.346C84.7556 15.7753 84.8396 16.158 85.0076 16.494C85.1756 16.8207 85.4043 17.0773 85.6936 17.264C85.983 17.4507 86.3096 17.544 86.6736 17.544C87.0283 17.544 87.3503 17.4507 87.6396 17.264C87.929 17.068 88.1576 16.8067 88.3256 16.48C88.503 16.144 88.5916 15.7613 88.5916 15.332C88.5916 14.912 88.503 14.534 88.3256 14.198C88.1576 13.862 87.929 13.6007 87.6396 13.414C87.3503 13.2273 87.0283 13.134 86.6736 13.134C86.3096 13.134 85.983 13.232 85.6936 13.428C85.4043 13.6147 85.1756 13.876 85.0076 14.212C84.8396 14.5387 84.7556 14.9167 84.7556 15.346ZM94.4779 19.14C93.8525 19.14 93.2552 19.0373 92.6859 18.832C92.1165 18.6267 91.6265 18.3233 91.2159 17.922L91.8879 16.704C92.3265 17.0587 92.7559 17.32 93.1759 17.488C93.6052 17.656 94.0159 17.74 94.4079 17.74C94.7719 17.74 95.0612 17.6747 95.2759 17.544C95.4999 17.4133 95.6119 17.2173 95.6119 16.956C95.6119 16.7787 95.5512 16.6433 95.4299 16.55C95.3085 16.4473 95.1312 16.3587 94.8979 16.284C94.6739 16.2093 94.3985 16.1253 94.0719 16.032C93.5305 15.8547 93.0779 15.682 92.7139 15.514C92.3499 15.346 92.0745 15.136 91.8879 14.884C91.7105 14.6227 91.6219 14.2913 91.6219 13.89C91.6219 13.4047 91.7432 12.9893 91.9859 12.644C92.2379 12.2893 92.5832 12.014 93.0219 11.818C93.4699 11.622 93.9925 11.524 94.5899 11.524C95.1125 11.524 95.6072 11.608 96.0739 11.776C96.5405 11.9347 96.9652 12.196 97.3479 12.56L96.5919 13.75C96.2185 13.4607 95.8639 13.2507 95.5279 13.12C95.1919 12.98 94.8512 12.91 94.5059 12.91C94.3099 12.91 94.1232 12.9333 93.9459 12.98C93.7779 13.0267 93.6379 13.106 93.5259 13.218C93.4232 13.3207 93.3719 13.47 93.3719 13.666C93.3719 13.8433 93.4185 13.9833 93.5119 14.086C93.6145 14.1793 93.7639 14.2633 93.9599 14.338C94.1652 14.4127 94.4125 14.4967 94.7019 14.59C95.2899 14.758 95.7845 14.9307 96.1859 15.108C96.5965 15.2853 96.9045 15.5047 97.1099 15.766C97.3152 16.018 97.4179 16.368 97.4179 16.816C97.4179 17.544 97.1519 18.1133 96.6199 18.524C96.0879 18.9347 95.3739 19.14 94.4779 19.14ZM98.7515 12.294L99.0735 10.572H98.5135V8.696H100.389V10.614L99.8995 12.294H98.7515ZM101.383 12.294L101.705 10.572H101.145V8.696H103.021V10.614L102.531 12.294H101.383ZM42.133 29.53C42.133 28.8567 42.2763 28.1833 42.563 27.51C42.8496 26.83 43.203 26.1367 43.623 25.43L44.643 25.86C44.543 26.02 44.4196 26.2367 44.273 26.51C44.133 26.7833 43.993 27.0933 43.853 27.44C43.7196 27.78 43.6063 28.1333 43.513 28.5C43.4263 28.8667 43.383 29.22 43.383 29.56C43.383 30.0933 43.4963 30.6533 43.723 31.24C43.9563 31.82 44.253 32.42 44.613 33.04L43.633 33.53C43.3596 33.11 43.1063 32.68 42.873 32.24C42.6463 31.8 42.4663 31.35 42.333 30.89C42.1996 30.43 42.133 29.9767 42.133 29.53ZM49.5887 31.79V33H45.5287V31.79H46.9487V28.76C46.8887 28.84 46.7953 28.9233 46.6687 29.01C46.542 29.09 46.3987 29.1667 46.2387 29.24C46.0787 29.3133 45.9187 29.3733 45.7587 29.42C45.5987 29.4667 45.4553 29.49 45.3287 29.49V28.24C45.4487 28.24 45.592 28.2033 45.7587 28.13C45.932 28.05 46.102 27.9567 46.2687 27.85C46.442 27.7433 46.5887 27.64 46.7087 27.54C46.8353 27.4333 46.9153 27.35 46.9487 27.29H48.3187V31.79H49.5887ZM50.1501 29.76C50.1501 29.3 50.2634 28.8833 50.4901 28.51C50.7167 28.1367 51.0267 27.84 51.4201 27.62C51.8134 27.4 52.2534 27.29 52.7401 27.29C53.2801 27.29 53.7434 27.42 54.1301 27.68C54.5234 27.94 54.8267 28.3133 55.0401 28.8C55.2534 29.28 55.3601 29.8633 55.3601 30.55C55.3601 31.41 55.2467 32.1367 55.0201 32.73C54.8001 33.3233 54.4834 33.7733 54.0701 34.08C53.6567 34.3867 53.1701 34.54 52.6101 34.54C52.1634 34.54 51.7501 34.4433 51.3701 34.25C50.9901 34.0567 50.6701 33.78 50.4101 33.42L51.1801 32.58C51.3401 32.8267 51.5467 33.02 51.8001 33.16C52.0601 33.3067 52.3367 33.38 52.6301 33.38C52.9301 33.38 53.1867 33.3 53.4001 33.14C53.6201 32.98 53.7901 32.75 53.9101 32.45C54.0367 32.1433 54.1034 31.7767 54.1101 31.35C54.0234 31.5033 53.9034 31.64 53.7501 31.76C53.6034 31.88 53.4334 31.9733 53.2401 32.04C53.0534 32.1 52.8467 32.13 52.6201 32.13C52.1601 32.13 51.7401 32.0267 51.3601 31.82C50.9867 31.6067 50.6901 31.3233 50.4701 30.97C50.2567 30.61 50.1501 30.2067 50.1501 29.76ZM52.7401 28.42C52.5067 28.42 52.2901 28.4833 52.0901 28.61C51.8901 28.73 51.7301 28.89 51.6101 29.09C51.4901 29.29 51.4301 29.5133 51.4301 29.76C51.4301 30 51.4867 30.22 51.6001 30.42C51.7201 30.6133 51.8801 30.77 52.0801 30.89C52.2801 31.0033 52.5001 31.06 52.7401 31.06C52.9801 31.06 53.1967 31.0033 53.3901 30.89C53.5901 30.77 53.7501 30.6133 53.8701 30.42C53.9901 30.22 54.0501 30 54.0501 29.76C54.0501 29.52 53.9901 29.3 53.8701 29.1C53.7501 28.8933 53.5901 28.73 53.3901 28.61C53.1901 28.4833 52.9734 28.42 52.7401 28.42ZM56.0988 33C56.0988 32.7 56.1221 32.43 56.1688 32.19C56.2154 31.95 56.2954 31.7267 56.4088 31.52C56.5288 31.3133 56.6888 31.12 56.8888 30.94C57.0954 30.7533 57.3554 30.5733 57.6688 30.4C57.9421 30.2533 58.1821 30.1267 58.3888 30.02C58.5954 29.9067 58.7688 29.8033 58.9088 29.71C59.0554 29.6167 59.1654 29.5233 59.2388 29.43C59.3121 29.33 59.3488 29.2167 59.3488 29.09C59.3488 28.9567 59.3121 28.8367 59.2388 28.73C59.1654 28.6167 59.0621 28.5267 58.9288 28.46C58.7954 28.3933 58.6288 28.36 58.4288 28.36C58.2688 28.36 58.1188 28.38 57.9788 28.42C57.8454 28.46 57.7188 28.5167 57.5988 28.59C57.4854 28.6633 57.3788 28.7467 57.2788 28.84C57.1788 28.9267 57.0888 29.02 57.0088 29.12L56.1588 28.14C56.2521 28.0467 56.3754 27.9467 56.5288 27.84C56.6888 27.7267 56.8754 27.6233 57.0888 27.53C57.3088 27.43 57.5488 27.35 57.8088 27.29C58.0754 27.2233 58.3588 27.19 58.6587 27.19C59.1121 27.19 59.4988 27.2633 59.8188 27.41C60.1388 27.55 60.3821 27.7467 60.5488 28C60.7221 28.2533 60.8088 28.55 60.8088 28.89C60.8088 29.1233 60.7654 29.33 60.6788 29.51C60.5921 29.69 60.4821 29.85 60.3488 29.99C60.2154 30.1233 60.0688 30.2433 59.9088 30.35C59.7554 30.4567 59.6054 30.55 59.4588 30.63C59.2521 30.7367 59.0654 30.8367 58.8988 30.93C58.7321 31.0167 58.5854 31.1067 58.4588 31.2C58.3321 31.2867 58.2188 31.3767 58.1188 31.47C58.0254 31.5633 57.9421 31.67 57.8688 31.79H60.9188V33H56.0988ZM64.8733 28.39H61.6433V27.17H66.9833L63.4633 34.27H61.9433L64.8733 28.39ZM67.3339 30.86V29.65H70.3639V30.86H67.3339ZM75.6336 31.79V33H71.5736V31.79H72.9936V28.76C72.9336 28.84 72.8403 28.9233 72.7136 29.01C72.5869 29.09 72.4436 29.1667 72.2836 29.24C72.1236 29.3133 71.9636 29.3733 71.8036 29.42C71.6436 29.4667 71.5003 29.49 71.3736 29.49V28.24C71.4936 28.24 71.6369 28.2033 71.8036 28.13C71.9769 28.05 72.1469 27.9567 72.3136 27.85C72.4869 27.7433 72.6336 27.64 72.7536 27.54C72.8803 27.4333 72.9603 27.35 72.9936 27.29H74.3636V31.79H75.6336ZM76.195 29.76C76.195 29.3 76.3083 28.8833 76.535 28.51C76.7617 28.1367 77.0717 27.84 77.465 27.62C77.8583 27.4 78.2983 27.29 78.785 27.29C79.325 27.29 79.7883 27.42 80.175 27.68C80.5683 27.94 80.8717 28.3133 81.085 28.8C81.2983 29.28 81.405 29.8633 81.405 30.55C81.405 31.41 81.2917 32.1367 81.065 32.73C80.845 33.3233 80.5283 33.7733 80.115 34.08C79.7017 34.3867 79.215 34.54 78.655 34.54C78.2083 34.54 77.795 34.4433 77.415 34.25C77.035 34.0567 76.715 33.78 76.455 33.42L77.225 32.58C77.385 32.8267 77.5917 33.02 77.845 33.16C78.105 33.3067 78.3817 33.38 78.675 33.38C78.975 33.38 79.2317 33.3 79.445 33.14C79.665 32.98 79.835 32.75 79.955 32.45C80.0817 32.1433 80.1483 31.7767 80.155 31.35C80.0683 31.5033 79.9483 31.64 79.795 31.76C79.6483 31.88 79.4783 31.9733 79.285 32.04C79.0983 32.1 78.8917 32.13 78.665 32.13C78.205 32.13 77.785 32.0267 77.405 31.82C77.0317 31.6067 76.735 31.3233 76.515 30.97C76.3017 30.61 76.195 30.2067 76.195 29.76ZM78.785 28.42C78.5517 28.42 78.335 28.4833 78.135 28.61C77.935 28.73 77.775 28.89 77.655 29.09C77.535 29.29 77.475 29.5133 77.475 29.76C77.475 30 77.5317 30.22 77.645 30.42C77.765 30.6133 77.925 30.77 78.125 30.89C78.325 31.0033 78.545 31.06 78.785 31.06C79.025 31.06 79.2417 31.0033 79.435 30.89C79.635 30.77 79.795 30.6133 79.915 30.42C80.035 30.22 80.095 30 80.095 29.76C80.095 29.52 80.035 29.3 79.915 29.1C79.795 28.8933 79.635 28.73 79.435 28.61C79.235 28.4833 79.0183 28.42 78.785 28.42ZM84.8837 34.27V32.78H81.9637V31.59L85.3137 27.29H86.2237V31.58H87.1037V32.78H86.2237V34.27H84.8837ZM83.3037 31.58H85.0337V29.32L83.3037 31.58ZM87.8566 33C87.8566 32.7 87.8799 32.43 87.9266 32.19C87.9732 31.95 88.0532 31.7267 88.1666 31.52C88.2866 31.3133 88.4466 31.12 88.6466 30.94C88.8532 30.7533 89.1132 30.5733 89.4266 30.4C89.6999 30.2533 89.9399 30.1267 90.1466 30.02C90.3532 29.9067 90.5266 29.8033 90.6666 29.71C90.8132 29.6167 90.9232 29.5233 90.9966 29.43C91.0699 29.33 91.1066 29.2167 91.1066 29.09C91.1066 28.9567 91.0699 28.8367 90.9966 28.73C90.9232 28.6167 90.8199 28.5267 90.6866 28.46C90.5532 28.3933 90.3866 28.36 90.1866 28.36C90.0266 28.36 89.8766 28.38 89.7366 28.42C89.6032 28.46 89.4766 28.5167 89.3566 28.59C89.2432 28.6633 89.1366 28.7467 89.0366 28.84C88.9366 28.9267 88.8466 29.02 88.7666 29.12L87.9166 28.14C88.0099 28.0467 88.1332 27.9467 88.2866 27.84C88.4466 27.7267 88.6332 27.6233 88.8466 27.53C89.0666 27.43 89.3066 27.35 89.5666 27.29C89.8332 27.2233 90.1166 27.19 90.4166 27.19C90.8699 27.19 91.2566 27.2633 91.5766 27.41C91.8966 27.55 92.1399 27.7467 92.3066 28C92.4799 28.2533 92.5666 28.55 92.5666 28.89C92.5666 29.1233 92.5232 29.33 92.4366 29.51C92.3499 29.69 92.2399 29.85 92.1066 29.99C91.9732 30.1233 91.8266 30.2433 91.6666 30.35C91.5132 30.4567 91.3632 30.55 91.2166 30.63C91.0099 30.7367 90.8232 30.8367 90.6566 30.93C90.4899 31.0167 90.3432 31.1067 90.2166 31.2C90.0899 31.2867 89.9766 31.3767 89.8766 31.47C89.7832 31.5633 89.6999 31.67 89.6266 31.79H92.6766V33H87.8566ZM95.8711 29.53C95.8711 29.9767 95.8044 30.43 95.6711 30.89C95.5378 31.35 95.3578 31.8 95.1311 32.24C94.9044 32.68 94.6511 33.11 94.3711 33.53L93.3911 33.04C93.7578 32.42 94.0544 31.82 94.2811 31.24C94.5078 30.6533 94.6211 30.0933 94.6211 29.56C94.6211 29.22 94.5744 28.8667 94.4811 28.5C94.3944 28.1333 94.2811 27.78 94.1411 27.44C94.0078 27.0933 93.8711 26.7833 93.7311 26.51C93.5911 26.2367 93.4678 26.02 93.3611 25.86L94.3911 25.43C94.8044 26.1367 95.1544 26.83 95.4411 27.51C95.7278 28.1833 95.8711 28.8567 95.8711 29.53Z" fill="#50A021"/>
</g>
<defs>
<filter id="filter0_d_111_40" x="0" y="0" width="138" height="48" filterUnits="userSpaceOnUse" color-interpolation-filters="sRGB">
<feFlood flood-opacity="0" result="BackgroundImageFix"/>
<feColorMatrix in="SourceAlpha" type="matrix" values="0 0 0 0 0 0 0 0 0 0 0 0 0 0 0 0 0 0 127 0" result="hardAlpha"/>
<feOffset dy="2"/>
<feGaussianBlur stdDeviation="2"/>
<feComposite in2="hardAlpha" operator="out"/>
<feColorMatrix type="matrix" values="0 0 0 0 0 0 0 0 0 0 0 0 0 0 0 0 0 0 0.15 0"/>
<feBlend mode="normal" in2="BackgroundImageFix" result="effect1_dropShadow_111_40"/>
<feBlend mode="normal" in="SourceGraphic" in2="effect1_dropShadow_111_40" result="shape"/>
</filter>
</defs>
</svg>
