<svg width="138" height="48" viewBox="0 0 138 48" fill="none" xmlns="http://www.w3.org/2000/svg">
<g filter="url(#filter0_d_1_1185)">
<rect x="4.5" y="2.5" width="129" height="39" rx="5.5" fill="#50A021" stroke="#50A021"/>
<path d="M47.6013 9.06H49.5613L53.2153 19H51.2273L50.3033 16.522H46.8313L45.9213 19H43.9333L47.6013 9.06ZM49.9533 15.164L48.5813 11.062L47.1533 15.164H49.9533ZM53.4705 15.332C53.4705 14.6227 53.6105 13.9833 53.8905 13.414C54.1705 12.8353 54.5578 12.378 55.0525 12.042C55.5471 11.706 56.1118 11.538 56.7465 11.538C57.2878 11.538 57.7731 11.6733 58.2025 11.944C58.6411 12.2053 58.9818 12.5413 59.2245 12.952V8.78H61.1005V16.9C61.1005 17.096 61.1331 17.236 61.1985 17.32C61.2638 17.404 61.3758 17.4553 61.5345 17.474V19C61.2078 19.0653 60.9418 19.098 60.7365 19.098C60.4005 19.098 60.1205 19.014 59.8965 18.846C59.6818 18.678 59.5605 18.4587 59.5325 18.188L59.5045 17.726C59.2338 18.1833 58.8651 18.5333 58.3985 18.776C57.9411 19.0187 57.4605 19.14 56.9565 19.14C56.4525 19.14 55.9858 19.042 55.5565 18.846C55.1365 18.65 54.7678 18.3793 54.4505 18.034C54.1425 17.6887 53.8998 17.2873 53.7225 16.83C53.5545 16.3633 53.4705 15.864 53.4705 15.332ZM59.2245 16.312V14.562C59.1311 14.2913 58.9818 14.0487 58.7765 13.834C58.5711 13.6193 58.3425 13.4513 58.0905 13.33C57.8385 13.1993 57.5865 13.134 57.3345 13.134C57.0451 13.134 56.7838 13.1947 56.5505 13.316C56.3171 13.4373 56.1118 13.6007 55.9345 13.806C55.7665 14.0113 55.6358 14.2493 55.5425 14.52C55.4585 14.7907 55.4165 15.0753 55.4165 15.374C55.4165 15.6727 55.4631 15.9573 55.5565 16.228C55.6591 16.4893 55.8038 16.718 55.9905 16.914C56.1771 17.11 56.3918 17.264 56.6345 17.376C56.8865 17.488 57.1571 17.544 57.4465 17.544C57.6238 17.544 57.8011 17.516 57.9785 17.46C58.1651 17.3947 58.3378 17.3107 58.4965 17.208C58.6645 17.096 58.8091 16.9653 58.9305 16.816C59.0611 16.6573 59.1591 16.4893 59.2245 16.312ZM73.1232 19H71.2472V14.884C71.2472 14.3147 71.1352 13.89 70.9112 13.61C70.6965 13.33 70.3978 13.19 70.0152 13.19C69.7912 13.19 69.5532 13.2553 69.3012 13.386C69.0492 13.5167 68.8205 13.6987 68.6152 13.932C68.4192 14.156 68.2745 14.4173 68.1812 14.716V19H66.3052V8.78H68.1812V13.022C68.4518 12.5553 68.8205 12.1913 69.2872 11.93C69.7538 11.6687 70.2625 11.538 70.8132 11.538C71.2892 11.538 71.6765 11.622 71.9752 11.79C72.2738 11.9487 72.5072 12.168 72.6752 12.448C72.8432 12.7187 72.9598 13.0267 73.0252 13.372C73.0905 13.708 73.1232 14.058 73.1232 14.422V19ZM78.1424 19.14C77.5451 19.14 77.0084 19.042 76.5324 18.846C76.0564 18.6407 75.6504 18.3607 75.3144 18.006C74.9877 17.6513 74.7357 17.2453 74.5584 16.788C74.3811 16.3307 74.2924 15.85 74.2924 15.346C74.2924 14.8327 74.3811 14.3473 74.5584 13.89C74.7357 13.4327 74.9877 13.0267 75.3144 12.672C75.6504 12.3173 76.0564 12.042 76.5324 11.846C77.0084 11.6407 77.5451 11.538 78.1424 11.538C78.7397 11.538 79.2717 11.6407 79.7384 11.846C80.2144 12.042 80.6204 12.3173 80.9564 12.672C81.2924 13.0267 81.5444 13.4327 81.7124 13.89C81.8897 14.3473 81.9784 14.8327 81.9784 15.346C81.9784 15.85 81.8897 16.3307 81.7124 16.788C81.5444 17.2453 81.2924 17.6513 80.9564 18.006C80.6297 18.3607 80.2284 18.6407 79.7524 18.846C79.2764 19.042 78.7397 19.14 78.1424 19.14ZM76.2244 15.346C76.2244 15.7753 76.3084 16.158 76.4764 16.494C76.6444 16.8207 76.8731 17.0773 77.1624 17.264C77.4517 17.4507 77.7784 17.544 78.1424 17.544C78.4971 17.544 78.8191 17.4507 79.1084 17.264C79.3977 17.068 79.6264 16.8067 79.7944 16.48C79.9717 16.144 80.0604 15.7613 80.0604 15.332C80.0604 14.912 79.9717 14.534 79.7944 14.198C79.6264 13.862 79.3977 13.6007 79.1084 13.414C78.8191 13.2273 78.4971 13.134 78.1424 13.134C77.7784 13.134 77.4517 13.232 77.1624 13.428C76.8731 13.6147 76.6444 13.876 76.4764 14.212C76.3084 14.5387 76.2244 14.9167 76.2244 15.346ZM86.6606 19.14C86.0633 19.14 85.5266 19.042 85.0506 18.846C84.5746 18.6407 84.1686 18.3607 83.8326 18.006C83.4966 17.642 83.2353 17.2313 83.0486 16.774C82.8713 16.3167 82.7826 15.836 82.7826 15.332C82.7826 14.6413 82.9366 14.0113 83.2446 13.442C83.562 12.8633 84.01 12.4013 84.5886 12.056C85.1673 11.7107 85.8533 11.538 86.6466 11.538C87.44 11.538 88.1213 11.7107 88.6906 12.056C89.26 12.4013 89.6846 12.854 89.9646 13.414L88.1306 13.974C87.972 13.7033 87.762 13.498 87.5006 13.358C87.2393 13.2087 86.95 13.134 86.6326 13.134C86.278 13.134 85.9513 13.2273 85.6526 13.414C85.3633 13.5913 85.1346 13.848 84.9666 14.184C84.7986 14.5107 84.7146 14.8933 84.7146 15.332C84.7146 15.7613 84.7986 16.144 84.9666 16.48C85.144 16.8067 85.3773 17.068 85.6666 17.264C85.956 17.4507 86.278 17.544 86.6326 17.544C86.8566 17.544 87.0666 17.5067 87.2626 17.432C87.468 17.3573 87.65 17.2547 87.8086 17.124C87.9673 16.9933 88.084 16.844 88.1586 16.676L89.9926 17.236C89.8246 17.6 89.5773 17.9267 89.2506 18.216C88.9333 18.5053 88.5553 18.734 88.1166 18.902C87.6873 19.0607 87.202 19.14 86.6606 19.14ZM12.5822 29.53C12.5822 28.8567 12.7255 28.1833 13.0122 27.51C13.2989 26.83 13.6522 26.1367 14.0722 25.43L15.0922 25.86C14.9922 26.02 14.8689 26.2367 14.7222 26.51C14.5822 26.7833 14.4422 27.0933 14.3022 27.44C14.1689 27.78 14.0555 28.1333 13.9622 28.5C13.8755 28.8667 13.8322 29.22 13.8322 29.56C13.8322 30.0933 13.9455 30.6533 14.1722 31.24C14.4055 31.82 14.7022 32.42 15.0622 33.04L14.0822 33.53C13.8089 33.11 13.5555 32.68 13.3222 32.24C13.0955 31.8 12.9155 31.35 12.7822 30.89C12.6489 30.43 12.5822 29.9767 12.5822 29.53ZM17.8779 33.1C17.4312 33.1 17.0046 33.0267 16.5979 32.88C16.1912 32.7333 15.8412 32.5167 15.5479 32.23L16.0279 31.36C16.3412 31.6133 16.6479 31.8 16.9479 31.92C17.2546 32.04 17.5479 32.1 17.8279 32.1C18.0879 32.1 18.2946 32.0533 18.4479 31.96C18.6079 31.8667 18.6879 31.7267 18.6879 31.54C18.6879 31.4133 18.6446 31.3167 18.5579 31.25C18.4712 31.1767 18.3446 31.1133 18.1779 31.06C18.0179 31.0067 17.8212 30.9467 17.5879 30.88C17.2012 30.7533 16.8779 30.63 16.6179 30.51C16.3579 30.39 16.1612 30.24 16.0279 30.06C15.9012 29.8733 15.8379 29.6367 15.8379 29.35C15.8379 29.0033 15.9246 28.7067 16.0979 28.46C16.2779 28.2067 16.5246 28.01 16.8379 27.87C17.1579 27.73 17.5312 27.66 17.9579 27.66C18.3312 27.66 18.6846 27.72 19.0179 27.84C19.3512 27.9533 19.6546 28.14 19.9279 28.4L19.3879 29.25C19.1212 29.0433 18.8679 28.8933 18.6279 28.8C18.3879 28.7 18.1446 28.65 17.8979 28.65C17.7579 28.65 17.6246 28.6667 17.4979 28.7C17.3779 28.7333 17.2779 28.79 17.1979 28.87C17.1246 28.9433 17.0879 29.05 17.0879 29.19C17.0879 29.3167 17.1212 29.4167 17.1879 29.49C17.2612 29.5567 17.3679 29.6167 17.5079 29.67C17.6546 29.7233 17.8312 29.7833 18.0379 29.85C18.4579 29.97 18.8112 30.0933 19.0979 30.22C19.3912 30.3467 19.6112 30.5033 19.7579 30.69C19.9046 30.87 19.9779 31.12 19.9779 31.44C19.9779 31.96 19.7879 32.3667 19.4079 32.66C19.0279 32.9533 18.5179 33.1 17.8779 33.1ZM23.3093 33.1C22.8826 33.1 22.4993 33.03 22.1593 32.89C21.8193 32.7433 21.5293 32.5433 21.2893 32.29C21.056 32.0367 20.876 31.7467 20.7493 31.42C20.6226 31.0933 20.5593 30.75 20.5593 30.39C20.5593 30.0233 20.6226 29.6767 20.7493 29.35C20.876 29.0233 21.056 28.7333 21.2893 28.48C21.5293 28.2267 21.8193 28.03 22.1593 27.89C22.4993 27.7433 22.8826 27.67 23.3093 27.67C23.736 27.67 24.116 27.7433 24.4493 27.89C24.7893 28.03 25.0793 28.2267 25.3193 28.48C25.5593 28.7333 25.7393 29.0233 25.8593 29.35C25.986 29.6767 26.0493 30.0233 26.0493 30.39C26.0493 30.75 25.986 31.0933 25.8593 31.42C25.7393 31.7467 25.5593 32.0367 25.3193 32.29C25.086 32.5433 24.7993 32.7433 24.4593 32.89C24.1193 33.03 23.736 33.1 23.3093 33.1ZM21.9393 30.39C21.9393 30.6967 21.9993 30.97 22.1193 31.21C22.2393 31.4433 22.4026 31.6267 22.6093 31.76C22.816 31.8933 23.0493 31.96 23.3093 31.96C23.5626 31.96 23.7926 31.8933 23.9993 31.76C24.206 31.62 24.3693 31.4333 24.4893 31.2C24.616 30.96 24.6793 30.6867 24.6793 30.38C24.6793 30.08 24.616 29.81 24.4893 29.57C24.3693 29.33 24.206 29.1433 23.9993 29.01C23.7926 28.8767 23.5626 28.81 23.3093 28.81C23.0493 28.81 22.816 28.88 22.6093 29.02C22.4026 29.1533 22.2393 29.34 22.1193 29.58C21.9993 29.8133 21.9393 30.0833 21.9393 30.39ZM30.0738 28.92C29.6671 28.92 29.3038 29 28.9837 29.16C28.6638 29.3133 28.4338 29.5367 28.2938 29.83V33H26.9538V27.76H28.1838V28.88C28.3704 28.52 28.6071 28.2367 28.8938 28.03C29.1804 27.8233 29.4838 27.71 29.8038 27.69C29.8771 27.69 29.9338 27.69 29.9738 27.69C30.0138 27.69 30.0471 27.6933 30.0738 27.7V28.92ZM33.1726 33.1C32.7459 33.1 32.3626 33.03 32.0226 32.89C31.6826 32.7433 31.3926 32.5433 31.1526 32.29C30.9192 32.0367 30.7392 31.7467 30.6126 31.42C30.4859 31.0933 30.4226 30.75 30.4226 30.39C30.4226 30.0233 30.4859 29.6767 30.6126 29.35C30.7392 29.0233 30.9192 28.7333 31.1526 28.48C31.3926 28.2267 31.6826 28.03 32.0226 27.89C32.3626 27.7433 32.7459 27.67 33.1726 27.67C33.5992 27.67 33.9792 27.7433 34.3126 27.89C34.6526 28.03 34.9426 28.2267 35.1826 28.48C35.4226 28.7333 35.6026 29.0233 35.7226 29.35C35.8492 29.6767 35.9126 30.0233 35.9126 30.39C35.9126 30.75 35.8492 31.0933 35.7226 31.42C35.6026 31.7467 35.4226 32.0367 35.1826 32.29C34.9492 32.5433 34.6626 32.7433 34.3226 32.89C33.9826 33.03 33.5992 33.1 33.1726 33.1ZM31.8026 30.39C31.8026 30.6967 31.8626 30.97 31.9826 31.21C32.1026 31.4433 32.2659 31.6267 32.4726 31.76C32.6792 31.8933 32.9126 31.96 33.1726 31.96C33.4259 31.96 33.6559 31.8933 33.8626 31.76C34.0692 31.62 34.2326 31.4333 34.3526 31.2C34.4792 30.96 34.5426 30.6867 34.5426 30.38C34.5426 30.08 34.4792 29.81 34.3526 29.57C34.2326 29.33 34.0692 29.1433 33.8626 29.01C33.6559 28.8767 33.4259 28.81 33.1726 28.81C32.9126 28.81 32.6792 28.88 32.4726 29.02C32.2659 29.1533 32.1026 29.34 31.9826 29.58C31.8626 29.8133 31.8026 30.0833 31.8026 30.39ZM36.3791 32.18L39.2691 28.7H36.4991V27.76H40.7091V28.58L37.8391 32.06H40.7591V33H36.3791V32.18ZM41.3008 31.45C41.3008 31.11 41.3941 30.8133 41.5808 30.56C41.7741 30.3 42.0408 30.1 42.3808 29.96C42.7208 29.82 43.1108 29.75 43.5508 29.75C43.7708 29.75 43.9941 29.7667 44.2208 29.8C44.4474 29.8333 44.6441 29.8867 44.8108 29.96V29.68C44.8108 29.3467 44.7108 29.09 44.5108 28.91C44.3174 28.73 44.0274 28.64 43.6408 28.64C43.3541 28.64 43.0808 28.69 42.8208 28.79C42.5608 28.89 42.2874 29.0367 42.0008 29.23L41.5708 28.35C41.9174 28.1233 42.2708 27.9533 42.6308 27.84C42.9974 27.7267 43.3808 27.67 43.7808 27.67C44.5274 27.67 45.1074 27.8567 45.5208 28.23C45.9408 28.6033 46.1508 29.1367 46.1508 29.83V31.5C46.1508 31.64 46.1741 31.74 46.2208 31.8C46.2741 31.86 46.3574 31.8967 46.4708 31.91V33C46.3508 33.02 46.2408 33.0367 46.1408 33.05C46.0474 33.0633 45.9674 33.07 45.9008 33.07C45.6341 33.07 45.4308 33.01 45.2908 32.89C45.1574 32.77 45.0741 32.6233 45.0408 32.45L45.0108 32.18C44.7841 32.4733 44.5008 32.7 44.1608 32.86C43.8208 33.02 43.4741 33.1 43.1208 33.1C42.7741 33.1 42.4608 33.03 42.1808 32.89C41.9074 32.7433 41.6908 32.5467 41.5308 32.3C41.3774 32.0467 41.3008 31.7633 41.3008 31.45ZM44.5608 31.72C44.6341 31.64 44.6941 31.56 44.7408 31.48C44.7874 31.4 44.8108 31.3267 44.8108 31.26V30.73C44.6508 30.6633 44.4774 30.6133 44.2908 30.58C44.1041 30.54 43.9274 30.52 43.7608 30.52C43.4141 30.52 43.1274 30.5967 42.9008 30.75C42.6808 30.8967 42.5708 31.0933 42.5708 31.34C42.5708 31.4733 42.6074 31.6 42.6808 31.72C42.7541 31.84 42.8608 31.9367 43.0008 32.01C43.1408 32.0833 43.3074 32.12 43.5008 32.12C43.7008 32.12 43.8974 32.0833 44.0908 32.01C44.2841 31.93 44.4408 31.8333 44.5608 31.72ZM50.4941 32.73C50.3808 32.7767 50.2441 32.83 50.0841 32.89C49.9241 32.95 49.7508 32.9967 49.5641 33.03C49.3841 33.07 49.2008 33.09 49.0141 33.09C48.7675 33.09 48.5408 33.0467 48.3341 32.96C48.1275 32.8733 47.9608 32.7367 47.8341 32.55C47.7141 32.3567 47.6541 32.1067 47.6541 31.8V28.79H46.9641V27.76H47.6541V26.06H48.9941V27.76H50.0941V28.79H48.9941V31.35C49.0008 31.53 49.0508 31.66 49.1441 31.74C49.2375 31.82 49.3541 31.86 49.4941 31.86C49.6341 31.86 49.7708 31.8367 49.9041 31.79C50.0375 31.7433 50.1441 31.7033 50.2241 31.67L50.4941 32.73ZM54.172 33.1C53.772 33.1 53.4154 33.01 53.102 32.83C52.7887 32.65 52.542 32.4033 52.362 32.09V33H51.192V25.7H52.532V28.68C52.7187 28.3667 52.962 28.12 53.262 27.94C53.5687 27.76 53.9254 27.67 54.332 27.67C54.672 27.67 54.982 27.7433 55.262 27.89C55.542 28.03 55.782 28.2267 55.982 28.48C56.1887 28.7333 56.3454 29.0233 56.452 29.35C56.5654 29.6767 56.622 30.0267 56.622 30.4C56.622 30.7733 56.5587 31.1233 56.432 31.45C56.312 31.7767 56.142 32.0667 55.922 32.32C55.702 32.5667 55.442 32.76 55.142 32.9C54.8487 33.0333 54.5254 33.1 54.172 33.1ZM53.802 31.96C54.0154 31.96 54.2087 31.92 54.382 31.84C54.562 31.7533 54.7154 31.64 54.842 31.5C54.9754 31.36 55.0754 31.1967 55.142 31.01C55.2154 30.8167 55.252 30.6167 55.252 30.41C55.252 30.1233 55.192 29.86 55.072 29.62C54.9587 29.3733 54.7987 29.1767 54.592 29.03C54.392 28.8833 54.1554 28.81 53.882 28.81C53.6887 28.81 53.502 28.8567 53.322 28.95C53.1487 29.0367 52.992 29.1567 52.852 29.31C52.7187 29.4633 52.612 29.6367 52.532 29.83V31.08C52.572 31.2133 52.6354 31.3333 52.722 31.44C52.8154 31.5467 52.922 31.64 53.042 31.72C53.162 31.7933 53.2854 31.8533 53.412 31.9C53.5454 31.94 53.6754 31.96 53.802 31.96ZM57.1699 31.45C57.1699 31.11 57.2633 30.8133 57.4499 30.56C57.6433 30.3 57.9099 30.1 58.2499 29.96C58.5899 29.82 58.9799 29.75 59.4199 29.75C59.6399 29.75 59.8633 29.7667 60.0899 29.8C60.3166 29.8333 60.5133 29.8867 60.6799 29.96V29.68C60.6799 29.3467 60.5799 29.09 60.3799 28.91C60.1866 28.73 59.8966 28.64 59.5099 28.64C59.2233 28.64 58.9499 28.69 58.6899 28.79C58.4299 28.89 58.1566 29.0367 57.8699 29.23L57.4399 28.35C57.7866 28.1233 58.1399 27.9533 58.4999 27.84C58.8666 27.7267 59.2499 27.67 59.6499 27.67C60.3966 27.67 60.9766 27.8567 61.3899 28.23C61.8099 28.6033 62.0199 29.1367 62.0199 29.83V31.5C62.0199 31.64 62.0433 31.74 62.0899 31.8C62.1433 31.86 62.2266 31.8967 62.3399 31.91V33C62.2199 33.02 62.1099 33.0367 62.0099 33.05C61.9166 33.0633 61.8366 33.07 61.7699 33.07C61.5033 33.07 61.2999 33.01 61.1599 32.89C61.0266 32.77 60.9433 32.6233 60.9099 32.45L60.8799 32.18C60.6533 32.4733 60.3699 32.7 60.0299 32.86C59.6899 33.02 59.3433 33.1 58.9899 33.1C58.6433 33.1 58.3299 33.03 58.0499 32.89C57.7766 32.7433 57.5599 32.5467 57.3999 32.3C57.2466 32.0467 57.1699 31.7633 57.1699 31.45ZM60.4299 31.72C60.5033 31.64 60.5633 31.56 60.6099 31.48C60.6566 31.4 60.6799 31.3267 60.6799 31.26V30.73C60.5199 30.6633 60.3466 30.6133 60.1599 30.58C59.9733 30.54 59.7966 30.52 59.6299 30.52C59.2833 30.52 58.9966 30.5967 58.7699 30.75C58.5499 30.8967 58.4399 31.0933 58.4399 31.34C58.4399 31.4733 58.4766 31.6 58.5499 31.72C58.6233 31.84 58.7299 31.9367 58.8699 32.01C59.0099 32.0833 59.1766 32.12 59.3699 32.12C59.5699 32.12 59.7666 32.0833 59.9599 32.01C60.1533 31.93 60.3099 31.8333 60.4299 31.72ZM70.5445 33H69.2045V30.06C69.2045 29.64 69.1311 29.3333 68.9845 29.14C68.8378 28.9467 68.6345 28.85 68.3745 28.85C68.1945 28.85 68.0111 28.8967 67.8245 28.99C67.6445 29.0833 67.4811 29.2133 67.3345 29.38C67.1878 29.54 67.0811 29.7267 67.0145 29.94V33H65.6745V27.76H66.8845V28.73C67.0178 28.5033 67.1878 28.3133 67.3945 28.16C67.6011 28 67.8378 27.88 68.1045 27.8C68.3778 27.7133 68.6645 27.67 68.9645 27.67C69.2911 27.67 69.5578 27.73 69.7645 27.85C69.9778 27.9633 70.1378 28.12 70.2445 28.32C70.3578 28.5133 70.4345 28.7333 70.4745 28.98C70.5211 29.2267 70.5445 29.4767 70.5445 29.73V33ZM74.1396 33.1C73.7196 33.1 73.3396 33.03 72.9996 32.89C72.6596 32.7433 72.3696 32.5467 72.1296 32.3C71.8896 32.0467 71.7029 31.76 71.5696 31.44C71.4429 31.1133 71.3796 30.77 71.3796 30.41C71.3796 29.91 71.4896 29.4533 71.7096 29.04C71.9363 28.6267 72.2563 28.2967 72.6696 28.05C73.0896 27.7967 73.5829 27.67 74.1496 27.67C74.7229 27.67 75.2129 27.7967 75.6196 28.05C76.0263 28.2967 76.3363 28.6267 76.5496 29.04C76.7696 29.4467 76.8796 29.8867 76.8796 30.36C76.8796 30.44 76.8763 30.5233 76.8696 30.61C76.8629 30.69 76.8563 30.7567 76.8496 30.81H72.7996C72.8263 31.0767 72.9029 31.31 73.0296 31.51C73.1629 31.71 73.3296 31.8633 73.5296 31.97C73.7363 32.07 73.9563 32.12 74.1896 32.12C74.4563 32.12 74.7063 32.0567 74.9396 31.93C75.1796 31.7967 75.3429 31.6233 75.4296 31.41L76.5796 31.73C76.4529 31.9967 76.2696 32.2333 76.0296 32.44C75.7963 32.6467 75.5196 32.81 75.1996 32.93C74.8796 33.0433 74.5263 33.1 74.1396 33.1ZM72.7696 29.96H75.5096C75.4829 29.6933 75.4063 29.4633 75.2796 29.27C75.1596 29.07 74.9996 28.9167 74.7996 28.81C74.5996 28.6967 74.3763 28.64 74.1296 28.64C73.8896 28.64 73.6696 28.6967 73.4696 28.81C73.2763 28.9167 73.1163 29.07 72.9896 29.27C72.8696 29.4633 72.7963 29.6933 72.7696 29.96ZM85.8359 33H84.4959V30.06C84.4959 29.6467 84.4226 29.3433 84.2759 29.15C84.1359 28.95 83.9393 28.85 83.6859 28.85C83.4259 28.85 83.1759 28.9533 82.9359 29.16C82.7026 29.36 82.5359 29.6233 82.4359 29.95V33H81.0959V30.06C81.0959 29.64 81.0226 29.3333 80.8759 29.14C80.7359 28.9467 80.5393 28.85 80.2859 28.85C80.0259 28.85 79.7759 28.95 79.5359 29.15C79.3026 29.35 79.1359 29.6133 79.0359 29.94V33H77.6959V27.76H78.9059V28.73C79.1059 28.39 79.3726 28.13 79.7059 27.95C80.0393 27.7633 80.4226 27.67 80.8559 27.67C81.2893 27.67 81.6259 27.7767 81.8659 27.99C82.1126 28.2033 82.2693 28.4667 82.3359 28.78C82.5493 28.42 82.8193 28.1467 83.1459 27.96C83.4793 27.7667 83.8526 27.67 84.2659 27.67C84.5926 27.67 84.8559 27.73 85.0559 27.85C85.2626 27.9633 85.4226 28.12 85.5359 28.32C85.6493 28.5133 85.7259 28.7333 85.7659 28.98C85.8126 29.2267 85.8359 29.4767 85.8359 29.73V33ZM92.5449 32.73C92.4316 32.7767 92.2949 32.83 92.1349 32.89C91.9749 32.95 91.8016 32.9967 91.6149 33.03C91.4349 33.07 91.2516 33.09 91.0649 33.09C90.8183 33.09 90.5916 33.0467 90.3849 32.96C90.1783 32.8733 90.0116 32.7367 89.8849 32.55C89.7649 32.3567 89.7049 32.1067 89.7049 31.8V28.79H89.0149V27.76H89.7049V26.06H91.0449V27.76H92.1449V28.79H91.0449V31.35C91.0516 31.53 91.1016 31.66 91.1949 31.74C91.2883 31.82 91.4049 31.86 91.5449 31.86C91.6849 31.86 91.8216 31.8367 91.9549 31.79C92.0883 31.7433 92.1949 31.7033 92.2749 31.67L92.5449 32.73ZM92.8828 31.45C92.8828 31.11 92.9761 30.8133 93.1628 30.56C93.3561 30.3 93.6228 30.1 93.9628 29.96C94.3028 29.82 94.6928 29.75 95.1328 29.75C95.3528 29.75 95.5761 29.7667 95.8028 29.8C96.0295 29.8333 96.2261 29.8867 96.3928 29.96V29.68C96.3928 29.3467 96.2928 29.09 96.0928 28.91C95.8995 28.73 95.6095 28.64 95.2228 28.64C94.9361 28.64 94.6628 28.69 94.4028 28.79C94.1428 28.89 93.8695 29.0367 93.5828 29.23L93.1528 28.35C93.4995 28.1233 93.8528 27.9533 94.2128 27.84C94.5795 27.7267 94.9628 27.67 95.3628 27.67C96.1095 27.67 96.6895 27.8567 97.1028 28.23C97.5228 28.6033 97.7328 29.1367 97.7328 29.83V31.5C97.7328 31.64 97.7561 31.74 97.8028 31.8C97.8561 31.86 97.9395 31.8967 98.0528 31.91V33C97.9328 33.02 97.8228 33.0367 97.7228 33.05C97.6295 33.0633 97.5495 33.07 97.4828 33.07C97.2161 33.07 97.0128 33.01 96.8728 32.89C96.7395 32.77 96.6561 32.6233 96.6228 32.45L96.5928 32.18C96.3661 32.4733 96.0828 32.7 95.7428 32.86C95.4028 33.02 95.0561 33.1 94.7028 33.1C94.3561 33.1 94.0428 33.03 93.7628 32.89C93.4895 32.7433 93.2728 32.5467 93.1128 32.3C92.9595 32.0467 92.8828 31.7633 92.8828 31.45ZM96.1428 31.72C96.2161 31.64 96.2761 31.56 96.3228 31.48C96.3695 31.4 96.3928 31.3267 96.3928 31.26V30.73C96.2328 30.6633 96.0595 30.6133 95.8728 30.58C95.6861 30.54 95.5095 30.52 95.3428 30.52C94.9961 30.52 94.7095 30.5967 94.4828 30.75C94.2628 30.8967 94.1528 31.0933 94.1528 31.34C94.1528 31.4733 94.1895 31.6 94.2628 31.72C94.3361 31.84 94.4428 31.9367 94.5828 32.01C94.7228 32.0833 94.8895 32.12 95.0828 32.12C95.2828 32.12 95.4795 32.0833 95.6728 32.01C95.8661 31.93 96.0228 31.8333 96.1428 31.72ZM102.105 28.92C101.698 28.92 101.335 29 101.015 29.16C100.695 29.3133 100.465 29.5367 100.325 29.83V33H98.985V27.76H100.215V28.88C100.402 28.52 100.638 28.2367 100.925 28.03C101.212 27.8233 101.515 27.71 101.835 27.69C101.908 27.69 101.965 27.69 102.005 27.69C102.045 27.69 102.078 27.6933 102.105 27.7V28.92ZM105.992 32.73C105.879 32.7767 105.742 32.83 105.582 32.89C105.422 32.95 105.249 32.9967 105.062 33.03C104.882 33.07 104.699 33.09 104.512 33.09C104.266 33.09 104.039 33.0467 103.832 32.96C103.626 32.8733 103.459 32.7367 103.332 32.55C103.212 32.3567 103.152 32.1067 103.152 31.8V28.79H102.462V27.76H103.152V26.06H104.492V27.76H105.592V28.79H104.492V31.35C104.499 31.53 104.549 31.66 104.642 31.74C104.736 31.82 104.852 31.86 104.992 31.86C105.132 31.86 105.269 31.8367 105.402 31.79C105.536 31.7433 105.642 31.7033 105.722 31.67L105.992 32.73ZM109.042 33.1C108.615 33.1 108.232 33.03 107.892 32.89C107.552 32.7433 107.262 32.5433 107.022 32.29C106.788 32.0367 106.608 31.7467 106.482 31.42C106.355 31.0933 106.292 30.75 106.292 30.39C106.292 30.0233 106.355 29.6767 106.482 29.35C106.608 29.0233 106.788 28.7333 107.022 28.48C107.262 28.2267 107.552 28.03 107.892 27.89C108.232 27.7433 108.615 27.67 109.042 27.67C109.468 27.67 109.848 27.7433 110.182 27.89C110.522 28.03 110.812 28.2267 111.052 28.48C111.292 28.7333 111.472 29.0233 111.592 29.35C111.718 29.6767 111.782 30.0233 111.782 30.39C111.782 30.75 111.718 31.0933 111.592 31.42C111.472 31.7467 111.292 32.0367 111.052 32.29C110.818 32.5433 110.532 32.7433 110.192 32.89C109.852 33.03 109.468 33.1 109.042 33.1ZM107.672 30.39C107.672 30.6967 107.732 30.97 107.852 31.21C107.972 31.4433 108.135 31.6267 108.342 31.76C108.548 31.8933 108.782 31.96 109.042 31.96C109.295 31.96 109.525 31.8933 109.732 31.76C109.938 31.62 110.102 31.4333 110.222 31.2C110.348 30.96 110.412 30.6867 110.412 30.38C110.412 30.08 110.348 29.81 110.222 29.57C110.102 29.33 109.938 29.1433 109.732 29.01C109.525 28.8767 109.295 28.81 109.042 28.81C108.782 28.81 108.548 28.88 108.342 29.02C108.135 29.1533 107.972 29.34 107.852 29.58C107.732 29.8133 107.672 30.0833 107.672 30.39ZM112.248 32.18L115.138 28.7H112.368V27.76H116.578V28.58L113.708 32.06H116.628V33H112.248V32.18ZM119.862 33.1C119.435 33.1 119.052 33.03 118.712 32.89C118.372 32.7433 118.082 32.5433 117.842 32.29C117.609 32.0367 117.429 31.7467 117.302 31.42C117.175 31.0933 117.112 30.75 117.112 30.39C117.112 30.0233 117.175 29.6767 117.302 29.35C117.429 29.0233 117.609 28.7333 117.842 28.48C118.082 28.2267 118.372 28.03 118.712 27.89C119.052 27.7433 119.435 27.67 119.862 27.67C120.289 27.67 120.669 27.7433 121.002 27.89C121.342 28.03 121.632 28.2267 121.872 28.48C122.112 28.7333 122.292 29.0233 122.412 29.35C122.539 29.6767 122.602 30.0233 122.602 30.39C122.602 30.75 122.539 31.0933 122.412 31.42C122.292 31.7467 122.112 32.0367 121.872 32.29C121.639 32.5433 121.352 32.7433 121.012 32.89C120.672 33.03 120.289 33.1 119.862 33.1ZM118.492 30.39C118.492 30.6967 118.552 30.97 118.672 31.21C118.792 31.4433 118.955 31.6267 119.162 31.76C119.369 31.8933 119.602 31.96 119.862 31.96C120.115 31.96 120.345 31.8933 120.552 31.76C120.759 31.62 120.922 31.4333 121.042 31.2C121.169 30.96 121.232 30.6867 121.232 30.38C121.232 30.08 121.169 29.81 121.042 29.57C120.922 29.33 120.759 29.1433 120.552 29.01C120.345 28.8767 120.115 28.81 119.862 28.81C119.602 28.81 119.369 28.88 119.162 29.02C118.955 29.1533 118.792 29.34 118.672 29.58C118.552 29.8133 118.492 30.0833 118.492 30.39ZM120.302 27.15L119.442 26.89L119.982 25.7H121.232L120.302 27.15ZM125.422 29.53C125.422 29.9767 125.355 30.43 125.222 30.89C125.089 31.35 124.909 31.8 124.682 32.24C124.455 32.68 124.202 33.11 123.922 33.53L122.942 33.04C123.309 32.42 123.605 31.82 123.832 31.24C124.059 30.6533 124.172 30.0933 124.172 29.56C124.172 29.22 124.125 28.8667 124.032 28.5C123.945 28.1333 123.832 27.78 123.692 27.44C123.559 27.0933 123.422 26.7833 123.282 26.51C123.142 26.2367 123.019 26.02 122.912 25.86L123.942 25.43C124.355 26.1367 124.705 26.83 124.992 27.51C125.279 28.1833 125.422 28.8567 125.422 29.53Z" fill="#FDFDFD"/>
</g>
<defs>
<filter id="filter0_d_1_1185" x="0" y="0" width="138" height="48" filterUnits="userSpaceOnUse" color-interpolation-filters="sRGB">
<feFlood flood-opacity="0" result="BackgroundImageFix"/>
<feColorMatrix in="SourceAlpha" type="matrix" values="0 0 0 0 0 0 0 0 0 0 0 0 0 0 0 0 0 0 127 0" result="hardAlpha"/>
<feOffset dy="2"/>
<feGaussianBlur stdDeviation="2"/>
<feComposite in2="hardAlpha" operator="out"/>
<feColorMatrix type="matrix" values="0 0 0 0 0 0 0 0 0 0 0 0 0 0 0 0 0 0 0.15 0"/>
<feBlend mode="normal" in2="BackgroundImageFix" result="effect1_dropShadow_1_1185"/>
<feBlend mode="normal" in="SourceGraphic" in2="effect1_dropShadow_1_1185" result="shape"/>
</filter>
</defs>
</svg>
