<svg width="138" height="48" viewBox="0 0 138 48" fill="none" xmlns="http://www.w3.org/2000/svg">
<g filter="url(#filter0_d_111_28)">
<rect x="4.5" y="2.5" width="129" height="39" rx="5.5" fill="#FDFDFD" stroke="#50A021"/>
<path d="M47.6013 9.06H49.5613L53.2153 19H51.2273L50.3033 16.522H46.8313L45.9213 19H43.9333L47.6013 9.06ZM49.9533 15.164L48.5813 11.062L47.1533 15.164H49.9533ZM53.4705 15.332C53.4705 14.6227 53.6105 13.9833 53.8905 13.414C54.1705 12.8353 54.5578 12.378 55.0525 12.042C55.5471 11.706 56.1118 11.538 56.7465 11.538C57.2878 11.538 57.7731 11.6733 58.2025 11.944C58.6411 12.2053 58.9818 12.5413 59.2245 12.952V8.78H61.1005V16.9C61.1005 17.096 61.1331 17.236 61.1985 17.32C61.2638 17.404 61.3758 17.4553 61.5345 17.474V19C61.2078 19.0653 60.9418 19.098 60.7365 19.098C60.4005 19.098 60.1205 19.014 59.8965 18.846C59.6818 18.678 59.5605 18.4587 59.5325 18.188L59.5045 17.726C59.2338 18.1833 58.8651 18.5333 58.3985 18.776C57.9411 19.0187 57.4605 19.14 56.9565 19.14C56.4525 19.14 55.9858 19.042 55.5565 18.846C55.1365 18.65 54.7678 18.3793 54.4505 18.034C54.1425 17.6887 53.8998 17.2873 53.7225 16.83C53.5545 16.3633 53.4705 15.864 53.4705 15.332ZM59.2245 16.312V14.562C59.1311 14.2913 58.9818 14.0487 58.7765 13.834C58.5711 13.6193 58.3425 13.4513 58.0905 13.33C57.8385 13.1993 57.5865 13.134 57.3345 13.134C57.0451 13.134 56.7838 13.1947 56.5505 13.316C56.3171 13.4373 56.1118 13.6007 55.9345 13.806C55.7665 14.0113 55.6358 14.2493 55.5425 14.52C55.4585 14.7907 55.4165 15.0753 55.4165 15.374C55.4165 15.6727 55.4631 15.9573 55.5565 16.228C55.6591 16.4893 55.8038 16.718 55.9905 16.914C56.1771 17.11 56.3918 17.264 56.6345 17.376C56.8865 17.488 57.1571 17.544 57.4465 17.544C57.6238 17.544 57.8011 17.516 57.9785 17.46C58.1651 17.3947 58.3378 17.3107 58.4965 17.208C58.6645 17.096 58.8091 16.9653 58.9305 16.816C59.0611 16.6573 59.1591 16.4893 59.2245 16.312ZM73.1232 19H71.2472V14.884C71.2472 14.3147 71.1352 13.89 70.9112 13.61C70.6965 13.33 70.3978 13.19 70.0152 13.19C69.7912 13.19 69.5532 13.2553 69.3012 13.386C69.0492 13.5167 68.8205 13.6987 68.6152 13.932C68.4192 14.156 68.2745 14.4173 68.1812 14.716V19H66.3052V8.78H68.1812V13.022C68.4518 12.5553 68.8205 12.1913 69.2872 11.93C69.7538 11.6687 70.2625 11.538 70.8132 11.538C71.2892 11.538 71.6765 11.622 71.9752 11.79C72.2738 11.9487 72.5072 12.168 72.6752 12.448C72.8432 12.7187 72.9598 13.0267 73.0252 13.372C73.0905 13.708 73.1232 14.058 73.1232 14.422V19ZM78.1424 19.14C77.5451 19.14 77.0084 19.042 76.5324 18.846C76.0564 18.6407 75.6504 18.3607 75.3144 18.006C74.9877 17.6513 74.7357 17.2453 74.5584 16.788C74.3811 16.3307 74.2924 15.85 74.2924 15.346C74.2924 14.8327 74.3811 14.3473 74.5584 13.89C74.7357 13.4327 74.9877 13.0267 75.3144 12.672C75.6504 12.3173 76.0564 12.042 76.5324 11.846C77.0084 11.6407 77.5451 11.538 78.1424 11.538C78.7397 11.538 79.2717 11.6407 79.7384 11.846C80.2144 12.042 80.6204 12.3173 80.9564 12.672C81.2924 13.0267 81.5444 13.4327 81.7124 13.89C81.8897 14.3473 81.9784 14.8327 81.9784 15.346C81.9784 15.85 81.8897 16.3307 81.7124 16.788C81.5444 17.2453 81.2924 17.6513 80.9564 18.006C80.6297 18.3607 80.2284 18.6407 79.7524 18.846C79.2764 19.042 78.7397 19.14 78.1424 19.14ZM76.2244 15.346C76.2244 15.7753 76.3084 16.158 76.4764 16.494C76.6444 16.8207 76.8731 17.0773 77.1624 17.264C77.4517 17.4507 77.7784 17.544 78.1424 17.544C78.4971 17.544 78.8191 17.4507 79.1084 17.264C79.3977 17.068 79.6264 16.8067 79.7944 16.48C79.9717 16.144 80.0604 15.7613 80.0604 15.332C80.0604 14.912 79.9717 14.534 79.7944 14.198C79.6264 13.862 79.3977 13.6007 79.1084 13.414C78.8191 13.2273 78.4971 13.134 78.1424 13.134C77.7784 13.134 77.4517 13.232 77.1624 13.428C76.8731 13.6147 76.6444 13.876 76.4764 14.212C76.3084 14.5387 76.2244 14.9167 76.2244 15.346ZM86.6606 19.14C86.0633 19.14 85.5266 19.042 85.0506 18.846C84.5746 18.6407 84.1686 18.3607 83.8326 18.006C83.4966 17.642 83.2353 17.2313 83.0486 16.774C82.8713 16.3167 82.7826 15.836 82.7826 15.332C82.7826 14.6413 82.9366 14.0113 83.2446 13.442C83.562 12.8633 84.01 12.4013 84.5886 12.056C85.1673 11.7107 85.8533 11.538 86.6466 11.538C87.44 11.538 88.1213 11.7107 88.6906 12.056C89.26 12.4013 89.6846 12.854 89.9646 13.414L88.1306 13.974C87.972 13.7033 87.762 13.498 87.5006 13.358C87.2393 13.2087 86.95 13.134 86.6326 13.134C86.278 13.134 85.9513 13.2273 85.6526 13.414C85.3633 13.5913 85.1346 13.848 84.9666 14.184C84.7986 14.5107 84.7146 14.8933 84.7146 15.332C84.7146 15.7613 84.7986 16.144 84.9666 16.48C85.144 16.8067 85.3773 17.068 85.6666 17.264C85.956 17.4507 86.278 17.544 86.6326 17.544C86.8566 17.544 87.0666 17.5067 87.2626 17.432C87.468 17.3573 87.65 17.2547 87.8086 17.124C87.9673 16.9933 88.084 16.844 88.1586 16.676L89.9926 17.236C89.8246 17.6 89.5773 17.9267 89.2506 18.216C88.9333 18.5053 88.5553 18.734 88.1166 18.902C87.6873 19.0607 87.202 19.14 86.6606 19.14ZM12.5724 29.53C12.5724 28.8567 12.7158 28.1833 13.0024 27.51C13.2891 26.83 13.6424 26.1367 14.0624 25.43L15.0824 25.86C14.9824 26.02 14.8591 26.2367 14.7124 26.51C14.5724 26.7833 14.4324 27.0933 14.2924 27.44C14.1591 27.78 14.0458 28.1333 13.9524 28.5C13.8658 28.8667 13.8224 29.22 13.8224 29.56C13.8224 30.0933 13.9358 30.6533 14.1624 31.24C14.3958 31.82 14.6924 32.42 15.0524 33.04L14.0724 33.53C13.7991 33.11 13.5458 32.68 13.3124 32.24C13.0858 31.8 12.9058 31.35 12.7724 30.89C12.6391 30.43 12.5724 29.9767 12.5724 29.53ZM17.8681 33.1C17.4215 33.1 16.9948 33.0267 16.5881 32.88C16.1815 32.7333 15.8315 32.5167 15.5381 32.23L16.0181 31.36C16.3315 31.6133 16.6381 31.8 16.9381 31.92C17.2448 32.04 17.5381 32.1 17.8181 32.1C18.0781 32.1 18.2848 32.0533 18.4381 31.96C18.5981 31.8667 18.6781 31.7267 18.6781 31.54C18.6781 31.4133 18.6348 31.3167 18.5481 31.25C18.4615 31.1767 18.3348 31.1133 18.1681 31.06C18.0081 31.0067 17.8115 30.9467 17.5781 30.88C17.1915 30.7533 16.8681 30.63 16.6081 30.51C16.3481 30.39 16.1515 30.24 16.0181 30.06C15.8915 29.8733 15.8281 29.6367 15.8281 29.35C15.8281 29.0033 15.9148 28.7067 16.0881 28.46C16.2681 28.2067 16.5148 28.01 16.8281 27.87C17.1481 27.73 17.5215 27.66 17.9481 27.66C18.3215 27.66 18.6748 27.72 19.0081 27.84C19.3415 27.9533 19.6448 28.14 19.9181 28.4L19.3781 29.25C19.1115 29.0433 18.8581 28.8933 18.6181 28.8C18.3781 28.7 18.1348 28.65 17.8881 28.65C17.7481 28.65 17.6148 28.6667 17.4881 28.7C17.3681 28.7333 17.2681 28.79 17.1881 28.87C17.1148 28.9433 17.0781 29.05 17.0781 29.19C17.0781 29.3167 17.1115 29.4167 17.1781 29.49C17.2515 29.5567 17.3581 29.6167 17.4981 29.67C17.6448 29.7233 17.8215 29.7833 18.0281 29.85C18.4481 29.97 18.8015 30.0933 19.0881 30.22C19.3815 30.3467 19.6015 30.5033 19.7481 30.69C19.8948 30.87 19.9681 31.12 19.9681 31.44C19.9681 31.96 19.7781 32.3667 19.3981 32.66C19.0181 32.9533 18.5081 33.1 17.8681 33.1ZM23.2995 33.1C22.8729 33.1 22.4895 33.03 22.1495 32.89C21.8095 32.7433 21.5195 32.5433 21.2795 32.29C21.0462 32.0367 20.8662 31.7467 20.7395 31.42C20.6129 31.0933 20.5495 30.75 20.5495 30.39C20.5495 30.0233 20.6129 29.6767 20.7395 29.35C20.8662 29.0233 21.0462 28.7333 21.2795 28.48C21.5195 28.2267 21.8095 28.03 22.1495 27.89C22.4895 27.7433 22.8729 27.67 23.2995 27.67C23.7262 27.67 24.1062 27.7433 24.4395 27.89C24.7795 28.03 25.0695 28.2267 25.3095 28.48C25.5495 28.7333 25.7295 29.0233 25.8495 29.35C25.9762 29.6767 26.0395 30.0233 26.0395 30.39C26.0395 30.75 25.9762 31.0933 25.8495 31.42C25.7295 31.7467 25.5495 32.0367 25.3095 32.29C25.0762 32.5433 24.7895 32.7433 24.4495 32.89C24.1095 33.03 23.7262 33.1 23.2995 33.1ZM21.9295 30.39C21.9295 30.6967 21.9895 30.97 22.1095 31.21C22.2295 31.4433 22.3929 31.6267 22.5995 31.76C22.8062 31.8933 23.0395 31.96 23.2995 31.96C23.5529 31.96 23.7829 31.8933 23.9895 31.76C24.1962 31.62 24.3595 31.4333 24.4795 31.2C24.6062 30.96 24.6695 30.6867 24.6695 30.38C24.6695 30.08 24.6062 29.81 24.4795 29.57C24.3595 29.33 24.1962 29.1433 23.9895 29.01C23.7829 28.8767 23.5529 28.81 23.2995 28.81C23.0395 28.81 22.8062 28.88 22.5995 29.02C22.3929 29.1533 22.2295 29.34 22.1095 29.58C21.9895 29.8133 21.9295 30.0833 21.9295 30.39ZM30.064 28.92C29.6573 28.92 29.294 29 28.974 29.16C28.654 29.3133 28.424 29.5367 28.284 29.83V33H26.944V27.76H28.174V28.88C28.3607 28.52 28.5973 28.2367 28.884 28.03C29.1707 27.8233 29.474 27.71 29.794 27.69C29.8673 27.69 29.924 27.69 29.964 27.69C30.004 27.69 30.0373 27.6933 30.064 27.7V28.92ZM33.1628 33.1C32.7361 33.1 32.3528 33.03 32.0128 32.89C31.6728 32.7433 31.3828 32.5433 31.1428 32.29C30.9095 32.0367 30.7295 31.7467 30.6028 31.42C30.4761 31.0933 30.4128 30.75 30.4128 30.39C30.4128 30.0233 30.4761 29.6767 30.6028 29.35C30.7295 29.0233 30.9095 28.7333 31.1428 28.48C31.3828 28.2267 31.6728 28.03 32.0128 27.89C32.3528 27.7433 32.7361 27.67 33.1628 27.67C33.5895 27.67 33.9695 27.7433 34.3028 27.89C34.6428 28.03 34.9328 28.2267 35.1728 28.48C35.4128 28.7333 35.5928 29.0233 35.7128 29.35C35.8395 29.6767 35.9028 30.0233 35.9028 30.39C35.9028 30.75 35.8395 31.0933 35.7128 31.42C35.5928 31.7467 35.4128 32.0367 35.1728 32.29C34.9395 32.5433 34.6528 32.7433 34.3128 32.89C33.9728 33.03 33.5895 33.1 33.1628 33.1ZM31.7928 30.39C31.7928 30.6967 31.8528 30.97 31.9728 31.21C32.0928 31.4433 32.2561 31.6267 32.4628 31.76C32.6695 31.8933 32.9028 31.96 33.1628 31.96C33.4161 31.96 33.6461 31.8933 33.8528 31.76C34.0595 31.62 34.2228 31.4333 34.3428 31.2C34.4695 30.96 34.5328 30.6867 34.5328 30.38C34.5328 30.08 34.4695 29.81 34.3428 29.57C34.2228 29.33 34.0595 29.1433 33.8528 29.01C33.6461 28.8767 33.4161 28.81 33.1628 28.81C32.9028 28.81 32.6695 28.88 32.4628 29.02C32.2561 29.1533 32.0928 29.34 31.9728 29.58C31.8528 29.8133 31.7928 30.0833 31.7928 30.39ZM36.3694 32.18L39.2594 28.7H36.4894V27.76H40.6994V28.58L37.8294 32.06H40.7494V33H36.3694V32.18ZM41.291 31.45C41.291 31.11 41.3843 30.8133 41.571 30.56C41.7643 30.3 42.031 30.1 42.371 29.96C42.711 29.82 43.101 29.75 43.541 29.75C43.761 29.75 43.9843 29.7667 44.211 29.8C44.4377 29.8333 44.6343 29.8867 44.801 29.96V29.68C44.801 29.3467 44.701 29.09 44.501 28.91C44.3077 28.73 44.0177 28.64 43.631 28.64C43.3443 28.64 43.071 28.69 42.811 28.79C42.551 28.89 42.2777 29.0367 41.991 29.23L41.561 28.35C41.9077 28.1233 42.261 27.9533 42.621 27.84C42.9877 27.7267 43.371 27.67 43.771 27.67C44.5177 27.67 45.0977 27.8567 45.511 28.23C45.931 28.6033 46.141 29.1367 46.141 29.83V31.5C46.141 31.64 46.1643 31.74 46.211 31.8C46.2643 31.86 46.3477 31.8967 46.461 31.91V33C46.341 33.02 46.231 33.0367 46.131 33.05C46.0377 33.0633 45.9577 33.07 45.891 33.07C45.6243 33.07 45.421 33.01 45.281 32.89C45.1477 32.77 45.0643 32.6233 45.031 32.45L45.001 32.18C44.7743 32.4733 44.491 32.7 44.151 32.86C43.811 33.02 43.4643 33.1 43.111 33.1C42.7643 33.1 42.451 33.03 42.171 32.89C41.8977 32.7433 41.681 32.5467 41.521 32.3C41.3677 32.0467 41.291 31.7633 41.291 31.45ZM44.551 31.72C44.6243 31.64 44.6843 31.56 44.731 31.48C44.7777 31.4 44.801 31.3267 44.801 31.26V30.73C44.641 30.6633 44.4677 30.6133 44.281 30.58C44.0943 30.54 43.9177 30.52 43.751 30.52C43.4043 30.52 43.1177 30.5967 42.891 30.75C42.671 30.8967 42.561 31.0933 42.561 31.34C42.561 31.4733 42.5977 31.6 42.671 31.72C42.7443 31.84 42.851 31.9367 42.991 32.01C43.131 32.0833 43.2977 32.12 43.491 32.12C43.691 32.12 43.8877 32.0833 44.081 32.01C44.2743 31.93 44.431 31.8333 44.551 31.72ZM50.4844 32.73C50.371 32.7767 50.2344 32.83 50.0744 32.89C49.9144 32.95 49.741 32.9967 49.5544 33.03C49.3744 33.07 49.191 33.09 49.0044 33.09C48.7577 33.09 48.531 33.0467 48.3244 32.96C48.1177 32.8733 47.951 32.7367 47.8244 32.55C47.7044 32.3567 47.6444 32.1067 47.6444 31.8V28.79H46.9544V27.76H47.6444V26.06H48.9844V27.76H50.0844V28.79H48.9844V31.35C48.991 31.53 49.041 31.66 49.1344 31.74C49.2277 31.82 49.3444 31.86 49.4844 31.86C49.6244 31.86 49.761 31.8367 49.8944 31.79C50.0277 31.7433 50.1344 31.7033 50.2144 31.67L50.4844 32.73ZM54.1623 33.1C53.7623 33.1 53.4056 33.01 53.0923 32.83C52.7789 32.65 52.5323 32.4033 52.3523 32.09V33H51.1823V25.7H52.5223V28.68C52.7089 28.3667 52.9523 28.12 53.2523 27.94C53.5589 27.76 53.9156 27.67 54.3223 27.67C54.6623 27.67 54.9723 27.7433 55.2523 27.89C55.5323 28.03 55.7723 28.2267 55.9723 28.48C56.1789 28.7333 56.3356 29.0233 56.4423 29.35C56.5556 29.6767 56.6123 30.0267 56.6123 30.4C56.6123 30.7733 56.5489 31.1233 56.4223 31.45C56.3023 31.7767 56.1323 32.0667 55.9123 32.32C55.6923 32.5667 55.4323 32.76 55.1323 32.9C54.8389 33.0333 54.5156 33.1 54.1623 33.1ZM53.7923 31.96C54.0056 31.96 54.1989 31.92 54.3723 31.84C54.5523 31.7533 54.7056 31.64 54.8323 31.5C54.9656 31.36 55.0656 31.1967 55.1323 31.01C55.2056 30.8167 55.2423 30.6167 55.2423 30.41C55.2423 30.1233 55.1823 29.86 55.0623 29.62C54.9489 29.3733 54.7889 29.1767 54.5823 29.03C54.3823 28.8833 54.1456 28.81 53.8723 28.81C53.6789 28.81 53.4923 28.8567 53.3123 28.95C53.1389 29.0367 52.9823 29.1567 52.8423 29.31C52.7089 29.4633 52.6023 29.6367 52.5223 29.83V31.08C52.5623 31.2133 52.6256 31.3333 52.7123 31.44C52.8056 31.5467 52.9123 31.64 53.0323 31.72C53.1523 31.7933 53.2756 31.8533 53.4023 31.9C53.5356 31.94 53.6656 31.96 53.7923 31.96ZM57.1602 31.45C57.1602 31.11 57.2535 30.8133 57.4402 30.56C57.6335 30.3 57.9002 30.1 58.2402 29.96C58.5802 29.82 58.9702 29.75 59.4102 29.75C59.6302 29.75 59.8535 29.7667 60.0802 29.8C60.3068 29.8333 60.5035 29.8867 60.6702 29.96V29.68C60.6702 29.3467 60.5702 29.09 60.3702 28.91C60.1768 28.73 59.8868 28.64 59.5002 28.64C59.2135 28.64 58.9402 28.69 58.6802 28.79C58.4202 28.89 58.1468 29.0367 57.8602 29.23L57.4302 28.35C57.7768 28.1233 58.1302 27.9533 58.4902 27.84C58.8568 27.7267 59.2402 27.67 59.6402 27.67C60.3868 27.67 60.9668 27.8567 61.3802 28.23C61.8002 28.6033 62.0102 29.1367 62.0102 29.83V31.5C62.0102 31.64 62.0335 31.74 62.0802 31.8C62.1335 31.86 62.2168 31.8967 62.3302 31.91V33C62.2102 33.02 62.1002 33.0367 62.0002 33.05C61.9068 33.0633 61.8268 33.07 61.7602 33.07C61.4935 33.07 61.2902 33.01 61.1502 32.89C61.0168 32.77 60.9335 32.6233 60.9002 32.45L60.8702 32.18C60.6435 32.4733 60.3602 32.7 60.0202 32.86C59.6802 33.02 59.3335 33.1 58.9802 33.1C58.6335 33.1 58.3202 33.03 58.0402 32.89C57.7668 32.7433 57.5502 32.5467 57.3902 32.3C57.2368 32.0467 57.1602 31.7633 57.1602 31.45ZM60.4202 31.72C60.4935 31.64 60.5535 31.56 60.6002 31.48C60.6468 31.4 60.6702 31.3267 60.6702 31.26V30.73C60.5102 30.6633 60.3368 30.6133 60.1502 30.58C59.9635 30.54 59.7868 30.52 59.6202 30.52C59.2735 30.52 58.9868 30.5967 58.7602 30.75C58.5402 30.8967 58.4302 31.0933 58.4302 31.34C58.4302 31.4733 58.4668 31.6 58.5402 31.72C58.6135 31.84 58.7202 31.9367 58.8602 32.01C59.0002 32.0833 59.1668 32.12 59.3602 32.12C59.5602 32.12 59.7568 32.0833 59.9502 32.01C60.1435 31.93 60.3002 31.8333 60.4202 31.72ZM70.5347 33H69.1947V30.06C69.1947 29.64 69.1214 29.3333 68.9747 29.14C68.828 28.9467 68.6247 28.85 68.3647 28.85C68.1847 28.85 68.0014 28.8967 67.8147 28.99C67.6347 29.0833 67.4714 29.2133 67.3247 29.38C67.178 29.54 67.0714 29.7267 67.0047 29.94V33H65.6647V27.76H66.8747V28.73C67.008 28.5033 67.178 28.3133 67.3847 28.16C67.5914 28 67.828 27.88 68.0947 27.8C68.368 27.7133 68.6547 27.67 68.9547 27.67C69.2814 27.67 69.548 27.73 69.7547 27.85C69.968 27.9633 70.128 28.12 70.2347 28.32C70.348 28.5133 70.4247 28.7333 70.4647 28.98C70.5114 29.2267 70.5347 29.4767 70.5347 29.73V33ZM74.1298 33.1C73.7098 33.1 73.3298 33.03 72.9898 32.89C72.6498 32.7433 72.3598 32.5467 72.1198 32.3C71.8798 32.0467 71.6932 31.76 71.5598 31.44C71.4332 31.1133 71.3698 30.77 71.3698 30.41C71.3698 29.91 71.4798 29.4533 71.6998 29.04C71.9265 28.6267 72.2465 28.2967 72.6598 28.05C73.0798 27.7967 73.5732 27.67 74.1398 27.67C74.7132 27.67 75.2032 27.7967 75.6098 28.05C76.0165 28.2967 76.3265 28.6267 76.5398 29.04C76.7598 29.4467 76.8698 29.8867 76.8698 30.36C76.8698 30.44 76.8665 30.5233 76.8598 30.61C76.8532 30.69 76.8465 30.7567 76.8398 30.81H72.7898C72.8165 31.0767 72.8932 31.31 73.0198 31.51C73.1532 31.71 73.3198 31.8633 73.5198 31.97C73.7265 32.07 73.9465 32.12 74.1798 32.12C74.4465 32.12 74.6965 32.0567 74.9298 31.93C75.1698 31.7967 75.3332 31.6233 75.4198 31.41L76.5698 31.73C76.4432 31.9967 76.2598 32.2333 76.0198 32.44C75.7865 32.6467 75.5098 32.81 75.1898 32.93C74.8698 33.0433 74.5165 33.1 74.1298 33.1ZM72.7598 29.96H75.4998C75.4732 29.6933 75.3965 29.4633 75.2698 29.27C75.1498 29.07 74.9898 28.9167 74.7898 28.81C74.5898 28.6967 74.3665 28.64 74.1198 28.64C73.8798 28.64 73.6598 28.6967 73.4598 28.81C73.2665 28.9167 73.1065 29.07 72.9798 29.27C72.8598 29.4633 72.7865 29.6933 72.7598 29.96ZM85.8262 33H84.4862V30.06C84.4862 29.6467 84.4128 29.3433 84.2662 29.15C84.1262 28.95 83.9295 28.85 83.6762 28.85C83.4162 28.85 83.1662 28.9533 82.9262 29.16C82.6928 29.36 82.5262 29.6233 82.4262 29.95V33H81.0862V30.06C81.0862 29.64 81.0128 29.3333 80.8662 29.14C80.7262 28.9467 80.5295 28.85 80.2762 28.85C80.0162 28.85 79.7662 28.95 79.5262 29.15C79.2928 29.35 79.1262 29.6133 79.0262 29.94V33H77.6862V27.76H78.8962V28.73C79.0962 28.39 79.3628 28.13 79.6962 27.95C80.0295 27.7633 80.4128 27.67 80.8462 27.67C81.2795 27.67 81.6162 27.7767 81.8562 27.99C82.1028 28.2033 82.2595 28.4667 82.3262 28.78C82.5395 28.42 82.8095 28.1467 83.1362 27.96C83.4695 27.7667 83.8428 27.67 84.2562 27.67C84.5828 27.67 84.8462 27.73 85.0462 27.85C85.2528 27.9633 85.4128 28.12 85.5262 28.32C85.6395 28.5133 85.7162 28.7333 85.7562 28.98C85.8028 29.2267 85.8262 29.4767 85.8262 29.73V33ZM92.5352 32.73C92.4218 32.7767 92.2852 32.83 92.1252 32.89C91.9652 32.95 91.7918 32.9967 91.6052 33.03C91.4252 33.07 91.2418 33.09 91.0552 33.09C90.8085 33.09 90.5818 33.0467 90.3752 32.96C90.1685 32.8733 90.0018 32.7367 89.8752 32.55C89.7552 32.3567 89.6952 32.1067 89.6952 31.8V28.79H89.0052V27.76H89.6952V26.06H91.0352V27.76H92.1352V28.79H91.0352V31.35C91.0418 31.53 91.0918 31.66 91.1852 31.74C91.2785 31.82 91.3952 31.86 91.5352 31.86C91.6752 31.86 91.8118 31.8367 91.9452 31.79C92.0785 31.7433 92.1852 31.7033 92.2652 31.67L92.5352 32.73ZM92.873 31.45C92.873 31.11 92.9664 30.8133 93.153 30.56C93.3464 30.3 93.613 30.1 93.953 29.96C94.293 29.82 94.683 29.75 95.123 29.75C95.343 29.75 95.5664 29.7667 95.793 29.8C96.0197 29.8333 96.2164 29.8867 96.383 29.96V29.68C96.383 29.3467 96.283 29.09 96.083 28.91C95.8897 28.73 95.5997 28.64 95.213 28.64C94.9264 28.64 94.653 28.69 94.393 28.79C94.133 28.89 93.8597 29.0367 93.573 29.23L93.143 28.35C93.4897 28.1233 93.843 27.9533 94.203 27.84C94.5697 27.7267 94.953 27.67 95.353 27.67C96.0997 27.67 96.6797 27.8567 97.093 28.23C97.513 28.6033 97.723 29.1367 97.723 29.83V31.5C97.723 31.64 97.7464 31.74 97.793 31.8C97.8464 31.86 97.9297 31.8967 98.043 31.91V33C97.923 33.02 97.813 33.0367 97.713 33.05C97.6197 33.0633 97.5397 33.07 97.473 33.07C97.2064 33.07 97.003 33.01 96.863 32.89C96.7297 32.77 96.6464 32.6233 96.613 32.45L96.583 32.18C96.3564 32.4733 96.073 32.7 95.733 32.86C95.393 33.02 95.0464 33.1 94.693 33.1C94.3464 33.1 94.033 33.03 93.753 32.89C93.4797 32.7433 93.263 32.5467 93.103 32.3C92.9497 32.0467 92.873 31.7633 92.873 31.45ZM96.133 31.72C96.2064 31.64 96.2664 31.56 96.313 31.48C96.3597 31.4 96.383 31.3267 96.383 31.26V30.73C96.223 30.6633 96.0497 30.6133 95.863 30.58C95.6764 30.54 95.4997 30.52 95.333 30.52C94.9864 30.52 94.6997 30.5967 94.473 30.75C94.253 30.8967 94.143 31.0933 94.143 31.34C94.143 31.4733 94.1797 31.6 94.253 31.72C94.3264 31.84 94.433 31.9367 94.573 32.01C94.713 32.0833 94.8797 32.12 95.073 32.12C95.273 32.12 95.4697 32.0833 95.663 32.01C95.8564 31.93 96.013 31.8333 96.133 31.72ZM102.095 28.92C101.689 28.92 101.325 29 101.005 29.16C100.685 29.3133 100.455 29.5367 100.315 29.83V33H98.9752V27.76H100.205V28.88C100.392 28.52 100.629 28.2367 100.915 28.03C101.202 27.8233 101.505 27.71 101.825 27.69C101.899 27.69 101.955 27.69 101.995 27.69C102.035 27.69 102.069 27.6933 102.095 27.7V28.92ZM105.982 32.73C105.869 32.7767 105.732 32.83 105.572 32.89C105.412 32.95 105.239 32.9967 105.052 33.03C104.872 33.07 104.689 33.09 104.502 33.09C104.256 33.09 104.029 33.0467 103.822 32.96C103.616 32.8733 103.449 32.7367 103.322 32.55C103.202 32.3567 103.142 32.1067 103.142 31.8V28.79H102.452V27.76H103.142V26.06H104.482V27.76H105.582V28.79H104.482V31.35C104.489 31.53 104.539 31.66 104.632 31.74C104.726 31.82 104.842 31.86 104.982 31.86C105.122 31.86 105.259 31.8367 105.392 31.79C105.526 31.7433 105.632 31.7033 105.712 31.67L105.982 32.73ZM109.042 33.1C108.615 33.1 108.232 33.03 107.892 32.89C107.552 32.7433 107.262 32.5433 107.022 32.29C106.788 32.0367 106.608 31.7467 106.482 31.42C106.355 31.0933 106.292 30.75 106.292 30.39C106.292 30.0233 106.355 29.6767 106.482 29.35C106.608 29.0233 106.788 28.7333 107.022 28.48C107.262 28.2267 107.552 28.03 107.892 27.89C108.232 27.7433 108.615 27.67 109.042 27.67C109.468 27.67 109.848 27.7433 110.182 27.89C110.522 28.03 110.812 28.2267 111.052 28.48C111.292 28.7333 111.472 29.0233 111.592 29.35C111.718 29.6767 111.782 30.0233 111.782 30.39C111.782 30.75 111.718 31.0933 111.592 31.42C111.472 31.7467 111.292 32.0367 111.052 32.29C110.818 32.5433 110.532 32.7433 110.192 32.89C109.852 33.03 109.468 33.1 109.042 33.1ZM107.672 30.39C107.672 30.6967 107.732 30.97 107.852 31.21C107.972 31.4433 108.135 31.6267 108.342 31.76C108.548 31.8933 108.782 31.96 109.042 31.96C109.295 31.96 109.525 31.8933 109.732 31.76C109.938 31.62 110.102 31.4333 110.222 31.2C110.348 30.96 110.412 30.6867 110.412 30.38C110.412 30.08 110.348 29.81 110.222 29.57C110.102 29.33 109.938 29.1433 109.732 29.01C109.525 28.8767 109.295 28.81 109.042 28.81C108.782 28.81 108.548 28.88 108.342 29.02C108.135 29.1533 107.972 29.34 107.852 29.58C107.732 29.8133 107.672 30.0833 107.672 30.39ZM112.248 32.18L115.138 28.7H112.368V27.76H116.578V28.58L113.708 32.06H116.628V33H112.248V32.18ZM119.862 33.1C119.435 33.1 119.052 33.03 118.712 32.89C118.372 32.7433 118.082 32.5433 117.842 32.29C117.609 32.0367 117.429 31.7467 117.302 31.42C117.175 31.0933 117.112 30.75 117.112 30.39C117.112 30.0233 117.175 29.6767 117.302 29.35C117.429 29.0233 117.609 28.7333 117.842 28.48C118.082 28.2267 118.372 28.03 118.712 27.89C119.052 27.7433 119.435 27.67 119.862 27.67C120.289 27.67 120.669 27.7433 121.002 27.89C121.342 28.03 121.632 28.2267 121.872 28.48C122.112 28.7333 122.292 29.0233 122.412 29.35C122.539 29.6767 122.602 30.0233 122.602 30.39C122.602 30.75 122.539 31.0933 122.412 31.42C122.292 31.7467 122.112 32.0367 121.872 32.29C121.639 32.5433 121.352 32.7433 121.012 32.89C120.672 33.03 120.289 33.1 119.862 33.1ZM118.492 30.39C118.492 30.6967 118.552 30.97 118.672 31.21C118.792 31.4433 118.955 31.6267 119.162 31.76C119.369 31.8933 119.602 31.96 119.862 31.96C120.115 31.96 120.345 31.8933 120.552 31.76C120.759 31.62 120.922 31.4333 121.042 31.2C121.169 30.96 121.232 30.6867 121.232 30.38C121.232 30.08 121.169 29.81 121.042 29.57C120.922 29.33 120.759 29.1433 120.552 29.01C120.345 28.8767 120.115 28.81 119.862 28.81C119.602 28.81 119.369 28.88 119.162 29.02C118.955 29.1533 118.792 29.34 118.672 29.58C118.552 29.8133 118.492 30.0833 118.492 30.39ZM120.302 27.15L119.442 26.89L119.982 25.7H121.232L120.302 27.15ZM125.432 29.53C125.432 29.9767 125.365 30.43 125.232 30.89C125.098 31.35 124.918 31.8 124.692 32.24C124.465 32.68 124.212 33.11 123.932 33.53L122.952 33.04C123.318 32.42 123.615 31.82 123.842 31.24C124.068 30.6533 124.182 30.0933 124.182 29.56C124.182 29.22 124.135 28.8667 124.042 28.5C123.955 28.1333 123.842 27.78 123.702 27.44C123.568 27.0933 123.432 26.7833 123.292 26.51C123.152 26.2367 123.028 26.02 122.922 25.86L123.952 25.43C124.365 26.1367 124.715 26.83 125.002 27.51C125.288 28.1833 125.432 28.8567 125.432 29.53Z" fill="#50A021"/>
</g>
<defs>
<filter id="filter0_d_111_28" x="0" y="0" width="138" height="48" filterUnits="userSpaceOnUse" color-interpolation-filters="sRGB">
<feFlood flood-opacity="0" result="BackgroundImageFix"/>
<feColorMatrix in="SourceAlpha" type="matrix" values="0 0 0 0 0 0 0 0 0 0 0 0 0 0 0 0 0 0 127 0" result="hardAlpha"/>
<feOffset dy="2"/>
<feGaussianBlur stdDeviation="2"/>
<feComposite in2="hardAlpha" operator="out"/>
<feColorMatrix type="matrix" values="0 0 0 0 0 0 0 0 0 0 0 0 0 0 0 0 0 0 0.15 0"/>
<feBlend mode="normal" in2="BackgroundImageFix" result="effect1_dropShadow_111_28"/>
<feBlend mode="normal" in="SourceGraphic" in2="effect1_dropShadow_111_28" result="shape"/>
</filter>
</defs>
</svg>
