<svg width="138" height="48" viewBox="0 0 138 48" fill="none" xmlns="http://www.w3.org/2000/svg">
<g filter="url(#filter0_d_1_1188)">
<rect x="4.5" y="2.5" width="129" height="39" rx="5.5" fill="#50A021" stroke="#50A021"/>
<path d="M24.3557 12.616V19H22.4237V9.06H23.9637L29.1017 15.612V9.074H31.0337V19H29.4237L24.3557 12.616ZM32.3334 16.83C32.3334 16.354 32.4641 15.9387 32.7254 15.584C32.9961 15.22 33.3694 14.94 33.8454 14.744C34.3214 14.548 34.8674 14.45 35.4834 14.45C35.7914 14.45 36.1041 14.4733 36.4214 14.52C36.7387 14.5667 37.0141 14.6413 37.2474 14.744V14.352C37.2474 13.8853 37.1074 13.526 36.8274 13.274C36.5567 13.022 36.1507 12.896 35.6094 12.896C35.2081 12.896 34.8254 12.966 34.4614 13.106C34.0974 13.246 33.7147 13.4513 33.3134 13.722L32.7114 12.49C33.1967 12.1727 33.6914 11.9347 34.1954 11.776C34.7087 11.6173 35.2454 11.538 35.8054 11.538C36.8507 11.538 37.6627 11.7993 38.2414 12.322C38.8294 12.8447 39.1234 13.5913 39.1234 14.562V16.9C39.1234 17.096 39.1561 17.236 39.2214 17.32C39.2961 17.404 39.4127 17.4553 39.5714 17.474V19C39.4034 19.028 39.2494 19.0513 39.1094 19.07C38.9787 19.0887 38.8667 19.098 38.7734 19.098C38.4001 19.098 38.1154 19.014 37.9194 18.846C37.7327 18.678 37.6161 18.4727 37.5694 18.23L37.5274 17.852C37.2101 18.2627 36.8134 18.58 36.3374 18.804C35.8614 19.028 35.3761 19.14 34.8814 19.14C34.3961 19.14 33.9574 19.042 33.5654 18.846C33.1827 18.6407 32.8794 18.3653 32.6554 18.02C32.4407 17.6653 32.3334 17.2687 32.3334 16.83ZM36.8974 17.208C37.0001 17.096 37.0841 16.984 37.1494 16.872C37.2147 16.76 37.2474 16.6573 37.2474 16.564V15.822C37.0234 15.7287 36.7807 15.6587 36.5194 15.612C36.2581 15.556 36.0107 15.528 35.7774 15.528C35.2921 15.528 34.8907 15.6353 34.5734 15.85C34.2654 16.0553 34.1114 16.3307 34.1114 16.676C34.1114 16.8627 34.1627 17.04 34.2654 17.208C34.3681 17.376 34.5174 17.5113 34.7134 17.614C34.9094 17.7167 35.1427 17.768 35.4134 17.768C35.6934 17.768 35.9687 17.7167 36.2394 17.614C36.5101 17.502 36.7294 17.3667 36.8974 17.208ZM43.7465 19.042C43.2611 19.042 42.8131 18.9487 42.4025 18.762C42.0011 18.566 41.6511 18.2953 41.3525 17.95C41.0631 17.6047 40.8391 17.208 40.6805 16.76C40.5218 16.312 40.4425 15.836 40.4425 15.332C40.4425 14.8 40.5265 14.3053 40.6945 13.848C40.8625 13.3907 41.0958 12.9893 41.3945 12.644C41.7025 12.2893 42.0618 12.0187 42.4725 11.832C42.8925 11.636 43.3545 11.538 43.8585 11.538C44.4278 11.538 44.9271 11.6687 45.3565 11.93C45.7858 12.182 46.1405 12.5227 46.4205 12.952V11.664H48.0585V18.65C48.0585 19.378 47.8811 19.9987 47.5265 20.512C47.1811 21.0347 46.7005 21.4313 46.0845 21.702C45.4685 21.982 44.7685 22.122 43.9845 22.122C43.1911 22.122 42.5191 21.9867 41.9685 21.716C41.4178 21.4547 40.9465 21.0813 40.5545 20.596L41.5765 19.602C41.8565 19.9473 42.2065 20.218 42.6265 20.414C43.0558 20.61 43.5085 20.708 43.9845 20.708C44.3858 20.708 44.7498 20.6333 45.0765 20.484C45.4125 20.344 45.6785 20.12 45.8745 19.812C46.0798 19.5133 46.1825 19.126 46.1825 18.65V17.726C45.9398 18.146 45.5945 18.4727 45.1465 18.706C44.7078 18.93 44.2411 19.042 43.7465 19.042ZM44.3765 17.544C44.5818 17.544 44.7778 17.5113 44.9645 17.446C45.1511 17.3807 45.3238 17.292 45.4825 17.18C45.6411 17.068 45.7811 16.9373 45.9025 16.788C46.0238 16.6293 46.1171 16.4707 46.1825 16.312V14.562C46.0705 14.2727 45.9118 14.0207 45.7065 13.806C45.5105 13.5913 45.2865 13.428 45.0345 13.316C44.7918 13.1947 44.5351 13.134 44.2645 13.134C43.9751 13.134 43.7138 13.1947 43.4805 13.316C43.2471 13.4373 43.0465 13.61 42.8785 13.834C42.7105 14.0487 42.5798 14.2913 42.4865 14.562C42.4025 14.8233 42.3605 15.0987 42.3605 15.388C42.3605 15.6867 42.4118 15.9667 42.5145 16.228C42.6171 16.4893 42.7571 16.718 42.9345 16.914C43.1211 17.11 43.3358 17.264 43.5785 17.376C43.8305 17.488 44.0965 17.544 44.3765 17.544ZM49.9035 20.428C50.0715 20.4653 50.2255 20.498 50.3655 20.526C50.5148 20.554 50.6408 20.568 50.7435 20.568C50.9208 20.568 51.0655 20.5213 51.1775 20.428C51.2988 20.344 51.4155 20.1853 51.5275 19.952C51.6395 19.728 51.7562 19.4107 51.8775 19L48.9795 11.664H50.9255L52.8995 17.082L54.6355 11.664H56.4275L53.3475 20.456C53.2355 20.7827 53.0628 21.0767 52.8295 21.338C52.6055 21.6087 52.3208 21.8187 51.9755 21.968C51.6395 22.1267 51.2615 22.206 50.8415 22.206C50.6922 22.206 50.5428 22.192 50.3935 22.164C50.2442 22.1453 50.0808 22.108 49.9035 22.052V20.428ZM60.9026 19V13.484H59.9366V12.056H60.9026V11.608C60.9026 11.0013 61.0006 10.4787 61.1966 10.04C61.4019 9.592 61.6866 9.24667 62.0506 9.004C62.4239 8.76133 62.8579 8.64 63.3526 8.64C63.6513 8.64 63.9499 8.67733 64.2486 8.752C64.5566 8.82667 64.8599 8.934 65.1586 9.074L64.7806 10.488C64.6406 10.4133 64.4773 10.3527 64.2906 10.306C64.1039 10.25 63.9266 10.222 63.7586 10.222C63.4413 10.222 63.1986 10.334 63.0306 10.558C62.8626 10.782 62.7786 11.1087 62.7786 11.538V12.056H64.5706V13.484H62.7786V19H60.9026ZM68.9425 19.14C68.3545 19.14 67.8225 19.042 67.3465 18.846C66.8705 18.6407 66.4645 18.3653 66.1285 18.02C65.7925 17.6653 65.5312 17.264 65.3445 16.816C65.1672 16.3587 65.0785 15.878 65.0785 15.374C65.0785 14.674 65.2325 14.0347 65.5405 13.456C65.8579 12.8773 66.3059 12.4153 66.8845 12.07C67.4725 11.7153 68.1632 11.538 68.9565 11.538C69.7592 11.538 70.4452 11.7153 71.0145 12.07C71.5839 12.4153 72.0179 12.8773 72.3165 13.456C72.6245 14.0253 72.7785 14.6413 72.7785 15.304C72.7785 15.416 72.7739 15.5327 72.7645 15.654C72.7552 15.766 72.7459 15.8593 72.7365 15.934H67.0665C67.1039 16.3073 67.2112 16.634 67.3885 16.914C67.5752 17.194 67.8085 17.4087 68.0885 17.558C68.3779 17.698 68.6859 17.768 69.0125 17.768C69.3859 17.768 69.7359 17.6793 70.0625 17.502C70.3985 17.3153 70.6272 17.0727 70.7485 16.774L72.3585 17.222C72.1812 17.5953 71.9245 17.9267 71.5885 18.216C71.2619 18.5053 70.8745 18.734 70.4265 18.902C69.9785 19.0607 69.4839 19.14 68.9425 19.14ZM67.0245 14.744H70.8605C70.8232 14.3707 70.7159 14.0487 70.5385 13.778C70.3705 13.498 70.1465 13.2833 69.8665 13.134C69.5865 12.9753 69.2739 12.896 68.9285 12.896C68.5925 12.896 68.2845 12.9753 68.0045 13.134C67.7339 13.2833 67.5099 13.498 67.3325 13.778C67.1645 14.0487 67.0619 14.3707 67.0245 14.744ZM69.5445 10.81L68.3405 10.446L69.0965 8.78H70.8465L69.5445 10.81ZM80.7394 19H78.8634V14.884C78.8634 14.296 78.7607 13.8667 78.5554 13.596C78.35 13.3253 78.0654 13.19 77.7014 13.19C77.4494 13.19 77.1927 13.2553 76.9314 13.386C76.6794 13.5167 76.4507 13.6987 76.2454 13.932C76.04 14.156 75.8907 14.4173 75.7974 14.716V19H73.9214V11.664H75.6154V13.022C75.802 12.7047 76.04 12.4387 76.3294 12.224C76.6187 12 76.95 11.832 77.3234 11.72C77.706 11.5987 78.1074 11.538 78.5274 11.538C78.9847 11.538 79.358 11.622 79.6474 11.79C79.946 11.9487 80.17 12.168 80.3194 12.448C80.478 12.7187 80.5854 13.0267 80.6414 13.372C80.7067 13.7173 80.7394 14.0673 80.7394 14.422V19ZM82.4016 20.428C82.5696 20.4653 82.7236 20.498 82.8636 20.526C83.0129 20.554 83.1389 20.568 83.2416 20.568C83.4189 20.568 83.5636 20.5213 83.6756 20.428C83.7969 20.344 83.9136 20.1853 84.0256 19.952C84.1376 19.728 84.2542 19.4107 84.3756 19L81.4776 11.664H83.4236L85.3976 17.082L87.1336 11.664H88.9256L85.8456 20.456C85.7336 20.7827 85.5609 21.0767 85.3276 21.338C85.1036 21.6087 84.8189 21.8187 84.4736 21.968C84.1376 22.1267 83.7596 22.206 83.3396 22.206C83.1902 22.206 83.0409 22.192 82.8916 22.164C82.7422 22.1453 82.5789 22.108 82.4016 22.052V20.428ZM94.9568 19L92.8148 15.836L91.8208 16.816V19H89.9448V8.78H91.8208V14.968L94.7748 11.678H96.7628L94.0328 14.786L96.9588 19H94.9568ZM100.771 19.14C100.183 19.14 99.6506 19.042 99.1746 18.846C98.6986 18.6407 98.2926 18.3653 97.9566 18.02C97.6206 17.6653 97.3593 17.264 97.1726 16.816C96.9953 16.3587 96.9066 15.878 96.9066 15.374C96.9066 14.674 97.0606 14.0347 97.3686 13.456C97.686 12.8773 98.134 12.4153 98.7126 12.07C99.3006 11.7153 99.9913 11.538 100.785 11.538C101.587 11.538 102.273 11.7153 102.843 12.07C103.412 12.4153 103.846 12.8773 104.145 13.456C104.453 14.0253 104.607 14.6413 104.607 15.304C104.607 15.416 104.602 15.5327 104.593 15.654C104.583 15.766 104.574 15.8593 104.565 15.934H98.8946C98.932 16.3073 99.0393 16.634 99.2166 16.914C99.4033 17.194 99.6366 17.4087 99.9166 17.558C100.206 17.698 100.514 17.768 100.841 17.768C101.214 17.768 101.564 17.6793 101.891 17.502C102.227 17.3153 102.455 17.0727 102.577 16.774L104.187 17.222C104.009 17.5953 103.753 17.9267 103.417 18.216C103.09 18.5053 102.703 18.734 102.255 18.902C101.807 19.0607 101.312 19.14 100.771 19.14ZM98.8526 14.744H102.689C102.651 14.3707 102.544 14.0487 102.367 13.778C102.199 13.498 101.975 13.2833 101.695 13.134C101.415 12.9753 101.102 12.896 100.757 12.896C100.421 12.896 100.113 12.9753 99.8326 13.134C99.562 13.2833 99.338 13.498 99.1606 13.778C98.9926 14.0487 98.89 14.3707 98.8526 14.744ZM101.373 10.81L100.169 10.446L100.925 8.78H102.675L101.373 10.81ZM110.146 19.14C109.576 19.14 109.072 19.014 108.634 18.762C108.204 18.5007 107.868 18.1507 107.626 17.712V21.982H105.75V11.664H107.388V12.924C107.668 12.4947 108.022 12.1587 108.452 11.916C108.881 11.664 109.371 11.538 109.922 11.538C110.416 11.538 110.869 11.636 111.28 11.832C111.7 12.028 112.064 12.3033 112.372 12.658C112.68 13.0033 112.918 13.4047 113.086 13.862C113.263 14.31 113.352 14.7953 113.352 15.318C113.352 16.0273 113.212 16.6713 112.932 17.25C112.661 17.8287 112.283 18.2907 111.798 18.636C111.322 18.972 110.771 19.14 110.146 19.14ZM109.516 17.544C109.805 17.544 110.066 17.4833 110.3 17.362C110.533 17.2407 110.734 17.0773 110.902 16.872C111.079 16.6573 111.21 16.4193 111.294 16.158C111.387 15.8873 111.434 15.6073 111.434 15.318C111.434 15.01 111.382 14.7253 111.28 14.464C111.186 14.2027 111.046 13.974 110.86 13.778C110.673 13.5727 110.454 13.414 110.202 13.302C109.959 13.19 109.693 13.134 109.404 13.134C109.226 13.134 109.044 13.1667 108.858 13.232C108.68 13.288 108.508 13.372 108.34 13.484C108.172 13.596 108.022 13.7267 107.892 13.876C107.77 14.0253 107.682 14.1887 107.626 14.366V16.088C107.738 16.3587 107.887 16.606 108.074 16.83C108.27 17.054 108.494 17.2313 108.746 17.362C108.998 17.4833 109.254 17.544 109.516 17.544ZM53.2091 29.53C53.2091 28.8567 53.3525 28.1833 53.6391 27.51C53.9258 26.83 54.2791 26.1367 54.6991 25.43L55.7191 25.86C55.6191 26.02 55.4958 26.2367 55.3491 26.51C55.2091 26.7833 55.0691 27.0933 54.9291 27.44C54.7958 27.78 54.6825 28.1333 54.5891 28.5C54.5025 28.8667 54.4591 29.22 54.4591 29.56C54.4591 30.0933 54.5725 30.6533 54.7991 31.24C55.0325 31.82 55.3291 32.42 55.6891 33.04L54.7091 33.53C54.4358 33.11 54.1825 32.68 53.9491 32.24C53.7225 31.8 53.5425 31.35 53.4091 30.89C53.2758 30.43 53.2091 29.9767 53.2091 29.53ZM60.6648 31.79V33H56.6048V31.79H58.0248V28.76C57.9648 28.84 57.8715 28.9233 57.7448 29.01C57.6182 29.09 57.4748 29.1667 57.3148 29.24C57.1548 29.3133 56.9948 29.3733 56.8348 29.42C56.6748 29.4667 56.5315 29.49 56.4048 29.49V28.24C56.5248 28.24 56.6682 28.2033 56.8348 28.13C57.0082 28.05 57.1782 27.9567 57.3448 27.85C57.5182 27.7433 57.6648 27.64 57.7848 27.54C57.9115 27.4333 57.9915 27.35 58.0248 27.29H59.3948V31.79H60.6648ZM61.2263 29.76C61.2263 29.3 61.3396 28.8833 61.5662 28.51C61.7929 28.1367 62.1029 27.84 62.4963 27.62C62.8896 27.4 63.3296 27.29 63.8163 27.29C64.3563 27.29 64.8196 27.42 65.2063 27.68C65.5996 27.94 65.9029 28.3133 66.1163 28.8C66.3296 29.28 66.4363 29.8633 66.4363 30.55C66.4363 31.41 66.3229 32.1367 66.0963 32.73C65.8763 33.3233 65.5596 33.7733 65.1463 34.08C64.7329 34.3867 64.2463 34.54 63.6863 34.54C63.2396 34.54 62.8263 34.4433 62.4463 34.25C62.0663 34.0567 61.7463 33.78 61.4863 33.42L62.2563 32.58C62.4163 32.8267 62.6229 33.02 62.8763 33.16C63.1363 33.3067 63.4129 33.38 63.7063 33.38C64.0063 33.38 64.2629 33.3 64.4763 33.14C64.6963 32.98 64.8663 32.75 64.9863 32.45C65.1129 32.1433 65.1796 31.7767 65.1863 31.35C65.0996 31.5033 64.9796 31.64 64.8263 31.76C64.6796 31.88 64.5096 31.9733 64.3163 32.04C64.1296 32.1 63.9229 32.13 63.6963 32.13C63.2363 32.13 62.8163 32.0267 62.4363 31.82C62.0629 31.6067 61.7663 31.3233 61.5463 30.97C61.3329 30.61 61.2263 30.2067 61.2263 29.76ZM63.8163 28.42C63.5829 28.42 63.3663 28.4833 63.1663 28.61C62.9663 28.73 62.8063 28.89 62.6863 29.09C62.5663 29.29 62.5063 29.5133 62.5063 29.76C62.5063 30 62.5629 30.22 62.6763 30.42C62.7963 30.6133 62.9563 30.77 63.1563 30.89C63.3563 31.0033 63.5763 31.06 63.8163 31.06C64.0563 31.06 64.2729 31.0033 64.4663 30.89C64.6663 30.77 64.8263 30.6133 64.9463 30.42C65.0663 30.22 65.1263 30 65.1263 29.76C65.1263 29.52 65.0663 29.3 64.9463 29.1C64.8263 28.8933 64.6663 28.73 64.4663 28.61C64.2663 28.4833 64.0496 28.42 63.8163 28.42ZM72.3949 30.9C72.3949 31.34 72.2749 31.7233 72.0349 32.05C71.8016 32.3767 71.4883 32.6333 71.0949 32.82C70.7016 33 70.2716 33.09 69.8049 33.09C69.3316 33.09 68.8983 32.9933 68.5049 32.8C68.1183 32.6067 67.8083 32.3433 67.5749 32.01C67.3483 31.67 67.2349 31.2833 67.2349 30.85C67.2349 30.5833 67.2916 30.3433 67.4049 30.13C67.5183 29.91 67.6583 29.7233 67.8249 29.57C67.9983 29.41 68.1716 29.2867 68.3449 29.2C68.1849 29.12 68.0349 29.0133 67.8949 28.88C67.7616 28.7467 67.6549 28.5933 67.5749 28.42C67.4949 28.2467 67.4549 28.0633 67.4549 27.87C67.4549 27.5567 67.5249 27.2767 67.6649 27.03C67.8049 26.7833 67.9916 26.5767 68.2249 26.41C68.4583 26.2367 68.7116 26.11 68.9849 26.03C69.2649 25.9433 69.5416 25.9 69.8149 25.9C70.0816 25.9 70.3549 25.9433 70.6349 26.03C70.9149 26.11 71.1716 26.2333 71.4049 26.4C71.6383 26.5667 71.8249 26.7733 71.9649 27.02C72.1116 27.26 72.1849 27.54 72.1849 27.86C72.1849 28.0467 72.1416 28.23 72.0549 28.41C71.9749 28.5833 71.8649 28.74 71.7249 28.88C71.5916 29.0133 71.4383 29.12 71.2649 29.2C71.4583 29.3 71.6416 29.43 71.8149 29.59C71.9883 29.75 72.1283 29.94 72.2349 30.16C72.3416 30.38 72.3949 30.6267 72.3949 30.9ZM71.0349 30.82C71.0349 30.6467 71.0016 30.4967 70.9349 30.37C70.8683 30.2367 70.7749 30.1267 70.6549 30.04C70.5349 29.9467 70.4016 29.8767 70.2549 29.83C70.1083 29.7833 69.9583 29.76 69.8049 29.76C69.5916 29.76 69.3916 29.8033 69.2049 29.89C69.0249 29.9767 68.8783 30.1 68.7649 30.26C68.6516 30.42 68.5949 30.6067 68.5949 30.82C68.5949 30.98 68.6283 31.1267 68.6949 31.26C68.7683 31.3867 68.8616 31.4967 68.9749 31.59C69.0949 31.6833 69.2249 31.7567 69.3649 31.81C69.5116 31.8567 69.6616 31.88 69.8149 31.88C70.0283 31.88 70.2283 31.8333 70.4149 31.74C70.6016 31.6467 70.7516 31.52 70.8649 31.36C70.9783 31.2 71.0349 31.02 71.0349 30.82ZM68.8149 27.91C68.8149 28.09 68.8649 28.2433 68.9649 28.37C69.0649 28.4967 69.1916 28.5933 69.3449 28.66C69.5049 28.72 69.6616 28.75 69.8149 28.75C69.9749 28.75 70.1283 28.7167 70.2749 28.65C70.4283 28.5833 70.5549 28.49 70.6549 28.37C70.7616 28.2433 70.8149 28.0867 70.8149 27.9C70.8149 27.7333 70.7683 27.59 70.6749 27.47C70.5816 27.35 70.4583 27.2567 70.3049 27.19C70.1583 27.1233 69.9916 27.09 69.8049 27.09C69.6316 27.09 69.4683 27.1233 69.3149 27.19C69.1616 27.2567 69.0383 27.3533 68.9449 27.48C68.8583 27.6 68.8149 27.7433 68.8149 27.91ZM78.4301 30.9C78.4301 31.34 78.3101 31.7233 78.0701 32.05C77.8367 32.3767 77.5234 32.6333 77.1301 32.82C76.7367 33 76.3067 33.09 75.8401 33.09C75.3667 33.09 74.9334 32.9933 74.5401 32.8C74.1534 32.6067 73.8434 32.3433 73.6101 32.01C73.3834 31.67 73.2701 31.2833 73.2701 30.85C73.2701 30.5833 73.3267 30.3433 73.4401 30.13C73.5534 29.91 73.6934 29.7233 73.8601 29.57C74.0334 29.41 74.2067 29.2867 74.3801 29.2C74.2201 29.12 74.0701 29.0133 73.9301 28.88C73.7967 28.7467 73.6901 28.5933 73.6101 28.42C73.5301 28.2467 73.4901 28.0633 73.4901 27.87C73.4901 27.5567 73.5601 27.2767 73.7001 27.03C73.8401 26.7833 74.0267 26.5767 74.2601 26.41C74.4934 26.2367 74.7467 26.11 75.0201 26.03C75.3001 25.9433 75.5767 25.9 75.8501 25.9C76.1167 25.9 76.3901 25.9433 76.6701 26.03C76.9501 26.11 77.2067 26.2333 77.4401 26.4C77.6734 26.5667 77.8601 26.7733 78.0001 27.02C78.1467 27.26 78.2201 27.54 78.2201 27.86C78.2201 28.0467 78.1767 28.23 78.0901 28.41C78.0101 28.5833 77.9001 28.74 77.7601 28.88C77.6267 29.0133 77.4734 29.12 77.3001 29.2C77.4934 29.3 77.6767 29.43 77.8501 29.59C78.0234 29.75 78.1634 29.94 78.2701 30.16C78.3767 30.38 78.4301 30.6267 78.4301 30.9ZM77.0701 30.82C77.0701 30.6467 77.0367 30.4967 76.9701 30.37C76.9034 30.2367 76.8101 30.1267 76.6901 30.04C76.5701 29.9467 76.4367 29.8767 76.2901 29.83C76.1434 29.7833 75.9934 29.76 75.8401 29.76C75.6267 29.76 75.4267 29.8033 75.2401 29.89C75.0601 29.9767 74.9134 30.1 74.8001 30.26C74.6867 30.42 74.6301 30.6067 74.6301 30.82C74.6301 30.98 74.6634 31.1267 74.7301 31.26C74.8034 31.3867 74.8967 31.4967 75.0101 31.59C75.1301 31.6833 75.2601 31.7567 75.4001 31.81C75.5467 31.8567 75.6967 31.88 75.8501 31.88C76.0634 31.88 76.2634 31.8333 76.4501 31.74C76.6367 31.6467 76.7867 31.52 76.9001 31.36C77.0134 31.2 77.0701 31.02 77.0701 30.82ZM74.8501 27.91C74.8501 28.09 74.9001 28.2433 75.0001 28.37C75.1001 28.4967 75.2267 28.5933 75.3801 28.66C75.5401 28.72 75.6967 28.75 75.8501 28.75C76.0101 28.75 76.1634 28.7167 76.3101 28.65C76.4634 28.5833 76.5901 28.49 76.6901 28.37C76.7967 28.2433 76.8501 28.0867 76.8501 27.9C76.8501 27.7333 76.8034 27.59 76.7101 27.47C76.6167 27.35 76.4934 27.2567 76.3401 27.19C76.1934 27.1233 76.0267 27.09 75.8401 27.09C75.6667 27.09 75.5034 27.1233 75.3501 27.19C75.1967 27.2567 75.0734 27.3533 74.9801 27.48C74.8934 27.6 74.8501 27.7433 74.8501 27.91ZM79.4452 30.86V29.65H82.4752V30.86H79.4452ZM85.7949 29.53C85.7949 29.9767 85.7283 30.43 85.5949 30.89C85.4616 31.35 85.2816 31.8 85.0549 32.24C84.8283 32.68 84.5749 33.11 84.2949 33.53L83.3149 33.04C83.6816 32.42 83.9783 31.82 84.2049 31.24C84.4316 30.6533 84.5449 30.0933 84.5449 29.56C84.5449 29.22 84.4983 28.8667 84.4049 28.5C84.3183 28.1333 84.2049 27.78 84.0649 27.44C83.9316 27.0933 83.7949 26.7833 83.6549 26.51C83.5149 26.2367 83.3916 26.02 83.2849 25.86L84.3149 25.43C84.7283 26.1367 85.0783 26.83 85.3649 27.51C85.6516 28.1833 85.7949 28.8567 85.7949 29.53Z" fill="#FDFDFD"/>
</g>
<defs>
<filter id="filter0_d_1_1188" x="0" y="0" width="138" height="48" filterUnits="userSpaceOnUse" color-interpolation-filters="sRGB">
<feFlood flood-opacity="0" result="BackgroundImageFix"/>
<feColorMatrix in="SourceAlpha" type="matrix" values="0 0 0 0 0 0 0 0 0 0 0 0 0 0 0 0 0 0 127 0" result="hardAlpha"/>
<feOffset dy="2"/>
<feGaussianBlur stdDeviation="2"/>
<feComposite in2="hardAlpha" operator="out"/>
<feColorMatrix type="matrix" values="0 0 0 0 0 0 0 0 0 0 0 0 0 0 0 0 0 0 0.15 0"/>
<feBlend mode="normal" in2="BackgroundImageFix" result="effect1_dropShadow_1_1188"/>
<feBlend mode="normal" in="SourceGraphic" in2="effect1_dropShadow_1_1188" result="shape"/>
</filter>
</defs>
</svg>
