<svg width="138" height="48" viewBox="0 0 138 48" fill="none" xmlns="http://www.w3.org/2000/svg">
<g filter="url(#filter0_d_111_37)">
<rect x="4.5" y="2.5" width="129" height="39" rx="5.5" fill="#FDFDFD" stroke="#50A021"/>
<path d="M37.6173 8.78L37.3093 10.488H37.8693V12.378H35.9793V10.46L36.4833 8.78H37.6173ZM40.2493 8.78L39.9413 10.488H40.5013V12.378H38.6113V10.46L39.1153 8.78H40.2493ZM47.8456 17.306V19H42.1616V17.306H44.1496V13.064C44.0656 13.176 43.935 13.2927 43.7576 13.414C43.5803 13.526 43.3796 13.6333 43.1556 13.736C42.9316 13.8387 42.7076 13.9227 42.4836 13.988C42.2596 14.0533 42.059 14.086 41.8816 14.086V12.336C42.0496 12.336 42.2503 12.2847 42.4836 12.182C42.7263 12.07 42.9643 11.9393 43.1976 11.79C43.4403 11.6407 43.6456 11.496 43.8136 11.356C43.991 11.2067 44.103 11.09 44.1496 11.006H46.0676V17.306H47.8456ZM54.7636 17.306V19H49.0796V17.306H51.0676V13.064C50.9836 13.176 50.8529 13.2927 50.6756 13.414C50.4983 13.526 50.2976 13.6333 50.0736 13.736C49.8496 13.8387 49.6256 13.9227 49.4016 13.988C49.1776 14.0533 48.9769 14.086 48.7996 14.086V12.336C48.9676 12.336 49.1683 12.2847 49.4016 12.182C49.6443 12.07 49.8823 11.9393 50.1156 11.79C50.3583 11.6407 50.5636 11.496 50.7316 11.356C50.9089 11.2067 51.0209 11.09 51.0676 11.006H52.9856V17.306H54.7636ZM59.5008 19V9.06H66.1788V10.754H61.4328V13.316H65.3808V14.884H61.4328V19H59.5008ZM71.6992 18.622C71.5406 18.6873 71.3492 18.762 71.1252 18.846C70.9012 18.93 70.6586 18.9953 70.3972 19.042C70.1452 19.098 69.8886 19.126 69.6272 19.126C69.2819 19.126 68.9646 19.0653 68.6752 18.944C68.3859 18.8227 68.1526 18.6313 67.9752 18.37C67.8072 18.0993 67.7232 17.7493 67.7232 17.32V13.106H66.7572V11.664H67.7232V9.284H69.5992V11.664H71.1392V13.106H69.5992V16.69C69.6086 16.942 69.6786 17.124 69.8092 17.236C69.9399 17.348 70.1032 17.404 70.2992 17.404C70.4952 17.404 70.6866 17.3713 70.8732 17.306C71.0599 17.2407 71.2092 17.1847 71.3212 17.138L71.6992 18.622ZM72.6343 16.004V14.31H76.8763V16.004H72.6343ZM81.9158 19.14C81.3185 19.14 80.7818 19.042 80.3058 18.846C79.8298 18.6407 79.4238 18.3607 79.0878 18.006C78.7612 17.6513 78.5092 17.2453 78.3318 16.788C78.1545 16.3307 78.0658 15.85 78.0658 15.346C78.0658 14.8327 78.1545 14.3473 78.3318 13.89C78.5092 13.4327 78.7612 13.0267 79.0878 12.672C79.4238 12.3173 79.8298 12.042 80.3058 11.846C80.7818 11.6407 81.3185 11.538 81.9158 11.538C82.5132 11.538 83.0452 11.6407 83.5118 11.846C83.9878 12.042 84.3938 12.3173 84.7298 12.672C85.0658 13.0267 85.3178 13.4327 85.4858 13.89C85.6632 14.3473 85.7518 14.8327 85.7518 15.346C85.7518 15.85 85.6632 16.3307 85.4858 16.788C85.3178 17.2453 85.0658 17.6513 84.7298 18.006C84.4032 18.3607 84.0018 18.6407 83.5258 18.846C83.0498 19.042 82.5132 19.14 81.9158 19.14ZM79.9978 15.346C79.9978 15.7753 80.0818 16.158 80.2498 16.494C80.4178 16.8207 80.6465 17.0773 80.9358 17.264C81.2252 17.4507 81.5518 17.544 81.9158 17.544C82.2705 17.544 82.5925 17.4507 82.8818 17.264C83.1712 17.068 83.3998 16.8067 83.5678 16.48C83.7452 16.144 83.8338 15.7613 83.8338 15.332C83.8338 14.912 83.7452 14.534 83.5678 14.198C83.3998 13.862 83.1712 13.6007 82.8818 13.414C82.5925 13.2273 82.2705 13.134 81.9158 13.134C81.5518 13.134 81.2252 13.232 80.9358 13.428C80.6465 13.6147 80.4178 13.876 80.2498 14.212C80.0818 14.5387 79.9978 14.9167 79.9978 15.346ZM89.7201 19.14C89.0947 19.14 88.4974 19.0373 87.9281 18.832C87.3587 18.6267 86.8687 18.3233 86.4581 17.922L87.1301 16.704C87.5687 17.0587 87.9981 17.32 88.4181 17.488C88.8474 17.656 89.2581 17.74 89.6501 17.74C90.0141 17.74 90.3034 17.6747 90.5181 17.544C90.7421 17.4133 90.8541 17.2173 90.8541 16.956C90.8541 16.7787 90.7934 16.6433 90.6721 16.55C90.5507 16.4473 90.3734 16.3587 90.1401 16.284C89.9161 16.2093 89.6407 16.1253 89.3141 16.032C88.7727 15.8547 88.3201 15.682 87.9561 15.514C87.5921 15.346 87.3167 15.136 87.1301 14.884C86.9527 14.6227 86.8641 14.2913 86.8641 13.89C86.8641 13.4047 86.9854 12.9893 87.2281 12.644C87.4801 12.2893 87.8254 12.014 88.2641 11.818C88.7121 11.622 89.2347 11.524 89.8321 11.524C90.3547 11.524 90.8494 11.608 91.3161 11.776C91.7827 11.9347 92.2074 12.196 92.5901 12.56L91.8341 13.75C91.4607 13.4607 91.1061 13.2507 90.7701 13.12C90.4341 12.98 90.0934 12.91 89.7481 12.91C89.5521 12.91 89.3654 12.9333 89.1881 12.98C89.0201 13.0267 88.8801 13.106 88.7681 13.218C88.6654 13.3207 88.6141 13.47 88.6141 13.666C88.6141 13.8433 88.6607 13.9833 88.7541 14.086C88.8567 14.1793 89.0061 14.2633 89.2021 14.338C89.4074 14.4127 89.6547 14.4967 89.9441 14.59C90.5321 14.758 91.0267 14.9307 91.4281 15.108C91.8387 15.2853 92.1467 15.5047 92.3521 15.766C92.5574 16.018 92.6601 16.368 92.6601 16.816C92.6601 17.544 92.3941 18.1133 91.8621 18.524C91.3301 18.9347 90.6161 19.14 89.7201 19.14ZM93.9937 12.294L94.3157 10.572H93.7557V8.696H95.6317V10.614L95.1417 12.294H93.9937ZM96.6257 12.294L96.9477 10.572H96.3877V8.696H98.2637V10.614L97.7737 12.294H96.6257ZM41.7033 29.53C41.7033 28.8567 41.8466 28.1833 42.1333 27.51C42.4199 26.83 42.7733 26.1367 43.1933 25.43L44.2133 25.86C44.1133 26.02 43.9899 26.2367 43.8433 26.51C43.7033 26.7833 43.5633 27.0933 43.4233 27.44C43.2899 27.78 43.1766 28.1333 43.0833 28.5C42.9966 28.8667 42.9533 29.22 42.9533 29.56C42.9533 30.0933 43.0666 30.6533 43.2933 31.24C43.5266 31.82 43.8233 32.42 44.1833 33.04L43.2033 33.53C42.9299 33.11 42.6766 32.68 42.4433 32.24C42.2166 31.8 42.0366 31.35 41.9033 30.89C41.7699 30.43 41.7033 29.9767 41.7033 29.53ZM49.159 31.79V33H45.099V31.79H46.519V28.76C46.459 28.84 46.3657 28.9233 46.239 29.01C46.1123 29.09 45.969 29.1667 45.809 29.24C45.649 29.3133 45.489 29.3733 45.329 29.42C45.169 29.4667 45.0257 29.49 44.899 29.49V28.24C45.019 28.24 45.1623 28.2033 45.329 28.13C45.5023 28.05 45.6723 27.9567 45.839 27.85C46.0123 27.7433 46.159 27.64 46.279 27.54C46.4057 27.4333 46.4857 27.35 46.519 27.29H47.889V31.79H49.159ZM49.7204 29.76C49.7204 29.3 49.8337 28.8833 50.0604 28.51C50.2871 28.1367 50.5971 27.84 50.9904 27.62C51.3837 27.4 51.8237 27.29 52.3104 27.29C52.8504 27.29 53.3137 27.42 53.7004 27.68C54.0937 27.94 54.3971 28.3133 54.6104 28.8C54.8237 29.28 54.9304 29.8633 54.9304 30.55C54.9304 31.41 54.8171 32.1367 54.5904 32.73C54.3704 33.3233 54.0537 33.7733 53.6404 34.08C53.2271 34.3867 52.7404 34.54 52.1804 34.54C51.7337 34.54 51.3204 34.4433 50.9404 34.25C50.5604 34.0567 50.2404 33.78 49.9804 33.42L50.7504 32.58C50.9104 32.8267 51.1171 33.02 51.3704 33.16C51.6304 33.3067 51.9071 33.38 52.2004 33.38C52.5004 33.38 52.7571 33.3 52.9704 33.14C53.1904 32.98 53.3604 32.75 53.4804 32.45C53.6071 32.1433 53.6737 31.7767 53.6804 31.35C53.5937 31.5033 53.4737 31.64 53.3204 31.76C53.1737 31.88 53.0037 31.9733 52.8104 32.04C52.6237 32.1 52.4171 32.13 52.1904 32.13C51.7304 32.13 51.3104 32.0267 50.9304 31.82C50.5571 31.6067 50.2604 31.3233 50.0404 30.97C49.8271 30.61 49.7204 30.2067 49.7204 29.76ZM52.3104 28.42C52.0771 28.42 51.8604 28.4833 51.6604 28.61C51.4604 28.73 51.3004 28.89 51.1804 29.09C51.0604 29.29 51.0004 29.5133 51.0004 29.76C51.0004 30 51.0571 30.22 51.1704 30.42C51.2904 30.6133 51.4504 30.77 51.6504 30.89C51.8504 31.0033 52.0704 31.06 52.3104 31.06C52.5504 31.06 52.7671 31.0033 52.9604 30.89C53.1604 30.77 53.3204 30.6133 53.4404 30.42C53.5604 30.22 53.6204 30 53.6204 29.76C53.6204 29.52 53.5604 29.3 53.4404 29.1C53.3204 28.8933 53.1604 28.73 52.9604 28.61C52.7604 28.4833 52.5437 28.42 52.3104 28.42ZM57.9091 34.49C57.3957 34.49 56.9324 34.38 56.5191 34.16C56.1057 33.94 55.7924 33.64 55.5791 33.26L56.3491 32.46C56.5357 32.72 56.7691 32.9267 57.0491 33.08C57.3291 33.2333 57.6191 33.31 57.9191 33.31C58.1591 33.31 58.3691 33.26 58.5491 33.16C58.7357 33.06 58.8824 32.92 58.9891 32.74C59.0957 32.56 59.1491 32.3533 59.1491 32.12C59.1491 31.8867 59.0991 31.6833 58.9991 31.51C58.8991 31.3367 58.7624 31.2033 58.5891 31.11C58.4157 31.01 58.2191 30.96 57.9991 30.96C57.7791 30.96 57.5724 31.01 57.3791 31.11C57.1924 31.2033 57.0424 31.34 56.9291 31.52H55.7591L56.5791 27.29H60.0791V28.51H57.5491L57.2591 30.1C57.3457 30.02 57.4657 29.9533 57.6191 29.9C57.7724 29.84 57.9624 29.81 58.1891 29.81C58.6357 29.81 59.0357 29.9067 59.3891 30.1C59.7424 30.2933 60.0191 30.5633 60.2191 30.91C60.4191 31.25 60.5191 31.6433 60.5191 32.09C60.5191 32.5633 60.4057 32.98 60.1791 33.34C59.9524 33.7067 59.6424 33.99 59.2491 34.19C58.8557 34.39 58.4091 34.49 57.9091 34.49ZM66.4962 30.63C66.4962 31.09 66.3795 31.5067 66.1462 31.88C65.9195 32.2533 65.6095 32.55 65.2162 32.77C64.8295 32.99 64.3895 33.1 63.8962 33.1C63.3628 33.1 62.8995 32.97 62.5062 32.71C62.1195 32.45 61.8195 32.0767 61.6062 31.59C61.3928 31.1033 61.2862 30.52 61.2862 29.84C61.2862 28.98 61.3962 28.2533 61.6162 27.66C61.8428 27.06 62.1628 26.61 62.5762 26.31C62.9895 26.0033 63.4762 25.85 64.0362 25.85C64.4828 25.85 64.8928 25.9467 65.2662 26.14C65.6462 26.3333 65.9662 26.61 66.2262 26.97L65.4562 27.81C65.2962 27.5633 65.0895 27.37 64.8362 27.23C64.5828 27.0833 64.3095 27.01 64.0162 27.01C63.7162 27.01 63.4562 27.09 63.2362 27.25C63.0162 27.41 62.8462 27.6433 62.7262 27.95C62.6062 28.25 62.5395 28.6133 62.5262 29.04C62.6195 28.88 62.7395 28.7433 62.8862 28.63C63.0328 28.51 63.2028 28.42 63.3962 28.36C63.5895 28.2933 63.7962 28.26 64.0162 28.26C64.4895 28.26 64.9128 28.3667 65.2862 28.58C65.6595 28.7867 65.9528 29.07 66.1662 29.43C66.3862 29.7833 66.4962 30.1833 66.4962 30.63ZM63.8962 31.97C64.1362 31.97 64.3562 31.91 64.5562 31.79C64.7562 31.6633 64.9162 31.5 65.0362 31.3C65.1562 31.0933 65.2162 30.87 65.2162 30.63C65.2162 30.39 65.1562 30.1733 65.0362 29.98C64.9162 29.78 64.7562 29.6233 64.5562 29.51C64.3628 29.39 64.1462 29.33 63.9062 29.33C63.6662 29.33 63.4462 29.39 63.2462 29.51C63.0462 29.6233 62.8862 29.78 62.7662 29.98C62.6528 30.1733 62.5962 30.39 62.5962 30.63C62.5962 30.87 62.6562 31.0933 62.7762 31.3C62.8962 31.5 63.0562 31.6633 63.2562 31.79C63.4562 31.91 63.6695 31.97 63.8962 31.97ZM67.4804 30.86V29.65H70.5104V30.86H67.4804ZM75.7801 31.79V33H71.7201V31.79H73.1401V28.76C73.0801 28.84 72.9867 28.9233 72.8601 29.01C72.7334 29.09 72.5901 29.1667 72.4301 29.24C72.2701 29.3133 72.1101 29.3733 71.9501 29.42C71.7901 29.4667 71.6467 29.49 71.5201 29.49V28.24C71.6401 28.24 71.7834 28.2033 71.9501 28.13C72.1234 28.05 72.2934 27.9567 72.4601 27.85C72.6334 27.7433 72.7801 27.64 72.9001 27.54C73.0267 27.4333 73.1067 27.35 73.1401 27.29H74.5101V31.79H75.7801ZM76.3415 29.76C76.3415 29.3 76.4548 28.8833 76.6815 28.51C76.9082 28.1367 77.2182 27.84 77.6115 27.62C78.0048 27.4 78.4448 27.29 78.9315 27.29C79.4715 27.29 79.9348 27.42 80.3215 27.68C80.7148 27.94 81.0182 28.3133 81.2315 28.8C81.4448 29.28 81.5515 29.8633 81.5515 30.55C81.5515 31.41 81.4382 32.1367 81.2115 32.73C80.9915 33.3233 80.6748 33.7733 80.2615 34.08C79.8482 34.3867 79.3615 34.54 78.8015 34.54C78.3548 34.54 77.9415 34.4433 77.5615 34.25C77.1815 34.0567 76.8615 33.78 76.6015 33.42L77.3715 32.58C77.5315 32.8267 77.7382 33.02 77.9915 33.16C78.2515 33.3067 78.5282 33.38 78.8215 33.38C79.1215 33.38 79.3782 33.3 79.5915 33.14C79.8115 32.98 79.9815 32.75 80.1015 32.45C80.2282 32.1433 80.2948 31.7767 80.3015 31.35C80.2148 31.5033 80.0948 31.64 79.9415 31.76C79.7948 31.88 79.6248 31.9733 79.4315 32.04C79.2448 32.1 79.0382 32.13 78.8115 32.13C78.3515 32.13 77.9315 32.0267 77.5515 31.82C77.1782 31.6067 76.8815 31.3233 76.6615 30.97C76.4482 30.61 76.3415 30.2067 76.3415 29.76ZM78.9315 28.42C78.6982 28.42 78.4815 28.4833 78.2815 28.61C78.0815 28.73 77.9215 28.89 77.8015 29.09C77.6815 29.29 77.6215 29.5133 77.6215 29.76C77.6215 30 77.6782 30.22 77.7915 30.42C77.9115 30.6133 78.0715 30.77 78.2715 30.89C78.4715 31.0033 78.6915 31.06 78.9315 31.06C79.1715 31.06 79.3882 31.0033 79.5815 30.89C79.7815 30.77 79.9415 30.6133 80.0615 30.42C80.1815 30.22 80.2415 30 80.2415 29.76C80.2415 29.52 80.1815 29.3 80.0615 29.1C79.9415 28.8933 79.7815 28.73 79.5815 28.61C79.3815 28.4833 79.1648 28.42 78.9315 28.42ZM85.4202 28.39H82.1902V27.17H87.5302L84.0102 34.27H82.4902L85.4202 28.39ZM93.1156 30.9C93.1156 31.34 92.9956 31.7233 92.7556 32.05C92.5223 32.3767 92.209 32.6333 91.8156 32.82C91.4223 33 90.9923 33.09 90.5256 33.09C90.0523 33.09 89.619 32.9933 89.2256 32.8C88.839 32.6067 88.529 32.3433 88.2956 32.01C88.069 31.67 87.9556 31.2833 87.9556 30.85C87.9556 30.5833 88.0123 30.3433 88.1256 30.13C88.239 29.91 88.379 29.7233 88.5456 29.57C88.719 29.41 88.8923 29.2867 89.0656 29.2C88.9056 29.12 88.7556 29.0133 88.6156 28.88C88.4823 28.7467 88.3756 28.5933 88.2956 28.42C88.2156 28.2467 88.1756 28.0633 88.1756 27.87C88.1756 27.5567 88.2456 27.2767 88.3856 27.03C88.5256 26.7833 88.7123 26.5767 88.9456 26.41C89.179 26.2367 89.4323 26.11 89.7056 26.03C89.9856 25.9433 90.2623 25.9 90.5356 25.9C90.8023 25.9 91.0756 25.9433 91.3556 26.03C91.6356 26.11 91.8923 26.2333 92.1256 26.4C92.359 26.5667 92.5456 26.7733 92.6856 27.02C92.8323 27.26 92.9056 27.54 92.9056 27.86C92.9056 28.0467 92.8623 28.23 92.7756 28.41C92.6956 28.5833 92.5856 28.74 92.4456 28.88C92.3123 29.0133 92.159 29.12 91.9856 29.2C92.179 29.3 92.3623 29.43 92.5356 29.59C92.709 29.75 92.849 29.94 92.9556 30.16C93.0623 30.38 93.1156 30.6267 93.1156 30.9ZM91.7556 30.82C91.7556 30.6467 91.7223 30.4967 91.6556 30.37C91.589 30.2367 91.4956 30.1267 91.3756 30.04C91.2556 29.9467 91.1223 29.8767 90.9756 29.83C90.829 29.7833 90.679 29.76 90.5256 29.76C90.3123 29.76 90.1123 29.8033 89.9256 29.89C89.7456 29.9767 89.599 30.1 89.4856 30.26C89.3723 30.42 89.3156 30.6067 89.3156 30.82C89.3156 30.98 89.349 31.1267 89.4156 31.26C89.489 31.3867 89.5823 31.4967 89.6956 31.59C89.8156 31.6833 89.9456 31.7567 90.0856 31.81C90.2323 31.8567 90.3823 31.88 90.5356 31.88C90.749 31.88 90.949 31.8333 91.1356 31.74C91.3223 31.6467 91.4723 31.52 91.5856 31.36C91.699 31.2 91.7556 31.02 91.7556 30.82ZM89.5356 27.91C89.5356 28.09 89.5856 28.2433 89.6856 28.37C89.7856 28.4967 89.9123 28.5933 90.0656 28.66C90.2256 28.72 90.3823 28.75 90.5356 28.75C90.6956 28.75 90.849 28.7167 90.9956 28.65C91.149 28.5833 91.2756 28.49 91.3756 28.37C91.4823 28.2433 91.5356 28.0867 91.5356 27.9C91.5356 27.7333 91.489 27.59 91.3956 27.47C91.3023 27.35 91.179 27.2567 91.0256 27.19C90.879 27.1233 90.7123 27.09 90.5256 27.09C90.3523 27.09 90.189 27.1233 90.0356 27.19C89.8823 27.2567 89.759 27.3533 89.6656 27.48C89.579 27.6 89.5356 27.7433 89.5356 27.91ZM96.3008 29.53C96.3008 29.9767 96.2341 30.43 96.1008 30.89C95.9674 31.35 95.7874 31.8 95.5608 32.24C95.3341 32.68 95.0808 33.11 94.8008 33.53L93.8208 33.04C94.1874 32.42 94.4841 31.82 94.7108 31.24C94.9374 30.6533 95.0508 30.0933 95.0508 29.56C95.0508 29.22 95.0041 28.8667 94.9108 28.5C94.8241 28.1333 94.7108 27.78 94.5708 27.44C94.4374 27.0933 94.3008 26.7833 94.1608 26.51C94.0208 26.2367 93.8974 26.02 93.7908 25.86L94.8208 25.43C95.2341 26.1367 95.5841 26.83 95.8708 27.51C96.1574 28.1833 96.3008 28.8567 96.3008 29.53Z" fill="#50A021"/>
</g>
<defs>
<filter id="filter0_d_111_37" x="0" y="0" width="138" height="48" filterUnits="userSpaceOnUse" color-interpolation-filters="sRGB">
<feFlood flood-opacity="0" result="BackgroundImageFix"/>
<feColorMatrix in="SourceAlpha" type="matrix" values="0 0 0 0 0 0 0 0 0 0 0 0 0 0 0 0 0 0 127 0" result="hardAlpha"/>
<feOffset dy="2"/>
<feGaussianBlur stdDeviation="2"/>
<feComposite in2="hardAlpha" operator="out"/>
<feColorMatrix type="matrix" values="0 0 0 0 0 0 0 0 0 0 0 0 0 0 0 0 0 0 0.15 0"/>
<feBlend mode="normal" in2="BackgroundImageFix" result="effect1_dropShadow_111_37"/>
<feBlend mode="normal" in="SourceGraphic" in2="effect1_dropShadow_111_37" result="shape"/>
</filter>
</defs>
</svg>
