<svg width="138" height="48" viewBox="0 0 138 48" fill="none" xmlns="http://www.w3.org/2000/svg">
<g filter="url(#filter0_d_1_1191)">
<rect x="4.5" y="2.5" width="129" height="39" rx="5.5" fill="#50A021" stroke="#50A021"/>
<path d="M28.4436 12.616V19H26.5116V9.06H28.0516L33.1896 15.612V9.074H35.1216V19H33.5116L28.4436 12.616ZM36.4213 16.83C36.4213 16.354 36.552 15.9387 36.8133 15.584C37.084 15.22 37.4573 14.94 37.9333 14.744C38.4093 14.548 38.9553 14.45 39.5713 14.45C39.8793 14.45 40.192 14.4733 40.5093 14.52C40.8266 14.5667 41.102 14.6413 41.3353 14.744V14.352C41.3353 13.8853 41.1953 13.526 40.9153 13.274C40.6446 13.022 40.2386 12.896 39.6973 12.896C39.296 12.896 38.9133 12.966 38.5493 13.106C38.1853 13.246 37.8026 13.4513 37.4013 13.722L36.7993 12.49C37.2846 12.1727 37.7793 11.9347 38.2833 11.776C38.7966 11.6173 39.3333 11.538 39.8933 11.538C40.9386 11.538 41.7506 11.7993 42.3293 12.322C42.9173 12.8447 43.2113 13.5913 43.2113 14.562V16.9C43.2113 17.096 43.244 17.236 43.3093 17.32C43.384 17.404 43.5006 17.4553 43.6593 17.474V19C43.4913 19.028 43.3373 19.0513 43.1973 19.07C43.0666 19.0887 42.9546 19.098 42.8613 19.098C42.488 19.098 42.2033 19.014 42.0073 18.846C41.8206 18.678 41.704 18.4727 41.6573 18.23L41.6153 17.852C41.298 18.2627 40.9013 18.58 40.4253 18.804C39.9493 19.028 39.464 19.14 38.9693 19.14C38.484 19.14 38.0453 19.042 37.6533 18.846C37.2706 18.6407 36.9673 18.3653 36.7433 18.02C36.5286 17.6653 36.4213 17.2687 36.4213 16.83ZM40.9853 17.208C41.088 17.096 41.172 16.984 41.2373 16.872C41.3026 16.76 41.3353 16.6573 41.3353 16.564V15.822C41.1113 15.7287 40.8686 15.6587 40.6073 15.612C40.346 15.556 40.0986 15.528 39.8653 15.528C39.38 15.528 38.9786 15.6353 38.6613 15.85C38.3533 16.0553 38.1993 16.3307 38.1993 16.676C38.1993 16.8627 38.2506 17.04 38.3533 17.208C38.456 17.376 38.6053 17.5113 38.8013 17.614C38.9973 17.7167 39.2306 17.768 39.5013 17.768C39.7813 17.768 40.0566 17.7167 40.3273 17.614C40.598 17.502 40.8173 17.3667 40.9853 17.208ZM47.8344 19.042C47.349 19.042 46.901 18.9487 46.4904 18.762C46.089 18.566 45.739 18.2953 45.4404 17.95C45.151 17.6047 44.927 17.208 44.7684 16.76C44.6097 16.312 44.5304 15.836 44.5304 15.332C44.5304 14.8 44.6144 14.3053 44.7824 13.848C44.9504 13.3907 45.1837 12.9893 45.4824 12.644C45.7904 12.2893 46.1497 12.0187 46.5604 11.832C46.9804 11.636 47.4424 11.538 47.9464 11.538C48.5157 11.538 49.015 11.6687 49.4444 11.93C49.8737 12.182 50.2284 12.5227 50.5084 12.952V11.664H52.1464V18.65C52.1464 19.378 51.969 19.9987 51.6144 20.512C51.269 21.0347 50.7884 21.4313 50.1724 21.702C49.5564 21.982 48.8564 22.122 48.0724 22.122C47.279 22.122 46.607 21.9867 46.0564 21.716C45.5057 21.4547 45.0344 21.0813 44.6424 20.596L45.6644 19.602C45.9444 19.9473 46.2944 20.218 46.7144 20.414C47.1437 20.61 47.5964 20.708 48.0724 20.708C48.4737 20.708 48.8377 20.6333 49.1644 20.484C49.5004 20.344 49.7664 20.12 49.9624 19.812C50.1677 19.5133 50.2704 19.126 50.2704 18.65V17.726C50.0277 18.146 49.6824 18.4727 49.2344 18.706C48.7957 18.93 48.329 19.042 47.8344 19.042ZM48.4644 17.544C48.6697 17.544 48.8657 17.5113 49.0524 17.446C49.239 17.3807 49.4117 17.292 49.5704 17.18C49.729 17.068 49.869 16.9373 49.9904 16.788C50.1117 16.6293 50.205 16.4707 50.2704 16.312V14.562C50.1584 14.2727 49.9997 14.0207 49.7944 13.806C49.5984 13.5913 49.3744 13.428 49.1224 13.316C48.8797 13.1947 48.623 13.134 48.3524 13.134C48.063 13.134 47.8017 13.1947 47.5684 13.316C47.335 13.4373 47.1344 13.61 46.9664 13.834C46.7984 14.0487 46.6677 14.2913 46.5744 14.562C46.4904 14.8233 46.4484 15.0987 46.4484 15.388C46.4484 15.6867 46.4997 15.9667 46.6024 16.228C46.705 16.4893 46.845 16.718 47.0224 16.914C47.209 17.11 47.4237 17.264 47.6664 17.376C47.9184 17.488 48.1844 17.544 48.4644 17.544ZM53.9914 20.428C54.1594 20.4653 54.3134 20.498 54.4534 20.526C54.6027 20.554 54.7287 20.568 54.8314 20.568C55.0087 20.568 55.1534 20.5213 55.2654 20.428C55.3867 20.344 55.5034 20.1853 55.6154 19.952C55.7274 19.728 55.8441 19.4107 55.9654 19L53.0674 11.664H55.0134L56.9874 17.082L58.7234 11.664H60.5154L57.4354 20.456C57.3234 20.7827 57.1507 21.0767 56.9174 21.338C56.6934 21.6087 56.4087 21.8187 56.0634 21.968C55.7274 22.1267 55.3494 22.206 54.9294 22.206C54.7801 22.206 54.6307 22.192 54.4814 22.164C54.3321 22.1453 54.1687 22.108 53.9914 22.052V20.428ZM67.4125 19.042C66.9271 19.042 66.4791 18.9487 66.0685 18.762C65.6671 18.566 65.3171 18.2953 65.0185 17.95C64.7291 17.6047 64.5051 17.208 64.3465 16.76C64.1878 16.312 64.1085 15.836 64.1085 15.332C64.1085 14.8 64.1925 14.3053 64.3605 13.848C64.5285 13.3907 64.7618 12.9893 65.0605 12.644C65.3685 12.2893 65.7278 12.0187 66.1385 11.832C66.5585 11.636 67.0205 11.538 67.5245 11.538C68.0938 11.538 68.5931 11.6687 69.0225 11.93C69.4518 12.182 69.8065 12.5227 70.0865 12.952V11.664H71.7245V18.65C71.7245 19.378 71.5471 19.9987 71.1925 20.512C70.8471 21.0347 70.3665 21.4313 69.7505 21.702C69.1345 21.982 68.4345 22.122 67.6505 22.122C66.8571 22.122 66.1851 21.9867 65.6345 21.716C65.0838 21.4547 64.6125 21.0813 64.2205 20.596L65.2425 19.602C65.5225 19.9473 65.8725 20.218 66.2925 20.414C66.7218 20.61 67.1745 20.708 67.6505 20.708C68.0518 20.708 68.4158 20.6333 68.7425 20.484C69.0785 20.344 69.3445 20.12 69.5405 19.812C69.7458 19.5133 69.8485 19.126 69.8485 18.65V17.726C69.6058 18.146 69.2605 18.4727 68.8125 18.706C68.3738 18.93 67.9071 19.042 67.4125 19.042ZM68.0425 17.544C68.2478 17.544 68.4438 17.5113 68.6305 17.446C68.8171 17.3807 68.9898 17.292 69.1485 17.18C69.3071 17.068 69.4471 16.9373 69.5685 16.788C69.6898 16.6293 69.7831 16.4707 69.8485 16.312V14.562C69.7365 14.2727 69.5778 14.0207 69.3725 13.806C69.1765 13.5913 68.9525 13.428 68.7005 13.316C68.4578 13.1947 68.2011 13.134 67.9305 13.134C67.6411 13.134 67.3798 13.1947 67.1465 13.316C66.9131 13.4373 66.7125 13.61 66.5445 13.834C66.3765 14.0487 66.2458 14.2913 66.1525 14.562C66.0685 14.8233 66.0265 15.0987 66.0265 15.388C66.0265 15.6867 66.0778 15.9667 66.1805 16.228C66.2831 16.4893 66.4231 16.718 66.6005 16.914C66.7871 17.11 67.0018 17.264 67.2445 17.376C67.4965 17.488 67.7625 17.544 68.0425 17.544ZM77.7835 13.288C77.2142 13.288 76.7055 13.4 76.2575 13.624C75.8095 13.8387 75.4875 14.1513 75.2915 14.562V19H73.4155V11.664H75.1375V13.232C75.3989 12.728 75.7302 12.3313 76.1315 12.042C76.5329 11.7527 76.9575 11.594 77.4055 11.566C77.5082 11.566 77.5875 11.566 77.6435 11.566C77.6995 11.566 77.7462 11.5707 77.7835 11.58V13.288ZM78.2846 16.83C78.2846 16.354 78.4152 15.9387 78.6766 15.584C78.9472 15.22 79.3206 14.94 79.7966 14.744C80.2726 14.548 80.8186 14.45 81.4346 14.45C81.7426 14.45 82.0552 14.4733 82.3726 14.52C82.6899 14.5667 82.9652 14.6413 83.1986 14.744V14.352C83.1986 13.8853 83.0586 13.526 82.7786 13.274C82.5079 13.022 82.1019 12.896 81.5606 12.896C81.1592 12.896 80.7766 12.966 80.4126 13.106C80.0486 13.246 79.6659 13.4513 79.2646 13.722L78.6626 12.49C79.1479 12.1727 79.6426 11.9347 80.1466 11.776C80.6599 11.6173 81.1966 11.538 81.7566 11.538C82.8019 11.538 83.6139 11.7993 84.1926 12.322C84.7806 12.8447 85.0746 13.5913 85.0746 14.562V16.9C85.0746 17.096 85.1072 17.236 85.1726 17.32C85.2472 17.404 85.3639 17.4553 85.5226 17.474V19C85.3546 19.028 85.2006 19.0513 85.0606 19.07C84.9299 19.0887 84.8179 19.098 84.7246 19.098C84.3512 19.098 84.0666 19.014 83.8706 18.846C83.6839 18.678 83.5672 18.4727 83.5206 18.23L83.4786 17.852C83.1612 18.2627 82.7646 18.58 82.2886 18.804C81.8126 19.028 81.3272 19.14 80.8326 19.14C80.3472 19.14 79.9086 19.042 79.5166 18.846C79.1339 18.6407 78.8306 18.3653 78.6066 18.02C78.3919 17.6653 78.2846 17.2687 78.2846 16.83ZM82.8486 17.208C82.9512 17.096 83.0352 16.984 83.1006 16.872C83.1659 16.76 83.1986 16.6573 83.1986 16.564V15.822C82.9746 15.7287 82.7319 15.6587 82.4706 15.612C82.2092 15.556 81.9619 15.528 81.7286 15.528C81.2432 15.528 80.8419 15.6353 80.5246 15.85C80.2166 16.0553 80.0626 16.3307 80.0626 16.676C80.0626 16.8627 80.1139 17.04 80.2166 17.208C80.3192 17.376 80.4686 17.5113 80.6646 17.614C80.8606 17.7167 81.0939 17.768 81.3646 17.768C81.6446 17.768 81.9199 17.7167 82.1906 17.614C82.4612 17.502 82.6806 17.3667 82.8486 17.208ZM87.2483 13.484H86.2823V12.056H87.2483V11.608C87.2483 11.1973 87.3136 10.8147 87.4443 10.46C87.5843 10.1053 87.7803 9.79267 88.0323 9.522C88.2936 9.242 88.6063 9.02733 88.9703 8.878C89.3436 8.71933 89.7636 8.64 90.2303 8.64C90.585 8.64 90.9163 8.67733 91.2243 8.752C91.5416 8.82667 91.8403 8.934 92.1203 9.074C92.4096 9.214 92.685 9.37267 92.9463 9.55L92.2043 10.95C91.9616 10.7353 91.677 10.5627 91.3503 10.432C91.0236 10.3013 90.6923 10.236 90.3563 10.236C90.0856 10.236 89.857 10.2967 89.6703 10.418C89.4836 10.5393 89.3436 10.698 89.2503 10.894C89.1663 11.09 89.1243 11.3047 89.1243 11.538V12.056H93.0583V19H91.1823V13.484H89.1243V19H87.2483V13.484ZM99.7693 19L97.6273 15.836L96.6333 16.816V19H94.7573V8.78H96.6333V14.968L99.5873 11.678H101.575L98.8453 14.786L101.771 19H99.7693ZM101.992 16.83C101.992 16.354 102.122 15.9387 102.384 15.584C102.654 15.22 103.028 14.94 103.504 14.744C103.98 14.548 104.526 14.45 105.142 14.45C105.45 14.45 105.762 14.4733 106.08 14.52C106.397 14.5667 106.672 14.6413 106.906 14.744V14.352C106.906 13.8853 106.766 13.526 106.486 13.274C106.215 13.022 105.809 12.896 105.268 12.896C104.866 12.896 104.484 12.966 104.12 13.106C103.756 13.246 103.373 13.4513 102.972 13.722L102.37 12.49C102.855 12.1727 103.35 11.9347 103.854 11.776C104.367 11.6173 104.904 11.538 105.464 11.538C106.509 11.538 107.321 11.7993 107.9 12.322C108.488 12.8447 108.782 13.5913 108.782 14.562V16.9C108.782 17.096 108.814 17.236 108.88 17.32C108.954 17.404 109.071 17.4553 109.23 17.474V19C109.062 19.028 108.908 19.0513 108.768 19.07C108.637 19.0887 108.525 19.098 108.432 19.098C108.058 19.098 107.774 19.014 107.578 18.846C107.391 18.678 107.274 18.4727 107.228 18.23L107.186 17.852C106.868 18.2627 106.472 18.58 105.996 18.804C105.52 19.028 105.034 19.14 104.54 19.14C104.054 19.14 103.616 19.042 103.224 18.846C102.841 18.6407 102.538 18.3653 102.314 18.02C102.099 17.6653 101.992 17.2687 101.992 16.83ZM106.556 17.208C106.658 17.096 106.742 16.984 106.808 16.872C106.873 16.76 106.906 16.6573 106.906 16.564V15.822C106.682 15.7287 106.439 15.6587 106.178 15.612C105.916 15.556 105.669 15.528 105.436 15.528C104.95 15.528 104.549 15.6353 104.232 15.85C103.924 16.0553 103.77 16.3307 103.77 16.676C103.77 16.8627 103.821 17.04 103.924 17.208C104.026 17.376 104.176 17.5113 104.372 17.614C104.568 17.7167 104.801 17.768 105.072 17.768C105.352 17.768 105.627 17.7167 105.898 17.614C106.168 17.502 106.388 17.3667 106.556 17.208ZM41.9738 29.53C41.9738 28.8567 42.1171 28.1833 42.4038 27.51C42.6905 26.83 43.0438 26.1367 43.4638 25.43L44.4838 25.86C44.3838 26.02 44.2605 26.2367 44.1138 26.51C43.9738 26.7833 43.8338 27.0933 43.6938 27.44C43.5605 27.78 43.4471 28.1333 43.3538 28.5C43.2671 28.8667 43.2238 29.22 43.2238 29.56C43.2238 30.0933 43.3371 30.6533 43.5638 31.24C43.7971 31.82 44.0938 32.42 44.4538 33.04L43.4738 33.53C43.2005 33.11 42.9471 32.68 42.7138 32.24C42.4871 31.8 42.3071 31.35 42.1738 30.89C42.0405 30.43 41.9738 29.9767 41.9738 29.53ZM49.4295 31.79V33H45.3695V31.79H46.7895V28.76C46.7295 28.84 46.6362 28.9233 46.5095 29.01C46.3828 29.09 46.2395 29.1667 46.0795 29.24C45.9195 29.3133 45.7595 29.3733 45.5995 29.42C45.4395 29.4667 45.2962 29.49 45.1695 29.49V28.24C45.2895 28.24 45.4328 28.2033 45.5995 28.13C45.7728 28.05 45.9428 27.9567 46.1095 27.85C46.2828 27.7433 46.4295 27.64 46.5495 27.54C46.6762 27.4333 46.7562 27.35 46.7895 27.29H48.1595V31.79H49.4295ZM49.9909 29.76C49.9909 29.3 50.1042 28.8833 50.3309 28.51C50.5576 28.1367 50.8676 27.84 51.2609 27.62C51.6542 27.4 52.0942 27.29 52.5809 27.29C53.1209 27.29 53.5842 27.42 53.9709 27.68C54.3642 27.94 54.6676 28.3133 54.8809 28.8C55.0942 29.28 55.2009 29.8633 55.2009 30.55C55.2009 31.41 55.0876 32.1367 54.8609 32.73C54.6409 33.3233 54.3242 33.7733 53.9109 34.08C53.4976 34.3867 53.0109 34.54 52.4509 34.54C52.0042 34.54 51.5909 34.4433 51.2109 34.25C50.8309 34.0567 50.5109 33.78 50.2509 33.42L51.0209 32.58C51.1809 32.8267 51.3876 33.02 51.6409 33.16C51.9009 33.3067 52.1776 33.38 52.4709 33.38C52.7709 33.38 53.0276 33.3 53.2409 33.14C53.4609 32.98 53.6309 32.75 53.7509 32.45C53.8776 32.1433 53.9442 31.7767 53.9509 31.35C53.8642 31.5033 53.7442 31.64 53.5909 31.76C53.4442 31.88 53.2742 31.9733 53.0809 32.04C52.8942 32.1 52.6876 32.13 52.4609 32.13C52.0009 32.13 51.5809 32.0267 51.2009 31.82C50.8276 31.6067 50.5309 31.3233 50.3109 30.97C50.0976 30.61 49.9909 30.2067 49.9909 29.76ZM52.5809 28.42C52.3476 28.42 52.1309 28.4833 51.9309 28.61C51.7309 28.73 51.5709 28.89 51.4509 29.09C51.3309 29.29 51.2709 29.5133 51.2709 29.76C51.2709 30 51.3276 30.22 51.4409 30.42C51.5609 30.6133 51.7209 30.77 51.9209 30.89C52.1209 31.0033 52.3409 31.06 52.5809 31.06C52.8209 31.06 53.0376 31.0033 53.2309 30.89C53.4309 30.77 53.5909 30.6133 53.7109 30.42C53.8309 30.22 53.8909 30 53.8909 29.76C53.8909 29.52 53.8309 29.3 53.7109 29.1C53.5909 28.8933 53.4309 28.73 53.2309 28.61C53.0309 28.4833 52.8142 28.42 52.5809 28.42ZM59.0696 28.39H55.8396V27.17H61.1796L57.6596 34.27H56.1396L59.0696 28.39ZM66.765 30.9C66.765 31.34 66.645 31.7233 66.405 32.05C66.1717 32.3767 65.8584 32.6333 65.465 32.82C65.0717 33 64.6417 33.09 64.175 33.09C63.7017 33.09 63.2684 32.9933 62.875 32.8C62.4884 32.6067 62.1784 32.3433 61.945 32.01C61.7184 31.67 61.605 31.2833 61.605 30.85C61.605 30.5833 61.6617 30.3433 61.775 30.13C61.8884 29.91 62.0284 29.7233 62.195 29.57C62.3684 29.41 62.5417 29.2867 62.715 29.2C62.555 29.12 62.405 29.0133 62.265 28.88C62.1317 28.7467 62.025 28.5933 61.945 28.42C61.865 28.2467 61.825 28.0633 61.825 27.87C61.825 27.5567 61.895 27.2767 62.035 27.03C62.175 26.7833 62.3617 26.5767 62.595 26.41C62.8284 26.2367 63.0817 26.11 63.355 26.03C63.635 25.9433 63.9117 25.9 64.185 25.9C64.4517 25.9 64.725 25.9433 65.005 26.03C65.285 26.11 65.5417 26.2333 65.775 26.4C66.0084 26.5667 66.195 26.7733 66.335 27.02C66.4817 27.26 66.555 27.54 66.555 27.86C66.555 28.0467 66.5117 28.23 66.425 28.41C66.345 28.5833 66.235 28.74 66.095 28.88C65.9617 29.0133 65.8084 29.12 65.635 29.2C65.8284 29.3 66.0117 29.43 66.185 29.59C66.3584 29.75 66.4984 29.94 66.605 30.16C66.7117 30.38 66.765 30.6267 66.765 30.9ZM65.405 30.82C65.405 30.6467 65.3717 30.4967 65.305 30.37C65.2384 30.2367 65.145 30.1267 65.025 30.04C64.905 29.9467 64.7717 29.8767 64.625 29.83C64.4784 29.7833 64.3284 29.76 64.175 29.76C63.9617 29.76 63.7617 29.8033 63.575 29.89C63.395 29.9767 63.2484 30.1 63.135 30.26C63.0217 30.42 62.965 30.6067 62.965 30.82C62.965 30.98 62.9984 31.1267 63.065 31.26C63.1384 31.3867 63.2317 31.4967 63.345 31.59C63.465 31.6833 63.595 31.7567 63.735 31.81C63.8817 31.8567 64.0317 31.88 64.185 31.88C64.3984 31.88 64.5984 31.8333 64.785 31.74C64.9717 31.6467 65.1217 31.52 65.235 31.36C65.3484 31.2 65.405 31.02 65.405 30.82ZM63.185 27.91C63.185 28.09 63.235 28.2433 63.335 28.37C63.435 28.4967 63.5617 28.5933 63.715 28.66C63.875 28.72 64.0317 28.75 64.185 28.75C64.345 28.75 64.4984 28.7167 64.645 28.65C64.7984 28.5833 64.925 28.49 65.025 28.37C65.1317 28.2433 65.185 28.0867 65.185 27.9C65.185 27.7333 65.1384 27.59 65.045 27.47C64.9517 27.35 64.8284 27.2567 64.675 27.19C64.5284 27.1233 64.3617 27.09 64.175 27.09C64.0017 27.09 63.8384 27.1233 63.685 27.19C63.5317 27.2567 63.4084 27.3533 63.315 27.48C63.2284 27.6 63.185 27.7433 63.185 27.91ZM67.7802 30.86V29.65H70.8102V30.86H67.7802ZM76.0799 31.79V33H72.0199V31.79H73.4399V28.76C73.3799 28.84 73.2865 28.9233 73.1599 29.01C73.0332 29.09 72.8899 29.1667 72.7299 29.24C72.5699 29.3133 72.4099 29.3733 72.2499 29.42C72.0899 29.4667 71.9465 29.49 71.8199 29.49V28.24C71.9399 28.24 72.0832 28.2033 72.2499 28.13C72.4232 28.05 72.5932 27.9567 72.7599 27.85C72.9332 27.7433 73.0799 27.64 73.1999 27.54C73.3265 27.4333 73.4065 27.35 73.4399 27.29H74.8099V31.79H76.0799ZM76.6413 29.76C76.6413 29.3 76.7546 28.8833 76.9813 28.51C77.208 28.1367 77.518 27.84 77.9113 27.62C78.3046 27.4 78.7446 27.29 79.2313 27.29C79.7713 27.29 80.2346 27.42 80.6213 27.68C81.0146 27.94 81.318 28.3133 81.5313 28.8C81.7446 29.28 81.8513 29.8633 81.8513 30.55C81.8513 31.41 81.738 32.1367 81.5113 32.73C81.2913 33.3233 80.9746 33.7733 80.5613 34.08C80.148 34.3867 79.6613 34.54 79.1013 34.54C78.6546 34.54 78.2413 34.4433 77.8613 34.25C77.4813 34.0567 77.1613 33.78 76.9013 33.42L77.6713 32.58C77.8313 32.8267 78.038 33.02 78.2913 33.16C78.5513 33.3067 78.828 33.38 79.1213 33.38C79.4213 33.38 79.678 33.3 79.8913 33.14C80.1113 32.98 80.2813 32.75 80.4013 32.45C80.528 32.1433 80.5946 31.7767 80.6013 31.35C80.5146 31.5033 80.3946 31.64 80.2413 31.76C80.0946 31.88 79.9246 31.9733 79.7313 32.04C79.5446 32.1 79.338 32.13 79.1113 32.13C78.6513 32.13 78.2313 32.0267 77.8513 31.82C77.478 31.6067 77.1813 31.3233 76.9613 30.97C76.748 30.61 76.6413 30.2067 76.6413 29.76ZM79.2313 28.42C78.998 28.42 78.7813 28.4833 78.5813 28.61C78.3813 28.73 78.2213 28.89 78.1013 29.09C77.9813 29.29 77.9213 29.5133 77.9213 29.76C77.9213 30 77.978 30.22 78.0913 30.42C78.2113 30.6133 78.3713 30.77 78.5713 30.89C78.7713 31.0033 78.9913 31.06 79.2313 31.06C79.4713 31.06 79.688 31.0033 79.8813 30.89C80.0813 30.77 80.2413 30.6133 80.3613 30.42C80.4813 30.22 80.5413 30 80.5413 29.76C80.5413 29.52 80.4813 29.3 80.3613 29.1C80.2413 28.8933 80.0813 28.73 79.8813 28.61C79.6813 28.4833 79.4646 28.42 79.2313 28.42ZM87.81 30.9C87.81 31.34 87.69 31.7233 87.45 32.05C87.2166 32.3767 86.9033 32.6333 86.51 32.82C86.1166 33 85.6866 33.09 85.22 33.09C84.7466 33.09 84.3133 32.9933 83.92 32.8C83.5333 32.6067 83.2233 32.3433 82.99 32.01C82.7633 31.67 82.65 31.2833 82.65 30.85C82.65 30.5833 82.7066 30.3433 82.82 30.13C82.9333 29.91 83.0733 29.7233 83.24 29.57C83.4133 29.41 83.5866 29.2867 83.76 29.2C83.6 29.12 83.45 29.0133 83.31 28.88C83.1766 28.7467 83.07 28.5933 82.99 28.42C82.91 28.2467 82.87 28.0633 82.87 27.87C82.87 27.5567 82.94 27.2767 83.08 27.03C83.22 26.7833 83.4066 26.5767 83.64 26.41C83.8733 26.2367 84.1266 26.11 84.4 26.03C84.68 25.9433 84.9566 25.9 85.23 25.9C85.4966 25.9 85.77 25.9433 86.05 26.03C86.33 26.11 86.5866 26.2333 86.82 26.4C87.0533 26.5667 87.24 26.7733 87.38 27.02C87.5266 27.26 87.6 27.54 87.6 27.86C87.6 28.0467 87.5566 28.23 87.47 28.41C87.39 28.5833 87.28 28.74 87.14 28.88C87.0066 29.0133 86.8533 29.12 86.68 29.2C86.8733 29.3 87.0566 29.43 87.23 29.59C87.4033 29.75 87.5433 29.94 87.65 30.16C87.7566 30.38 87.81 30.6267 87.81 30.9ZM86.45 30.82C86.45 30.6467 86.4166 30.4967 86.35 30.37C86.2833 30.2367 86.19 30.1267 86.07 30.04C85.95 29.9467 85.8166 29.8767 85.67 29.83C85.5233 29.7833 85.3733 29.76 85.22 29.76C85.0066 29.76 84.8066 29.8033 84.62 29.89C84.44 29.9767 84.2933 30.1 84.18 30.26C84.0666 30.42 84.01 30.6067 84.01 30.82C84.01 30.98 84.0433 31.1267 84.11 31.26C84.1833 31.3867 84.2766 31.4967 84.39 31.59C84.51 31.6833 84.64 31.7567 84.78 31.81C84.9266 31.8567 85.0766 31.88 85.23 31.88C85.4433 31.88 85.6433 31.8333 85.83 31.74C86.0166 31.6467 86.1666 31.52 86.28 31.36C86.3933 31.2 86.45 31.02 86.45 30.82ZM84.23 27.91C84.23 28.09 84.28 28.2433 84.38 28.37C84.48 28.4967 84.6066 28.5933 84.76 28.66C84.92 28.72 85.0766 28.75 85.23 28.75C85.39 28.75 85.5433 28.7167 85.69 28.65C85.8433 28.5833 85.97 28.49 86.07 28.37C86.1766 28.2433 86.23 28.0867 86.23 27.9C86.23 27.7333 86.1833 27.59 86.09 27.47C85.9966 27.35 85.8733 27.2567 85.72 27.19C85.5733 27.1233 85.4066 27.09 85.22 27.09C85.0466 27.09 84.8833 27.1233 84.73 27.19C84.5766 27.2567 84.4533 27.3533 84.36 27.48C84.2733 27.6 84.23 27.7433 84.23 27.91ZM93.8451 30.9C93.8451 31.34 93.7251 31.7233 93.4851 32.05C93.2518 32.3767 92.9385 32.6333 92.5451 32.82C92.1518 33 91.7218 33.09 91.2551 33.09C90.7818 33.09 90.3485 32.9933 89.9551 32.8C89.5685 32.6067 89.2585 32.3433 89.0251 32.01C88.7985 31.67 88.6851 31.2833 88.6851 30.85C88.6851 30.5833 88.7418 30.3433 88.8551 30.13C88.9685 29.91 89.1085 29.7233 89.2751 29.57C89.4485 29.41 89.6218 29.2867 89.7951 29.2C89.6351 29.12 89.4851 29.0133 89.3451 28.88C89.2118 28.7467 89.1051 28.5933 89.0251 28.42C88.9451 28.2467 88.9051 28.0633 88.9051 27.87C88.9051 27.5567 88.9751 27.2767 89.1151 27.03C89.2551 26.7833 89.4418 26.5767 89.6751 26.41C89.9085 26.2367 90.1618 26.11 90.4351 26.03C90.7151 25.9433 90.9918 25.9 91.2651 25.9C91.5318 25.9 91.8051 25.9433 92.0851 26.03C92.3651 26.11 92.6218 26.2333 92.8551 26.4C93.0885 26.5667 93.2751 26.7733 93.4151 27.02C93.5618 27.26 93.6351 27.54 93.6351 27.86C93.6351 28.0467 93.5918 28.23 93.5051 28.41C93.4251 28.5833 93.3151 28.74 93.1751 28.88C93.0418 29.0133 92.8885 29.12 92.7151 29.2C92.9085 29.3 93.0918 29.43 93.2651 29.59C93.4385 29.75 93.5785 29.94 93.6851 30.16C93.7918 30.38 93.8451 30.6267 93.8451 30.9ZM92.4851 30.82C92.4851 30.6467 92.4518 30.4967 92.3851 30.37C92.3185 30.2367 92.2251 30.1267 92.1051 30.04C91.9851 29.9467 91.8518 29.8767 91.7051 29.83C91.5585 29.7833 91.4085 29.76 91.2551 29.76C91.0418 29.76 90.8418 29.8033 90.6551 29.89C90.4751 29.9767 90.3285 30.1 90.2151 30.26C90.1018 30.42 90.0451 30.6067 90.0451 30.82C90.0451 30.98 90.0785 31.1267 90.1451 31.26C90.2185 31.3867 90.3118 31.4967 90.4251 31.59C90.5451 31.6833 90.6751 31.7567 90.8151 31.81C90.9618 31.8567 91.1118 31.88 91.2651 31.88C91.4785 31.88 91.6785 31.8333 91.8651 31.74C92.0518 31.6467 92.2018 31.52 92.3151 31.36C92.4285 31.2 92.4851 31.02 92.4851 30.82ZM90.2651 27.91C90.2651 28.09 90.3151 28.2433 90.4151 28.37C90.5151 28.4967 90.6418 28.5933 90.7951 28.66C90.9551 28.72 91.1118 28.75 91.2651 28.75C91.4251 28.75 91.5785 28.7167 91.7251 28.65C91.8785 28.5833 92.0051 28.49 92.1051 28.37C92.2118 28.2433 92.2651 28.0867 92.2651 27.9C92.2651 27.7333 92.2185 27.59 92.1251 27.47C92.0318 27.35 91.9085 27.2567 91.7551 27.19C91.6085 27.1233 91.4418 27.09 91.2551 27.09C91.0818 27.09 90.9185 27.1233 90.7651 27.19C90.6118 27.2567 90.4885 27.3533 90.3951 27.48C90.3085 27.6 90.2651 27.7433 90.2651 27.91ZM97.0303 29.53C97.0303 29.9767 96.9636 30.43 96.8303 30.89C96.6969 31.35 96.5169 31.8 96.2903 32.24C96.0636 32.68 95.8103 33.11 95.5303 33.53L94.5503 33.04C94.9169 32.42 95.2136 31.82 95.4403 31.24C95.6669 30.6533 95.7803 30.0933 95.7803 29.56C95.7803 29.22 95.7336 28.8667 95.6403 28.5C95.5536 28.1333 95.4403 27.78 95.3003 27.44C95.1669 27.0933 95.0303 26.7833 94.8903 26.51C94.7503 26.2367 94.6269 26.02 94.5203 25.86L95.5503 25.43C95.9636 26.1367 96.3136 26.83 96.6003 27.51C96.8869 28.1833 97.0303 28.8567 97.0303 29.53Z" fill="#FDFDFD"/>
</g>
<defs>
<filter id="filter0_d_1_1191" x="0" y="0" width="138" height="48" filterUnits="userSpaceOnUse" color-interpolation-filters="sRGB">
<feFlood flood-opacity="0" result="BackgroundImageFix"/>
<feColorMatrix in="SourceAlpha" type="matrix" values="0 0 0 0 0 0 0 0 0 0 0 0 0 0 0 0 0 0 127 0" result="hardAlpha"/>
<feOffset dy="2"/>
<feGaussianBlur stdDeviation="2"/>
<feComposite in2="hardAlpha" operator="out"/>
<feColorMatrix type="matrix" values="0 0 0 0 0 0 0 0 0 0 0 0 0 0 0 0 0 0 0.15 0"/>
<feBlend mode="normal" in2="BackgroundImageFix" result="effect1_dropShadow_1_1191"/>
<feBlend mode="normal" in="SourceGraphic" in2="effect1_dropShadow_1_1191" result="shape"/>
</filter>
</defs>
</svg>
